<svg width="134" height="131" viewBox="0 0 134 131" fill="none" xmlns="http://www.w3.org/2000/svg">
<circle cx="102.563" cy="39.6378" r="5.79528" transform="rotate(140.719 102.563 39.6378)" fill="white" fill-opacity="0.2"/>
<circle cx="124.284" cy="66.194" r="3.47717" transform="rotate(140.719 124.284 66.194)" fill="white" fill-opacity="0.2"/>
<circle cx="80.5805" cy="12.3965" r="8.80883" transform="rotate(140.719 80.5805 12.3965)" fill="white" fill-opacity="0.2"/>
<circle cx="81.3895" cy="56.9562" r="5.79528" transform="rotate(140.719 81.3895 56.9562)" fill="white" fill-opacity="0.2"/>
<circle cx="103.11" cy="83.5124" r="3.47717" transform="rotate(140.719 103.11 83.5124)" fill="white" fill-opacity="0.2"/>
<circle cx="59.3071" cy="29.7971" r="8.80883" transform="rotate(140.719 59.3071 29.7971)" fill="white" fill-opacity="0.2"/>
<circle cx="57.7039" cy="76.329" r="5.79528" transform="rotate(140.719 57.7039 76.329)" fill="white" fill-opacity="0.2"/>
<circle cx="79.4254" cy="102.886" r="3.47717" transform="rotate(140.719 79.4254 102.886)" fill="white" fill-opacity="0.2"/>
<circle cx="35.851" cy="48.9819" r="8.80883" transform="rotate(140.719 35.851 48.9819)" fill="white" fill-opacity="0.2"/>
<circle cx="34.3777" cy="95.4084" r="5.79528" transform="rotate(140.719 34.3777 95.4084)" fill="white" fill-opacity="0.2"/>
<circle cx="56.0987" cy="121.965" r="3.47717" transform="rotate(140.719 56.0987 121.965)" fill="white" fill-opacity="0.2"/>
<circle cx="12.3955" cy="68.167" r="8.80883" transform="rotate(140.719 12.3955 68.167)" fill="white" fill-opacity="0.2"/>
</svg>
