<svg width="75" height="75" xmlns="http://www.w3.org/2000/svg">

 <g class="currentLayer">
  <title>Layer 1</title>
  <g stroke="null" fill="#dbdbdb" class="selected" id="svg_1">
   <g stroke="null" fill="#dbdbdb" id="svg_2">
    <path stroke="null" fill="#dbdbdb" id="svg_3" d="m65.96681,20.95091c-0.01106,-0.12538 -0.03687,-0.24338 -0.07375,-0.36506c-0.03687,-0.12169 -0.08113,-0.23231 -0.14012,-0.34294c-0.02581,-0.04794 -0.0295,-0.10694 -0.06269,-0.15488l-7.375,-11.0625c-0.34294,-0.50887 -0.91819,-0.81862 -1.534,-0.81862l-40.5625,0c-0.61581,0 -1.19106,0.30975 -1.534,0.82231l-7.375,11.0625c-0.03319,0.04794 -0.03688,0.10325 -0.06269,0.15488c-0.059,0.11062 -0.10325,0.22125 -0.14012,0.34294c-0.03688,0.12169 -0.06269,0.23969 -0.07375,0.36506c-0.00737,0.05163 -0.03319,0.09956 -0.03319,0.15856l0,42.40625c0,2.0355 1.65569,3.6875 3.6875,3.6875l51.625,0c2.03181,0 3.6875,-1.652 3.6875,-3.6875l0,-42.40625c0,-0.059 -0.02581,-0.10694 -0.03319,-0.16225zm-10.17381,-9.0565l4.91912,7.375l-17.11738,0l-1.23163,-7.375l13.42988,0zm-21.42069,0l4.25169,0l1.23163,7.375l-6.71125,0l1.22794,-7.375zm-1.55981,11.0625l7.375,0l0,6.66331l-3.10488,-1.03987c-0.37981,-0.12169 -0.78912,-0.12169 -1.16525,0l-3.10487,1.03987l0,-6.66331zm-15.6055,-11.0625l13.42988,0l-1.23163,7.375l-17.11737,0l4.91913,-7.375zm45.1055,53.46875l0,-1.84375l-51.625,0l0,-40.5625l18.4375,0l0,9.21875c0,0.59369 0.28394,1.1505 0.767,1.49344c0.47938,0.35031 1.09519,0.43144 1.65938,0.25812l4.94862,-1.652l4.94862,1.64831c0.19175,0.06269 0.38719,0.09587 0.58263,0.09587c0.3835,0 0.75962,-0.118 1.07675,-0.35031c0.48306,-0.34294 0.767,-0.89975 0.767,-1.49344l0,-9.21875l18.4375,0l0,40.5625c0,0 0,0 0.00369,0l-0.00369,1.84375z"/>
   </g>
  </g>
  <g id="svg_37"/>
  <g id="svg_39"/>
  <g id="svg_41"/>
  <g id="svg_43"/>
  <g id="svg_45"/>
  <g id="svg_47"/>
  <g id="svg_49"/>
  <g id="svg_51"/>
  <g id="svg_53"/>
  <g id="svg_55"/>
  <g id="svg_57"/>
  <g id="svg_59"/>
  <g id="svg_61"/>
  <g id="svg_63"/>
  <g id="svg_65"/>
  <g id="svg_10"/>
  <g id="svg_11"/>
  <g id="svg_12"/>
  <g id="svg_13"/>
  <g id="svg_14"/>
  <g id="svg_15"/>
  <g id="svg_16"/>
  <g id="svg_17"/>
  <g id="svg_18"/>
  <g id="svg_19"/>
  <g id="svg_20"/>
  <g id="svg_21"/>
  <g id="svg_22"/>
  <g id="svg_23"/>
  <g id="svg_24"/>
  <g stroke="null" id="svg_7" fill="#dbdbdb">
   <g stroke="null" fill="#dbdbdb" id="svg_5">
    <path stroke="null" fill="#dbdbdb" id="svg_4" d="m25.74785,54.95709l-9.37505,0c-0.8625,0 -1.56249,0.70001 -1.56249,1.56251c0,0.86251 0.7,1.56251 1.56249,1.56251l9.37505,0c0.8625,0 1.56251,-0.7 1.56251,-1.56251c0,-0.8625 -0.70001,-1.56251 -1.56251,-1.56251z"/>
   </g>
  </g>
  <g stroke="null" id="svg_25" fill="#dbdbdb">
   <g stroke="null" fill="#dbdbdb" id="svg_9">
    <path stroke="null" fill="#dbdbdb" id="svg_8" d="m23.56036,49.95711l-7.50006,0c-0.69,0 -1.25,0.70001 -1.25,1.56251c0,0.86251 0.56,1.5625 1.25,1.5625l7.50006,0c0.69,0 1.25001,-0.69999 1.25001,-1.5625c0,-0.8625 -0.56001,-1.56251 -1.25001,-1.56251z"/>
   </g>
  </g>
 </g>
 <g>
  <title>Layer 2</title>
  <rect fill="none" y="1" x="1" height="512" width="100" id="backgroundrect"/>
 </g>
 <g>
  <title>background</title>
  <rect fill="none" id="canvas_background" height="77" width="77" y="-1" x="-1"/>
 </g>
</svg>