<svg width="60" height="61" viewBox="0 0 43 44" fill="none" xmlns="http://www.w3.org/2000/svg">
    <path
        d="M41.972 8.34836C41.167 7.41681 40.0198 6.90353 38.7418 6.90353H29.0923V1.28906C29.0923 0.577057 28.5228 0 27.8202 0H21.0077C20.3051 0 19.7356 0.577057 19.7356 1.28906V6.90353H7.83614L7.52508 4.54025C7.18984 1.99435 5.44074 0 3.54291 0H1.27207C0.569449 0 0 0.577057 0 1.28906C0 2.00107 0.569449 2.57812 1.27207 2.57812H3.54291C3.95103 2.57812 4.81531 3.45261 5.00314 4.88098L8.64443 32.5562C8.80477 33.7761 9.42324 34.9182 10.3859 35.7722C11.0998 36.4056 11.9435 36.8269 12.8274 37.0031C12.4673 37.6742 12.2629 38.4429 12.2629 39.259C12.2629 41.8734 14.3615 44 16.941 44C19.5206 44 21.6195 41.8734 21.6195 39.259C21.6195 38.4802 21.432 37.7454 21.1021 37.0965H27.7679C27.4379 37.7454 27.2504 38.4802 27.2504 39.259C27.2504 41.8734 29.349 44 31.9289 44C34.5085 44 36.6071 41.8734 36.6071 39.259C36.6071 38.4802 36.4196 37.7454 36.09 37.0965H39.4229C40.1251 37.0965 40.6949 36.5191 40.6949 35.8074C40.6949 35.0954 40.1251 34.5183 39.4229 34.5183H13.7619C12.5189 34.5183 11.3304 33.4636 11.166 32.2151L10.9 30.1926H36.0164C37.2309 30.1926 38.4297 29.7223 39.3924 28.8686C40.3547 28.0146 40.9732 26.8723 41.1342 25.6523L42.9585 11.7849C43.1274 10.5008 42.7773 9.28024 41.972 8.34836ZM19.0754 39.259C19.0754 40.4517 18.118 41.4219 16.941 41.4219C15.7644 41.4219 14.807 40.4517 14.807 39.259C14.807 38.0666 15.7644 37.0965 16.941 37.0965C18.118 37.0965 19.0754 38.0666 19.0754 39.259ZM34.0633 39.259C34.0633 40.4517 33.1059 41.4219 31.9289 41.4219C30.7523 41.4219 29.7949 40.4517 29.7949 39.259C29.7949 38.0666 30.7523 37.0965 31.9289 37.0965C33.1059 37.0965 34.0633 38.0666 34.0633 39.259ZM22.2797 2.57812H26.5481V8.17783C26.5481 8.18286 26.5475 8.18756 26.5475 8.1926C26.5475 8.19763 26.5481 8.20267 26.5481 8.2077V15.0965C26.5481 15.8081 27.1176 16.3855 27.8202 16.3855H28.2687L24.49 20.1842L20.7112 16.3855H21.0077C21.7103 16.3855 22.2797 15.8081 22.2797 15.0965V2.57812ZM40.4365 11.4438L38.6122 25.3116C38.4479 26.5597 37.2593 27.6145 36.0164 27.6145H10.5608L8.17536 9.48166H19.7356V13.8074H17.6225C17.107 13.8074 16.6426 14.1226 16.4465 14.6053C16.25 15.0884 16.3607 15.6436 16.7267 16.0116L23.5942 22.9151C23.842 23.1645 24.166 23.2891 24.49 23.2891C24.8139 23.2891 25.1379 23.1645 25.3857 22.9151L32.2532 16.0116C32.6193 15.6436 32.7299 15.0884 32.5335 14.6053C32.3374 14.1226 31.8729 13.8074 31.3575 13.8074H29.0923V9.48166H38.7418C39.2758 9.48166 39.7432 9.6824 40.0579 10.0466C40.3726 10.4112 40.5071 10.9073 40.4365 11.4438Z"
        fill="#DBDBDB" />
</svg>