<svg width="120" height="44" viewBox="0 0 91 33" fill="none" xmlns="http://www.w3.org/2000/svg">
    <path
        d="M6.46095 26.3906C0.959403 20.8893 0.959403 11.9656 6.46095 6.46067C11.9625 0.955721 20.8866 0.959362 26.3918 6.46067L28.0411 4.81137C21.6257 -1.60379 11.227 -1.60379 4.81158 4.81137C-1.60386 11.2265 -1.60386 21.6248 4.81158 28.0399C11.227 34.4551 21.6257 34.4551 28.0411 28.0399L26.3918 26.3906C20.8902 31.8956 11.9661 31.8956 6.46095 26.3906Z"
        fill="url(#paint0_linear)" />
    <path
        d="M25.0083 7.84422C20.2677 3.10385 12.5852 3.10385 7.84463 7.84422C5.47434 10.2144 4.29102 13.32 4.29102 16.4257H5.84936C5.84936 13.7169 6.88341 11.0118 8.94785 8.9474C13.0804 4.81504 19.7762 4.81504 23.9087 8.9474C28.0412 13.0798 28.0412 19.7753 23.9087 23.9076C21.8443 25.972 19.1354 27.006 16.4265 27.006V28.5643C19.5322 28.5643 22.638 27.381 25.0083 25.0108C29.7489 20.2704 29.7489 12.5846 25.0083 7.84422Z"
        fill="url(#paint1_linear)" />
    <path
        d="M22.205 16.4255L17.4608 19.1671L12.7166 21.905V16.4255V10.9497L17.4608 13.6876L22.205 16.4255Z"
        fill="#ED3590" />
    <path
        d="M48.9474 7.52411C47.7678 7.52411 46.8029 8.4416 46.7192 9.59939C45.3465 8.36879 43.4059 7.62969 41.4252 7.62969C37.0669 7.62969 32.4319 10.9028 32.4319 16.9648C32.4319 19.619 33.415 22.0329 35.1954 23.7695C36.8484 25.3788 39.1058 26.2999 41.3887 26.2999C43.4022 26.2999 45.321 25.5426 46.7082 24.2392V24.2429C46.7082 25.4771 47.7131 26.4783 48.9438 26.4783C50.1781 26.4783 51.1794 25.4735 51.1794 24.2429V9.75959C51.183 8.52534 50.1817 7.52411 48.9474 7.52411ZM41.9058 22.1275C39.0876 22.1275 36.8775 19.8447 36.8775 16.9284C36.8775 14.0339 39.084 11.7657 41.9058 11.7657C44.7239 11.7657 46.934 14.0339 46.934 16.9284C46.934 19.8447 44.7239 22.1275 41.9058 22.1275Z"
        fill="#ED3590" />
    <path
        d="M70.5788 7.52411C69.3445 7.52411 68.3433 8.52898 68.3433 9.75959V24.2392C68.3433 25.4735 69.3482 26.4747 70.5788 26.4747C71.8095 26.4747 72.8144 25.4698 72.8144 24.2392V9.75959C72.8144 8.52534 71.8131 7.52411 70.5788 7.52411Z"
        fill="#ED3590" />
    <path
        d="M64.9091 7.97188H64.312H62.8192H62.7245C62.6881 7.97188 62.6553 7.97552 62.6189 7.97552H62.6007C60.9331 8.01921 59.5641 8.58354 58.581 9.62482C58.5119 8.45247 57.5361 7.52042 56.3491 7.52042C55.1148 7.52042 54.1135 8.52529 54.1135 9.75589V24.2355C54.1135 25.4698 55.1184 26.471 56.3491 26.471C57.5834 26.471 58.5847 25.4661 58.5847 24.2355V15.6759C58.8614 13.2657 59.9282 12.2826 62.2657 12.2826H62.699H62.7026H62.7245H64.9054C66.0924 12.2826 67.0609 11.3178 67.0609 10.1273C67.0609 8.9367 66.0961 7.97188 64.9091 7.97188Z"
        fill="#ED3590" />
    <path
        d="M73.0592 4.35567C73.1472 2.98719 72.1092 1.80645 70.7406 1.71841C69.3721 1.63037 68.1913 2.66837 68.1033 4.03684C68.0152 5.40532 69.0533 6.58605 70.4218 6.67409C71.7903 6.76213 72.9711 5.72414 73.0592 4.35567Z"
        fill="#ED3590" />
    <path
        d="M84.0798 14.8529L84.0361 14.842C81.6076 14.3032 80.3405 13.9791 80.3405 13.1126C80.3405 12.1187 81.3673 11.4524 82.8928 11.4524C84.433 11.4524 85.7037 12.0859 86.3846 13.1891C86.7596 13.9172 87.4878 14.3614 88.2961 14.3614C89.4794 14.3614 90.4406 13.4002 90.4406 12.217C90.4406 11.8347 90.3351 11.456 90.1384 11.1211L90.1348 11.1138L90.1311 11.1065C90.1093 11.0737 90.0365 10.9609 89.9855 10.8953C88.4891 8.76181 85.9731 7.58582 82.8965 7.58582H82.8127C80.8466 7.58582 79.0589 8.18291 77.7772 9.26424C76.5612 10.291 75.8621 11.7182 75.8621 13.1781C75.8621 17.3651 79.9364 18.228 82.1246 18.6904L82.547 18.7778C84.6733 19.211 85.9622 19.5351 85.9622 20.4271C85.9622 21.7159 84.5932 22.2912 83.2387 22.2912C81.4765 22.2912 80.0784 21.4938 79.1936 19.9902C78.804 19.2219 78.0285 18.745 77.1692 18.745C75.9167 18.745 74.8972 19.7644 74.8972 21.0169C74.8972 21.5849 75.1594 22.0654 75.3851 22.4186C76.9617 24.9526 79.6196 26.2925 83.0676 26.2925H83.1441C86.0205 26.2925 87.7354 25.2075 88.6638 24.2973C89.7561 23.2305 90.4079 21.756 90.4079 20.3579C90.4079 16.2437 86.4465 15.3736 84.0798 14.8529Z"
        fill="#ED3590" />
    <defs>
        <linearGradient id="paint0_linear" x1="0.00247588" y1="16.4267" x2="32.8522" y2="16.4267"
            gradientUnits="userSpaceOnUse">
            <stop stop-color="#FDBA4D" />
            <stop offset="0.54" stop-color="#ED1B58" />
            <stop offset="1" stop-color="#ED3691" />
        </linearGradient>
        <linearGradient id="paint1_linear" x1="4.29134" y1="16.4267" x2="28.5636" y2="16.4267"
            gradientUnits="userSpaceOnUse">
            <stop stop-color="#FDBA4D" />
            <stop offset="0.54" stop-color="#ED1B58" />
            <stop offset="1" stop-color="#ED3691" />
        </linearGradient>
    </defs>
</svg>