<svg width="14" height="15" viewBox="0 0 14 15" fill="none" xmlns="http://www.w3.org/2000/svg">
    <path
        d="M13.6622 2.58775C13.6036 2.52929 13.5287 2.49991 13.4377 2.49991H10.42L9.73638 0.869149C9.63876 0.628209 9.46295 0.423116 9.20918 0.253835C8.95518 0.084589 8.69789 0 8.43755 0H5.31248C5.05215 0 4.79493 0.084589 4.54102 0.253835C4.28708 0.423116 4.1113 0.628175 4.01361 0.869149L3.33003 2.49991H0.312463C0.221238 2.49991 0.146466 2.52929 0.0878385 2.58775C0.0293821 2.64634 0 2.72125 0 2.81237V3.43743C0 3.52855 0.0292453 3.60346 0.0878385 3.66195C0.146466 3.72051 0.221375 3.74979 0.312463 3.74979H1.24988V13.0467C1.24988 13.5873 1.40288 14.0478 1.70885 14.4285C2.01488 14.8095 2.38272 14.9999 2.81244 14.9999H10.9376C11.3674 14.9999 11.7352 14.803 12.0412 14.4092C12.3471 14.0152 12.5 13.5481 12.5 13.0078V3.74979H13.4376C13.5287 3.74979 13.6036 3.72051 13.6621 3.66195C13.7205 3.6035 13.75 3.52855 13.75 3.43743V2.81237C13.7501 2.72125 13.7206 2.64634 13.6622 2.58775ZM5.16605 1.35719C5.21158 1.29863 5.26695 1.26271 5.33205 1.24978H8.42774C8.49283 1.26281 8.54831 1.2987 8.59377 1.35719L9.06268 2.49977H4.68752L5.16605 1.35719ZM11.2502 13.0079C11.2502 13.151 11.2274 13.2829 11.1818 13.4033C11.1362 13.5236 11.0889 13.6115 11.0401 13.6669C10.9912 13.7224 10.9573 13.7499 10.9376 13.7499H2.81247C2.79294 13.7499 2.75894 13.7224 2.70999 13.6669C2.66111 13.6115 2.61388 13.5236 2.56828 13.4033C2.52276 13.2829 2.49998 13.1509 2.49998 13.0079V3.74979H11.2501V13.0079H11.2502Z"
        fill="#828282" />
    <path
        d="M4.06246 11.875H4.68742C4.77865 11.875 4.85359 11.8458 4.91205 11.7872C4.9705 11.7285 4.99989 11.6538 4.99989 11.5625V5.93736C4.99989 5.84627 4.9705 5.77136 4.91205 5.71274C4.85342 5.65428 4.77868 5.625 4.68742 5.625H4.06246C3.97124 5.625 3.89643 5.65425 3.83784 5.71274C3.77931 5.77136 3.75 5.84627 3.75 5.93736V11.5625C3.75 11.6538 3.77921 11.7285 3.83784 11.7872C3.89643 11.8458 3.97124 11.875 4.06246 11.875Z"
        fill="#828282" />
    <path
        d="M6.56246 11.875H7.18742C7.27861 11.875 7.35352 11.8458 7.41194 11.7872C7.47071 11.7285 7.49982 11.6538 7.49982 11.5625V5.93736C7.49982 5.84627 7.47067 5.77136 7.41194 5.71274C7.35352 5.65428 7.27861 5.625 7.18742 5.625H6.56246C6.47134 5.625 6.39643 5.65425 6.33784 5.71274C6.27921 5.77136 6.25 5.84627 6.25 5.93736V11.5625C6.25 11.6538 6.27921 11.7285 6.33784 11.7872C6.3964 11.8458 6.47134 11.875 6.56246 11.875Z"
        fill="#828282" />
    <path
        d="M9.06253 11.875H9.68739C9.77868 11.875 9.85359 11.8458 9.91212 11.7872C9.97064 11.7285 9.99975 11.6538 9.99975 11.5625V5.93736C9.99975 5.84627 9.97061 5.77136 9.91212 5.71274C9.85359 5.65428 9.77868 5.625 9.68739 5.625H9.06253C8.9712 5.625 8.89653 5.65425 8.83777 5.71274C8.77924 5.77136 8.75 5.84627 8.75 5.93736V11.5625C8.75 11.6538 8.77924 11.7285 8.83777 11.7872C8.89653 11.8458 8.9712 11.875 9.06253 11.875Z"
        fill="#828282" />
</svg>