<svg class="mb-4" width="67" height="43" viewBox="0 0 67 43" fill="none"
    xmlns="http://www.w3.org/2000/svg">
    <path
        d="M62.3099 18.1445L60.5748 11.2043C61.0492 11.1036 61.4051 10.6827 61.4051 10.1785V9.05954C61.4051 6.63 59.4285 4.65349 56.9991 4.65349H49.0962V2.34539C49.0962 1.14986 48.1236 0.177307 46.9281 0.177307H6.644C5.44847 0.177307 4.47592 1.14986 4.47592 2.34539V21.3685C4.47592 21.9478 4.94558 22.4176 5.52502 22.4176C6.10434 22.4176 6.57413 21.9479 6.57413 21.3685V2.34539C6.57413 2.30679 6.6054 2.27551 6.644 2.27551H46.928C46.9666 2.27551 46.9978 2.30679 46.9978 2.34539V21.3687C46.9978 21.948 47.4675 22.4178 48.0469 22.4178C48.6263 22.4178 49.096 21.9482 49.096 21.3687V20.1795H61.4713C61.4724 20.1795 61.4731 20.1797 61.4741 20.1797C61.4751 20.1797 61.476 20.1796 61.4769 20.1796C62.9998 20.1806 64.2928 21.1801 64.7369 22.5574H61.4748C60.8955 22.5574 60.4257 23.0271 60.4257 23.6065V25.8445C60.4257 27.657 61.9003 29.1316 63.7128 29.1316H64.9018V33.7474H62.1587C61.2576 31.1455 58.7842 29.2713 55.8798 29.2713C52.9754 29.2713 50.5019 31.1455 49.6009 33.7474H49.0958V25.8444C49.0958 25.2651 48.6261 24.7953 48.0467 24.7953C47.4674 24.7953 46.9976 25.2649 46.9976 25.8444V33.7471H25.232C24.3309 31.1452 21.8575 29.2711 18.9531 29.2711C16.0486 29.2711 13.5751 31.1452 12.6741 33.7471H6.644C6.6054 33.7471 6.57413 33.7158 6.57413 33.6772V31.3693H11.1201C11.6994 31.3693 12.1692 30.8996 12.1692 30.3202C12.1692 29.7407 11.6995 29.2711 11.1201 29.2711H1.0491C0.469786 29.2711 0 29.7407 0 30.3202C0 30.8996 0.469655 31.3693 1.0491 31.3693H4.47605V33.6772C4.47605 34.8728 5.4486 35.8453 6.64414 35.8453H12.3109C12.3106 35.8686 12.309 35.8918 12.309 35.9152C12.309 39.5788 15.2896 42.5592 18.9531 42.5592C22.6165 42.5592 25.5971 39.5788 25.5971 35.9152C25.5971 35.8917 25.5955 35.8686 25.5952 35.8453H49.2376C49.2374 35.8686 49.2358 35.8918 49.2358 35.9152C49.2358 39.5788 52.2164 42.5592 55.8798 42.5592C59.5432 42.5592 62.5238 39.5788 62.5238 35.9152C62.5238 35.8917 62.5222 35.8686 62.522 35.8453H65.9509C66.5302 35.8453 67 35.3757 67 34.7962V23.6063C67.0001 20.8436 64.9617 18.5482 62.3099 18.1445ZM49.0962 6.75156H56.9991C58.2717 6.75156 59.307 7.78693 59.307 9.05954V9.12941H49.0962V6.75156ZM49.0962 18.0814V11.2275H58.418L60.1314 18.0814H49.0962ZM18.9531 40.4614C16.4464 40.4614 14.4071 38.4222 14.4071 35.9155C14.4071 33.4087 16.4464 31.3695 18.9531 31.3695C21.4597 31.3695 23.499 33.4087 23.499 35.9155C23.499 38.4222 21.4597 40.4614 18.9531 40.4614ZM55.8801 40.4614C53.3735 40.4614 51.3341 38.4222 51.3341 35.9155C51.3341 33.4087 53.3735 31.3695 55.8801 31.3695C58.3867 31.3695 60.426 33.4087 60.426 35.9155C60.426 38.4222 58.3867 40.4614 55.8801 40.4614ZM64.9021 27.0334H63.7131C63.0575 27.0334 62.5241 26.5 62.5241 25.8444V24.6554H64.9019V27.0334H64.9021Z"
        fill="#DBDBDB" />
    <path
        d="M18.953 33.7474C17.7575 33.7474 16.7849 34.72 16.7849 35.9155C16.7849 37.1111 17.7575 38.0836 18.953 38.0836C20.1485 38.0836 21.1211 37.1111 21.1211 35.9155C21.1211 34.72 20.1485 33.7474 18.953 33.7474Z"
        fill="#DBDBDB" />
    <path
        d="M55.8798 33.7474C54.6842 33.7474 53.7117 34.72 53.7117 35.9155C53.7117 37.1111 54.6842 38.0836 55.8798 38.0836C57.0753 38.0836 58.0478 37.1111 58.0478 35.9155C58.0478 34.72 57.0753 33.7474 55.8798 33.7474Z"
        fill="#DBDBDB" />
    <path
        d="M43.571 29.2715H27.9051C27.3257 29.2715 26.856 29.7411 26.856 30.3206C26.856 30.9 27.3256 31.3697 27.9051 31.3697H43.571C44.1504 31.3697 44.6201 30.9 44.6201 30.3206C44.6201 29.7411 44.1505 29.2715 43.571 29.2715Z"
        fill="#DBDBDB" />
    <path
        d="M16.7152 24.7954H3.28714C2.70782 24.7954 2.23804 25.2651 2.23804 25.8445C2.23804 26.424 2.70769 26.8936 3.28714 26.8936H16.7152C17.2945 26.8936 17.7643 26.424 17.7643 25.8445C17.7643 25.2651 17.2945 24.7954 16.7152 24.7954Z"
        fill="#DBDBDB" />
    <path
        d="M36.48 10.5555C36.0704 10.1459 35.4061 10.1459 34.9965 10.5556L25.6672 19.8847L20.814 15.0315C20.4043 14.6218 19.7401 14.6218 19.3305 15.0315C18.9208 15.4412 18.9208 16.1054 19.3305 16.5151L24.9255 22.1101C25.1303 22.315 25.3988 22.4174 25.6672 22.4174C25.9356 22.4174 26.2043 22.315 26.4089 22.1101L36.4799 12.0392C36.8896 11.6293 36.8896 10.9652 36.48 10.5555Z"
        fill="#DBDBDB" />
</svg>