<svg class="mr-6" width="67" height="43" viewBox="0 0 47 30" fill="none"
    xmlns="http://www.w3.org/2000/svg">
    <path
        d="M43.1697 12.4481L41.9676 7.63977C42.2963 7.56996 42.5429 7.27839 42.5429 6.92907V6.15381C42.5429 4.47057 41.1734 3.1012 39.4903 3.1012H34.015V1.5021C34.015 0.673804 33.3412 0 32.5129 0H4.60312C3.77483 0 3.10102 0.673804 3.10102 1.5021V14.6817C3.10102 15.0831 3.42641 15.4086 3.82786 15.4086C4.22923 15.4086 4.55471 15.0832 4.55471 14.6817V1.5021C4.55471 1.47535 4.57637 1.45368 4.60312 1.45368H32.5128C32.5395 1.45368 32.5612 1.47535 32.5612 1.5021V14.6819C32.5612 15.0833 32.8866 15.4087 33.288 15.4087C33.6894 15.4087 34.0149 15.0833 34.0149 14.6819V13.858H42.5887C42.5895 13.858 42.59 13.8581 42.5906 13.8581C42.5914 13.8581 42.592 13.858 42.5926 13.858C43.6477 13.8588 44.5435 14.5512 44.8512 15.5055H42.5912C42.1898 15.5055 41.8643 15.8309 41.8643 16.2323V17.7828C41.8643 19.0386 42.8859 20.0602 44.1417 20.0602H44.9655V23.2581H43.065C42.4407 21.4555 40.7271 20.157 38.7148 20.157C36.7026 20.157 34.9889 21.4555 34.3646 23.2581H34.0147V17.7827C34.0147 17.3814 33.6893 17.0559 33.2878 17.0559C32.8865 17.0559 32.561 17.3813 32.561 17.7827V23.2579H17.4813C16.857 21.4553 15.1434 20.1568 13.1311 20.1568C11.1189 20.1568 9.40515 21.4553 8.78094 23.2579H4.60312C4.57637 23.2579 4.55471 23.2363 4.55471 23.2095V21.6105H7.70423C8.1056 21.6105 8.43107 21.2851 8.43107 20.8837C8.43107 20.4822 8.10569 20.1568 7.70423 20.1568H0.726842C0.325479 20.1568 0 20.4822 0 20.8837C0 21.2851 0.325388 21.6105 0.726842 21.6105H3.10111V23.2095C3.10111 24.0378 3.77492 24.7116 4.60321 24.7116H8.52926C8.52908 24.7278 8.52799 24.7438 8.52799 24.76C8.52799 27.2982 10.593 29.3631 13.1311 29.3631C15.6692 29.3631 17.7342 27.2982 17.7342 24.76C17.7342 24.7437 17.7331 24.7278 17.733 24.7116H34.113C34.1128 24.7278 34.1117 24.7438 34.1117 24.76C34.1117 27.2982 36.1767 29.3631 38.7148 29.3631C41.2529 29.3631 43.3179 27.2982 43.3179 24.76C43.3179 24.7437 43.3168 24.7278 43.3167 24.7116H45.6923C46.0937 24.7116 46.4191 24.3862 46.4191 23.9848V16.2321C46.4192 14.3181 45.007 12.7278 43.1697 12.4481ZM34.015 4.5548H39.4903C40.3719 4.5548 41.0893 5.27212 41.0893 6.15381V6.20223H34.015V4.5548ZM34.015 12.4044V7.65582H40.4733L41.6604 12.4044H34.015ZM13.1311 27.9097C11.3945 27.9097 9.98159 26.4969 9.98159 24.7602C9.98159 23.0235 11.3945 21.6107 13.1311 21.6107C14.8678 21.6107 16.2806 23.0235 16.2806 24.7602C16.2806 26.4969 14.8678 27.9097 13.1311 27.9097ZM38.715 27.9097C36.9784 27.9097 35.5655 26.4969 35.5655 24.7602C35.5655 23.0235 36.9784 21.6107 38.715 21.6107C40.4516 21.6107 41.8645 23.0235 41.8645 24.7602C41.8645 26.4969 40.4516 27.9097 38.715 27.9097ZM44.9656 18.6065H44.1419C43.6877 18.6065 43.3181 18.237 43.3181 17.7827V16.959H44.9655V18.6065H44.9656Z"
        fill="#F14655" />
    <path
        d="M13.1308 23.2581C12.3025 23.2581 11.6287 23.9319 11.6287 24.7602C11.6287 25.5885 12.3025 26.2623 13.1308 26.2623C13.9591 26.2623 14.6329 25.5885 14.6329 24.7602C14.6329 23.9319 13.9591 23.2581 13.1308 23.2581Z"
        fill="#F14655" />
    <path
        d="M38.7154 23.2581C37.8871 23.2581 37.2133 23.9319 37.2133 24.7602C37.2133 25.5885 37.8871 26.2623 38.7154 26.2623C39.5436 26.2623 40.2175 25.5885 40.2175 24.7602C40.2175 23.9319 39.5436 23.2581 38.7154 23.2581Z"
        fill="#F14655" />
    <path
        d="M30.1866 20.1572H19.3328C18.9314 20.1572 18.606 20.4826 18.606 20.884C18.606 21.2855 18.9313 21.6108 19.3328 21.6108H30.1866C30.5879 21.6108 30.9134 21.2855 30.9134 20.884C30.9134 20.4826 30.588 20.1572 30.1866 20.1572Z"
        fill="#F14655" />
    <path
        d="M11.5803 17.056H2.27701C1.87565 17.056 1.55017 17.3814 1.55017 17.7828C1.55017 18.1843 1.87556 18.5097 2.27701 18.5097H11.5803C11.9816 18.5097 12.3071 18.1843 12.3071 17.7828C12.3071 17.3814 11.9816 17.056 11.5803 17.056Z"
        fill="#F14655" />
    <path
        d="M25.2747 7.19027C24.9909 6.90649 24.5306 6.90649 24.2468 7.19036L17.7833 13.6538L14.4209 10.2914C14.1371 10.0075 13.6768 10.0075 13.3931 10.2914C13.1092 10.5752 13.1092 11.0354 13.3931 11.3192L17.2694 15.1956C17.4113 15.3376 17.5974 15.4085 17.7833 15.4085C17.9693 15.4085 18.1554 15.3376 18.2972 15.1956L25.2746 8.2182C25.5585 7.93424 25.5585 7.47413 25.2747 7.19027Z"
        fill="#F14655" />
</svg>