<svg width="120" height="120" viewBox="0 0 120 120" fill="none" xmlns="http://www.w3.org/2000/svg">
<path d="M21.9113 0C9.7734 0 0 9.77338 0 21.9112V98.0886C0 110.226 9.7734 120 21.9113 120H63.1988V73.0874H50.7938V56.1974H63.1988V41.7675C63.1988 30.4305 70.5283 20.0212 87.4126 20.0212C94.2487 20.0212 99.3038 20.6775 99.3038 20.6775L98.9063 36.45C98.9063 36.45 93.7507 36.4013 88.125 36.4013C82.0363 36.4013 81.06 39.2067 81.06 43.8639V56.1976H99.39L98.5913 73.0875H81.06V120H98.0887C110.227 120 120 110.227 120 98.0888V21.9114C120 9.7735 110.227 0.00012 98.0887 0.00012H21.9112L21.9113 0Z" fill="black"/>
</svg>
