<svg width="298" height="211" viewBox="0 0 298 211" fill="none" xmlns="http://www.w3.org/2000/svg">
<rect y="38.3481" width="167.638" height="49.0647" rx="10.3965" fill="#E9E9E9"/>
<rect x="129.609" y="99.3406" width="167.638" height="49.0647" rx="10.3965" fill="#E9E9E9"/>
<rect y="161.026" width="167.638" height="49.0647" rx="10.3965" fill="#E9E9E9"/>
<path d="M38.067 70.094C36.5145 70.094 35.3431 69.7475 34.553 69.0544C33.7629 68.3613 33.3678 67.3494 33.3678 66.0186V65.1869C33.3678 64.6186 33.444 64.1542 33.5965 63.7938C33.749 63.4195 33.9361 63.0799 34.1579 62.7749C34.3797 62.47 34.5599 62.1996 34.6986 61.964C34.851 61.7145 34.9273 61.458 34.9273 61.1947C34.9273 60.9451 34.8649 60.7719 34.7401 60.6748C34.6292 60.5639 34.4768 60.5085 34.2827 60.5085C34.0332 60.5085 33.7282 60.5917 33.3678 60.758L32.8688 58.8035C33.2569 58.5955 33.6728 58.4569 34.1164 58.3876C34.5738 58.3044 34.9758 58.2628 35.3223 58.2628C36.2372 58.2628 36.8818 58.4846 37.2561 58.9282C37.6442 59.3579 37.8383 59.9401 37.8383 60.6748C37.8383 61.1046 37.7759 61.4858 37.6512 61.8184C37.5264 62.1373 37.367 62.47 37.1729 62.8165C36.9927 63.1353 36.8264 63.4334 36.6739 63.7106C36.5353 63.9878 36.466 64.3898 36.466 64.9166V65.7483C36.466 66.4275 36.6046 66.9196 36.8818 67.2246C37.1729 67.5157 37.5749 67.6613 38.0878 67.6613C39.1552 67.6613 39.6889 67.0583 39.6889 65.8523V58.4292H42.787V65.9354C42.787 67.3078 42.385 68.3474 41.581 69.0544C40.777 69.7475 39.6057 70.094 38.067 70.094ZM50.2267 70.094C48.5355 70.094 47.281 69.6851 46.4631 68.8673C45.6453 68.0355 45.2364 66.8088 45.2364 65.1869C45.2364 64.9097 45.2433 64.577 45.2572 64.1888C45.2849 63.7868 45.3195 63.4334 45.3611 63.1284H50.3514V65.1037H48.2929V65.3948C48.2929 66.2265 48.4454 66.8365 48.7504 67.2246C49.0692 67.5989 49.5544 67.786 50.2059 67.786C50.899 67.786 51.4396 67.5434 51.8277 67.0583C52.2159 66.5592 52.4099 65.6582 52.4099 64.3552C52.4099 63.1215 52.1951 62.1996 51.7653 61.5897C51.3356 60.9659 50.5455 60.654 49.3949 60.654C48.7712 60.654 48.1266 60.7511 47.4612 60.9451C46.7958 61.1392 46.2483 61.3541 45.8186 61.5897V58.9906C46.2621 58.7549 46.8721 58.5609 47.6483 58.4084C48.4385 58.2421 49.2147 58.1589 49.9772 58.1589C51.3218 58.1589 52.403 58.4084 53.2209 58.9074C54.0526 59.3926 54.6556 60.0857 55.0298 60.9867C55.418 61.8878 55.612 62.9551 55.612 64.1888C55.612 66.0741 55.1893 67.5296 54.3437 68.5554C53.4981 69.5811 52.1258 70.094 50.2267 70.094ZM62.8433 70.094C61.5957 70.094 60.5976 69.9485 59.8491 69.6574C59.1005 69.3524 58.553 68.9296 58.2064 68.389C57.8738 67.8484 57.7074 67.2246 57.7074 66.5177C57.7074 65.9077 57.7975 65.4156 57.9777 65.0414C58.1718 64.6671 58.4144 64.3829 58.7055 64.1888C59.0104 63.9809 59.3154 63.8423 59.6204 63.773V63.6482C59.1491 63.4957 58.7124 63.2324 58.3104 62.8581C57.9084 62.47 57.7074 61.9016 57.7074 61.1531C57.7074 60.6402 57.8252 60.1619 58.0609 59.7184C58.3104 59.2748 58.7055 58.9213 59.2461 58.6579C59.7867 58.3807 60.5006 58.2421 61.3878 58.2421C61.8175 58.2421 62.2334 58.2767 62.6353 58.346C63.0373 58.4015 63.3492 58.4846 63.571 58.5955L63.0928 60.6956C62.9819 60.6679 62.8294 60.6402 62.6353 60.6125C62.4551 60.5709 62.268 60.5501 62.0739 60.5501C61.6442 60.5501 61.3254 60.654 61.1175 60.862C60.9095 61.056 60.8056 61.3125 60.8056 61.6313C60.8056 62.1442 60.9996 62.4838 61.3878 62.6502C61.7759 62.8026 62.1987 62.8789 62.6561 62.8789H63.0928V64.8126H62.6561C62.0601 64.8126 61.6096 64.9166 61.3046 65.1245C61.0135 65.3325 60.8679 65.6721 60.8679 66.1434C60.8679 66.3929 60.9234 66.6424 61.0343 66.8919C61.159 67.1276 61.367 67.3286 61.6581 67.4949C61.9492 67.6474 62.365 67.7236 62.9057 67.7236C63.6819 67.7236 64.2087 67.5573 64.4859 67.2246C64.777 66.8919 64.9226 66.4899 64.9226 66.0186V58.4292H68.0415V65.9147C68.0415 67.3424 67.6187 68.3959 66.7731 69.0752C65.9414 69.7544 64.6315 70.094 62.8433 70.094ZM70.85 69.8237V66.3513C70.85 65.478 71.0233 64.8057 71.3699 64.3344C71.7164 63.8631 72.2085 63.5304 72.8462 63.3363L72.8669 63.2532L70.6421 62.4422V61.9016C70.6421 61.2224 70.8431 60.5986 71.2451 60.0302C71.6471 59.4619 72.2362 59.0114 73.0125 58.6787C73.8026 58.3322 74.7591 58.1589 75.8819 58.1589C77.4483 58.1589 78.6959 58.5262 79.6247 59.2609C80.5534 59.9817 81.0178 61.0768 81.0178 62.5462V69.8237H77.8988V62.7333C77.8988 62.0402 77.7117 61.5204 77.3374 61.1739C76.977 60.8273 76.4641 60.654 75.7987 60.654C75.1611 60.654 74.6829 60.7927 74.364 61.0699C74.0452 61.3333 73.8719 61.659 73.8442 62.0472L75.6948 62.8997L75.4661 64.2512C74.967 64.2789 74.5928 64.4591 74.3432 64.7918C74.0937 65.1245 73.969 65.575 73.969 66.1434V69.8237H70.85ZM87.1314 70.0317C86.2026 70.0317 85.4888 69.8168 84.9897 69.3871C84.4907 68.9435 84.2412 68.2712 84.2412 67.3702V58.4292H87.3601V66.9959C87.3601 67.5088 87.6027 67.7652 88.0879 67.7652C88.2958 67.7652 88.5315 67.7167 88.7948 67.6197L89.0859 69.6158C88.5592 69.893 87.9077 70.0317 87.1314 70.0317ZM94.0121 70.0317C92.8199 70.0317 91.8981 69.7475 91.2466 69.1791C90.609 68.6108 90.2901 67.8137 90.2901 66.788C90.2901 65.679 90.6852 64.7918 91.4753 64.1265C92.2793 63.4611 93.5408 63.0591 95.2597 62.9205L97.4221 62.7541V62.4214C97.4221 61.7561 97.2419 61.2778 96.8815 60.9867C96.5211 60.6956 95.9666 60.5501 95.2181 60.5501C94.4972 60.5501 93.7903 60.661 93.0972 60.8828C92.418 61.0907 91.8288 61.3402 91.3298 61.6313V59.053C91.7318 58.8589 92.3001 58.6648 93.0348 58.4708C93.7695 58.2628 94.622 58.1589 95.5923 58.1589C96.535 58.1589 97.3736 58.2975 98.1083 58.5747C98.843 58.8381 99.4182 59.2886 99.8341 59.9263C100.264 60.5639 100.479 61.4372 100.479 62.5462V69.8237H97.4221V64.9998L95.6131 65.1869C94.7814 65.2701 94.1992 65.4364 93.8665 65.6859C93.5477 65.9354 93.3883 66.2681 93.3883 66.684C93.3883 67.0999 93.52 67.4117 93.7834 67.6197C94.0606 67.8276 94.4141 67.9316 94.8438 67.9316C95.0101 67.9316 95.1765 67.9177 95.3428 67.89C95.5092 67.8484 95.6617 67.8068 95.8003 67.7652L96.0706 69.7198C95.8072 69.8168 95.4953 69.893 95.1349 69.9485C94.7745 70.0039 94.4002 70.0317 94.0121 70.0317ZM90.7404 56.8489V55.539L92.8405 54.6657H100.264V56.8489H90.7404ZM103.278 69.8237V66.3513C103.278 65.478 103.451 64.8057 103.798 64.3344C104.144 63.8631 104.637 63.5304 105.274 63.3363L105.295 63.2532L103.07 62.4422V61.9016C103.07 61.2224 103.271 60.5986 103.673 60.0302C104.075 59.4619 104.664 59.0114 105.441 58.6787C106.231 58.3322 107.187 58.1589 108.31 58.1589C109.876 58.1589 111.124 58.5262 112.053 59.2609C112.981 59.9817 113.446 61.0768 113.446 62.5462V69.8237H110.327V62.7333C110.327 62.0402 110.14 61.5204 109.766 61.1739C109.405 60.8273 108.892 60.654 108.227 60.654C107.589 60.654 107.111 60.7927 106.792 61.0699C106.473 61.3333 106.3 61.659 106.272 62.0472L108.123 62.8997L107.894 64.2512C107.395 64.2789 107.021 64.4591 106.771 64.7918C106.522 65.1245 106.397 65.575 106.397 66.1434V69.8237H103.278ZM116.357 69.8237V63.066C116.357 61.4719 116.78 60.259 117.626 59.4273C118.471 58.5817 119.809 58.1589 121.639 58.1589C123.482 58.1589 124.813 58.5817 125.631 59.4273C126.463 60.259 126.879 61.4719 126.879 63.066V69.8237H123.78V63.0244C123.78 62.2898 123.607 61.7145 123.261 61.2986C122.928 60.8689 122.373 60.654 121.597 60.654C120.835 60.654 120.28 60.8689 119.934 61.2986C119.601 61.7145 119.435 62.2898 119.435 63.0244V64.8334L119.497 64.8542C119.76 64.3136 120.072 63.9601 120.433 63.7938C120.807 63.6136 121.313 63.5235 121.951 63.5235H122.429V65.8523H121.951C121.258 65.8523 120.731 65.9701 120.37 66.2058C120.01 66.4414 119.76 66.7533 119.622 67.1414C119.497 67.5157 119.435 67.9385 119.435 68.4098V69.8237H116.357ZM123.545 56.8489V52.1289H126.414V56.8489H123.545ZM131.754 63.1076C130.798 63.1076 130.125 62.8997 129.737 62.4838C129.363 62.0541 129.176 61.562 129.176 61.0075C129.176 60.5223 129.314 60.0233 129.592 59.5104L131.858 59.8015C131.789 60.0095 131.754 60.2312 131.754 60.4669C131.754 60.6471 131.81 60.7927 131.921 60.9036C132.031 61.0006 132.226 61.0491 132.503 61.0491H134.852V63.1076H131.754ZM131.754 68.9296C130.798 68.9296 130.125 68.7217 129.737 68.3058C129.363 67.8761 129.176 67.384 129.176 66.8295C129.176 66.3444 129.314 65.8453 129.592 65.3325L131.858 65.6236C131.789 65.8315 131.754 66.0533 131.754 66.2889C131.754 66.4691 131.81 66.6147 131.921 66.7256C132.031 66.8226 132.226 66.8711 132.503 66.8711H134.852V68.9296H131.754Z" fill="#696969"/>
<path d="M159.433 131.087C157.88 131.087 156.709 130.74 155.919 130.047C155.128 129.354 154.733 128.342 154.733 127.011V126.18C154.733 125.611 154.81 125.147 154.962 124.786C155.115 124.412 155.302 124.073 155.524 123.768C155.745 123.463 155.926 123.192 156.064 122.957C156.217 122.707 156.293 122.451 156.293 122.187C156.293 121.938 156.23 121.765 156.106 121.668C155.995 121.557 155.842 121.501 155.648 121.501C155.399 121.501 155.094 121.584 154.733 121.751L154.234 119.796C154.622 119.588 155.038 119.45 155.482 119.38C155.939 119.297 156.341 119.256 156.688 119.256C157.603 119.256 158.247 119.477 158.622 119.921C159.01 120.351 159.204 120.933 159.204 121.668C159.204 122.097 159.141 122.478 159.017 122.811C158.892 123.13 158.733 123.463 158.538 123.809C158.358 124.128 158.192 124.426 158.039 124.703C157.901 124.981 157.832 125.383 157.832 125.909V126.741C157.832 127.42 157.97 127.912 158.247 128.217C158.538 128.508 158.94 128.654 159.453 128.654C160.521 128.654 161.054 128.051 161.054 126.845V119.422H164.153V126.928C164.153 128.3 163.751 129.34 162.947 130.047C162.143 130.74 160.971 131.087 159.433 131.087ZM171.592 131.087C169.901 131.087 168.647 130.678 167.829 129.86C167.011 129.028 166.602 127.801 166.602 126.18C166.602 125.902 166.609 125.57 166.623 125.182C166.65 124.78 166.685 124.426 166.727 124.121H171.717V126.096H169.659V126.388C169.659 127.219 169.811 127.829 170.116 128.217C170.435 128.592 170.92 128.779 171.571 128.779C172.265 128.779 172.805 128.536 173.193 128.051C173.581 127.552 173.776 126.651 173.776 125.348C173.776 124.114 173.561 123.192 173.131 122.582C172.701 121.959 171.911 121.647 170.761 121.647C170.137 121.647 169.492 121.744 168.827 121.938C168.161 122.132 167.614 122.347 167.184 122.582V119.983C167.628 119.748 168.238 119.554 169.014 119.401C169.804 119.235 170.58 119.152 171.343 119.152C172.687 119.152 173.769 119.401 174.586 119.9C175.418 120.385 176.021 121.078 176.395 121.979C176.784 122.88 176.978 123.948 176.978 125.182C176.978 127.067 176.555 128.522 175.709 129.548C174.864 130.574 173.491 131.087 171.592 131.087ZM184.209 131.087C182.961 131.087 181.963 130.941 181.215 130.65C180.466 130.345 179.919 129.922 179.572 129.382C179.239 128.841 179.073 128.217 179.073 127.51C179.073 126.9 179.163 126.408 179.343 126.034C179.537 125.66 179.78 125.376 180.071 125.182C180.376 124.974 180.681 124.835 180.986 124.766V124.641C180.515 124.488 180.078 124.225 179.676 123.851C179.274 123.463 179.073 122.894 179.073 122.146C179.073 121.633 179.191 121.155 179.426 120.711C179.676 120.267 180.071 119.914 180.612 119.651C181.152 119.373 181.866 119.235 182.753 119.235C183.183 119.235 183.599 119.269 184.001 119.339C184.403 119.394 184.715 119.477 184.937 119.588L184.458 121.688C184.347 121.661 184.195 121.633 184.001 121.605C183.821 121.564 183.634 121.543 183.44 121.543C183.01 121.543 182.691 121.647 182.483 121.855C182.275 122.049 182.171 122.305 182.171 122.624C182.171 123.137 182.365 123.476 182.753 123.643C183.141 123.795 183.564 123.872 184.022 123.872H184.458V125.805H184.022C183.426 125.805 182.975 125.909 182.67 126.117C182.379 126.325 182.234 126.665 182.234 127.136C182.234 127.386 182.289 127.635 182.4 127.885C182.525 128.12 182.733 128.321 183.024 128.488C183.315 128.64 183.731 128.716 184.271 128.716C185.048 128.716 185.574 128.55 185.851 128.217C186.143 127.885 186.288 127.483 186.288 127.011V119.422H189.407V126.907C189.407 128.335 188.984 129.389 188.139 130.068C187.307 130.747 185.997 131.087 184.209 131.087ZM192.216 130.816V127.344C192.216 126.471 192.389 125.798 192.735 125.327C193.082 124.856 193.574 124.523 194.212 124.329L194.233 124.246L192.008 123.435V122.894C192.008 122.215 192.209 121.591 192.611 121.023C193.013 120.455 193.602 120.004 194.378 119.671C195.168 119.325 196.125 119.152 197.247 119.152C198.814 119.152 200.061 119.519 200.99 120.254C201.919 120.974 202.383 122.07 202.383 123.539V130.816H199.264V123.726C199.264 123.033 199.077 122.513 198.703 122.167C198.343 121.82 197.83 121.647 197.164 121.647C196.527 121.647 196.048 121.785 195.73 122.063C195.411 122.326 195.238 122.652 195.21 123.04L197.06 123.892L196.832 125.244C196.333 125.272 195.958 125.452 195.709 125.785C195.459 126.117 195.335 126.568 195.335 127.136V130.816H192.216ZM208.497 131.024C207.568 131.024 206.854 130.809 206.355 130.38C205.856 129.936 205.607 129.264 205.607 128.363V119.422H208.726V127.989C208.726 128.501 208.968 128.758 209.453 128.758C209.661 128.758 209.897 128.709 210.16 128.612L210.452 130.608C209.925 130.886 209.273 131.024 208.497 131.024ZM215.378 131.024C214.186 131.024 213.264 130.74 212.612 130.172C211.975 129.603 211.656 128.806 211.656 127.781C211.656 126.672 212.051 125.785 212.841 125.119C213.645 124.454 214.906 124.052 216.625 123.913L218.788 123.747V123.414C218.788 122.749 218.607 122.271 218.247 121.979C217.887 121.688 217.332 121.543 216.584 121.543C215.863 121.543 215.156 121.654 214.463 121.875C213.784 122.083 213.194 122.333 212.695 122.624V120.046C213.097 119.852 213.666 119.658 214.4 119.463C215.135 119.256 215.988 119.152 216.958 119.152C217.901 119.152 218.739 119.29 219.474 119.567C220.209 119.831 220.784 120.281 221.2 120.919C221.629 121.557 221.844 122.43 221.844 123.539V130.816H218.788V125.992L216.979 126.18C216.147 126.263 215.565 126.429 215.232 126.679C214.913 126.928 214.754 127.261 214.754 127.677C214.754 128.093 214.886 128.404 215.149 128.612C215.426 128.82 215.78 128.924 216.209 128.924C216.376 128.924 216.542 128.91 216.708 128.883C216.875 128.841 217.027 128.799 217.166 128.758L217.436 130.712C217.173 130.809 216.861 130.886 216.5 130.941C216.14 130.997 215.766 131.024 215.378 131.024ZM212.106 117.842V116.532L214.206 115.658H221.629V117.842H212.106ZM224.644 130.816V127.344C224.644 126.471 224.817 125.798 225.163 125.327C225.51 124.856 226.002 124.523 226.64 124.329L226.661 124.246L224.436 123.435V122.894C224.436 122.215 224.637 121.591 225.039 121.023C225.441 120.455 226.03 120.004 226.806 119.671C227.596 119.325 228.553 119.152 229.676 119.152C231.242 119.152 232.49 119.519 233.418 120.254C234.347 120.974 234.811 122.07 234.811 123.539V130.816H231.692V123.726C231.692 123.033 231.505 122.513 231.131 122.167C230.771 121.82 230.258 121.647 229.592 121.647C228.955 121.647 228.477 121.785 228.158 122.063C227.839 122.326 227.666 122.652 227.638 123.04L229.488 123.892L229.26 125.244C228.761 125.272 228.386 125.452 228.137 125.785C227.887 126.117 227.763 126.568 227.763 127.136V130.816H224.644ZM237.723 130.816V124.059C237.723 122.465 238.146 121.252 238.991 120.42C239.837 119.574 241.175 119.152 243.004 119.152C244.848 119.152 246.179 119.574 246.997 120.42C247.828 121.252 248.244 122.465 248.244 124.059V130.816H245.146V124.017C245.146 123.282 244.973 122.707 244.626 122.291C244.294 121.862 243.739 121.647 242.963 121.647C242.2 121.647 241.646 121.862 241.299 122.291C240.967 122.707 240.8 123.282 240.8 124.017V125.826L240.863 125.847C241.126 125.306 241.438 124.953 241.798 124.786C242.173 124.606 242.679 124.516 243.316 124.516H243.794V126.845H243.316C242.623 126.845 242.096 126.963 241.736 127.198C241.376 127.434 241.126 127.746 240.987 128.134C240.863 128.508 240.8 128.931 240.8 129.402V130.816H237.723ZM255.074 131.087C254.256 131.087 253.432 130.997 252.6 130.816C251.782 130.636 251.054 130.38 250.417 130.047L251.29 127.573C251.706 127.794 252.24 128.03 252.891 128.28C253.543 128.515 254.229 128.633 254.95 128.633C256.072 128.633 256.634 128.307 256.634 127.656C256.634 127.295 256.419 127.018 255.989 126.824C255.573 126.616 254.991 126.381 254.243 126.117C253.508 125.854 252.877 125.57 252.35 125.265C251.824 124.96 251.415 124.585 251.124 124.142C250.846 123.698 250.708 123.144 250.708 122.478C250.708 121.342 251.131 120.503 251.976 119.962C252.836 119.422 253.979 119.152 255.407 119.152C256.183 119.152 256.883 119.214 257.507 119.339C258.131 119.463 258.616 119.623 258.963 119.817V122.271C258.602 122.104 258.096 121.945 257.445 121.792C256.793 121.626 256.162 121.543 255.553 121.543C254.402 121.543 253.827 121.834 253.827 122.416C253.827 122.749 254.049 123.012 254.492 123.206C254.95 123.386 255.587 123.615 256.405 123.892C257.486 124.267 258.311 124.717 258.879 125.244C259.462 125.757 259.753 126.505 259.753 127.49C259.753 128.113 259.607 128.702 259.316 129.257C259.039 129.798 258.561 130.241 257.881 130.588C257.202 130.92 256.266 131.087 255.074 131.087ZM256.037 117.842C255.385 117.842 254.873 117.745 254.498 117.551C254.124 117.356 253.861 117.114 253.708 116.823C253.542 116.518 253.459 116.199 253.459 115.866C253.459 115.34 253.597 114.834 253.874 114.348L256.141 114.639C256.072 114.847 256.037 115.041 256.037 115.222C256.037 115.416 256.099 115.568 256.224 115.679C256.335 115.776 256.529 115.825 256.806 115.825H261.277V117.842H256.037ZM267.063 131.087C265.261 131.087 263.951 130.671 263.133 129.839C262.329 128.994 261.927 127.774 261.927 126.18V119.422H265.046V126.346C265.046 127.081 265.206 127.642 265.524 128.03C265.857 128.404 266.37 128.592 267.063 128.592C267.756 128.592 268.262 128.404 268.581 128.03C268.914 127.642 269.08 127.081 269.08 126.346V119.422H272.199V126.18C272.199 127.774 271.79 128.994 270.972 129.839C270.168 130.671 268.865 131.087 267.063 131.087Z" fill="#696969"/>
<path d="M38.067 192.773C36.5145 192.773 35.3431 192.426 34.553 191.733C33.7629 191.04 33.3678 190.028 33.3678 188.697V187.865C33.3678 187.297 33.444 186.833 33.5965 186.472C33.749 186.098 33.9361 185.758 34.1579 185.453C34.3797 185.148 34.5599 184.878 34.6986 184.642C34.851 184.393 34.9273 184.136 34.9273 183.873C34.9273 183.624 34.8649 183.45 34.7401 183.353C34.6292 183.242 34.4768 183.187 34.2827 183.187C34.0332 183.187 33.7282 183.27 33.3678 183.436L32.8688 181.482C33.2569 181.274 33.6728 181.135 34.1164 181.066C34.5738 180.983 34.9758 180.941 35.3223 180.941C36.2372 180.941 36.8818 181.163 37.2561 181.607C37.6442 182.036 37.8383 182.619 37.8383 183.353C37.8383 183.783 37.7759 184.164 37.6512 184.497C37.5264 184.816 37.367 185.148 37.1729 185.495C36.9927 185.814 36.8264 186.112 36.6739 186.389C36.5353 186.666 36.466 187.068 36.466 187.595V188.427C36.466 189.106 36.6046 189.598 36.8818 189.903C37.1729 190.194 37.5749 190.34 38.0878 190.34C39.1552 190.34 39.6889 189.737 39.6889 188.531V181.108H42.787V188.614C42.787 189.986 42.385 191.026 41.581 191.733C40.777 192.426 39.6057 192.773 38.067 192.773ZM50.2267 192.773C48.5355 192.773 47.281 192.364 46.4631 191.546C45.6453 190.714 45.2364 189.487 45.2364 187.865C45.2364 187.588 45.2433 187.255 45.2572 186.867C45.2849 186.465 45.3195 186.112 45.3611 185.807H50.3514V187.782H48.2929V188.073C48.2929 188.905 48.4454 189.515 48.7504 189.903C49.0692 190.277 49.5544 190.464 50.2059 190.464C50.899 190.464 51.4396 190.222 51.8277 189.737C52.2159 189.238 52.4099 188.337 52.4099 187.034C52.4099 185.8 52.1951 184.878 51.7653 184.268C51.3356 183.644 50.5455 183.333 49.3949 183.333C48.7712 183.333 48.1266 183.43 47.4612 183.624C46.7958 183.818 46.2483 184.033 45.8186 184.268V181.669C46.2621 181.433 46.8721 181.239 47.6483 181.087C48.4385 180.921 49.2147 180.837 49.9772 180.837C51.3218 180.837 52.403 181.087 53.2209 181.586C54.0526 182.071 54.6556 182.764 55.0298 183.665C55.418 184.566 55.612 185.634 55.612 186.867C55.612 188.753 55.1893 190.208 54.3437 191.234C53.4981 192.26 52.1258 192.773 50.2267 192.773ZM62.8433 192.773C61.5957 192.773 60.5976 192.627 59.8491 192.336C59.1005 192.031 58.553 191.608 58.2064 191.067C57.8738 190.527 57.7074 189.903 57.7074 189.196C57.7074 188.586 57.7975 188.094 57.9777 187.72C58.1718 187.346 58.4144 187.061 58.7055 186.867C59.0104 186.659 59.3154 186.521 59.6204 186.451V186.327C59.1491 186.174 58.7124 185.911 58.3104 185.537C57.9084 185.148 57.7074 184.58 57.7074 183.832C57.7074 183.319 57.8252 182.84 58.0609 182.397C58.3104 181.953 58.7055 181.6 59.2461 181.336C59.7867 181.059 60.5006 180.921 61.3878 180.921C61.8175 180.921 62.2334 180.955 62.6353 181.024C63.0373 181.08 63.3492 181.163 63.571 181.274L63.0928 183.374C62.9819 183.346 62.8294 183.319 62.6353 183.291C62.4551 183.249 62.268 183.229 62.0739 183.229C61.6442 183.229 61.3254 183.333 61.1175 183.54C60.9095 183.735 60.8056 183.991 60.8056 184.31C60.8056 184.823 60.9996 185.162 61.3878 185.329C61.7759 185.481 62.1987 185.557 62.6561 185.557H63.0928V187.491H62.6561C62.0601 187.491 61.6096 187.595 61.3046 187.803C61.0135 188.011 60.8679 188.351 60.8679 188.822C60.8679 189.071 60.9234 189.321 61.0343 189.57C61.159 189.806 61.367 190.007 61.6581 190.173C61.9492 190.326 62.365 190.402 62.9057 190.402C63.6819 190.402 64.2087 190.236 64.4859 189.903C64.777 189.57 64.9226 189.168 64.9226 188.697V181.108H68.0415V188.593C68.0415 190.021 67.6187 191.074 66.7731 191.754C65.9414 192.433 64.6315 192.773 62.8433 192.773ZM70.85 192.502V189.03C70.85 188.156 71.0233 187.484 71.3699 187.013C71.7164 186.542 72.2085 186.209 72.8462 186.015L72.8669 185.932L70.6421 185.121V184.58C70.6421 183.901 70.8431 183.277 71.2451 182.709C71.6471 182.14 72.2362 181.69 73.0125 181.357C73.8026 181.011 74.7591 180.837 75.8819 180.837C77.4483 180.837 78.6959 181.205 79.6247 181.939C80.5534 182.66 81.0178 183.755 81.0178 185.225V192.502H77.8988V185.412C77.8988 184.719 77.7117 184.199 77.3374 183.852C76.977 183.506 76.4641 183.333 75.7987 183.333C75.1611 183.333 74.6829 183.471 74.364 183.748C74.0452 184.012 73.8719 184.337 73.8442 184.726L75.6948 185.578L75.4661 186.93C74.967 186.957 74.5928 187.138 74.3432 187.47C74.0937 187.803 73.969 188.254 73.969 188.822V192.502H70.85ZM87.1314 192.71C86.2026 192.71 85.4888 192.495 84.9897 192.066C84.4907 191.622 84.2412 190.95 84.2412 190.049V181.108H87.3601V189.674C87.3601 190.187 87.6027 190.444 88.0879 190.444C88.2958 190.444 88.5315 190.395 88.7948 190.298L89.0859 192.294C88.5592 192.572 87.9077 192.71 87.1314 192.71ZM94.0121 192.71C92.8199 192.71 91.8981 192.426 91.2466 191.858C90.609 191.289 90.2901 190.492 90.2901 189.466C90.2901 188.357 90.6852 187.47 91.4753 186.805C92.2793 186.14 93.5408 185.738 95.2597 185.599L97.4221 185.433V185.1C97.4221 184.435 97.2419 183.956 96.8815 183.665C96.5211 183.374 95.9666 183.229 95.2181 183.229C94.4972 183.229 93.7903 183.339 93.0972 183.561C92.418 183.769 91.8288 184.019 91.3298 184.31V181.731C91.7318 181.537 92.3001 181.343 93.0348 181.149C93.7695 180.941 94.622 180.837 95.5923 180.837C96.535 180.837 97.3736 180.976 98.1083 181.253C98.843 181.517 99.4182 181.967 99.8341 182.605C100.264 183.242 100.479 184.116 100.479 185.225V192.502H97.4221V187.678L95.6131 187.865C94.7814 187.949 94.1992 188.115 93.8665 188.364C93.5477 188.614 93.3883 188.947 93.3883 189.362C93.3883 189.778 93.52 190.09 93.7834 190.298C94.0606 190.506 94.4141 190.61 94.8438 190.61C95.0101 190.61 95.1765 190.596 95.3428 190.568C95.5092 190.527 95.6617 190.485 95.8003 190.444L96.0706 192.398C95.8072 192.495 95.4953 192.572 95.1349 192.627C94.7745 192.682 94.4002 192.71 94.0121 192.71ZM90.7404 179.527V178.217L92.8405 177.344H100.264V179.527H90.7404ZM103.278 192.502V189.03C103.278 188.156 103.451 187.484 103.798 187.013C104.144 186.542 104.637 186.209 105.274 186.015L105.295 185.932L103.07 185.121V184.58C103.07 183.901 103.271 183.277 103.673 182.709C104.075 182.14 104.664 181.69 105.441 181.357C106.231 181.011 107.187 180.837 108.31 180.837C109.876 180.837 111.124 181.205 112.053 181.939C112.981 182.66 113.446 183.755 113.446 185.225V192.502H110.327V185.412C110.327 184.719 110.14 184.199 109.766 183.852C109.405 183.506 108.892 183.333 108.227 183.333C107.589 183.333 107.111 183.471 106.792 183.748C106.473 184.012 106.3 184.337 106.272 184.726L108.123 185.578L107.894 186.93C107.395 186.957 107.021 187.138 106.771 187.47C106.522 187.803 106.397 188.254 106.397 188.822V192.502H103.278ZM116.357 192.502V185.744C116.357 184.15 116.78 182.937 117.626 182.106C118.471 181.26 119.809 180.837 121.639 180.837C123.482 180.837 124.813 181.26 125.631 182.106C126.463 182.937 126.879 184.15 126.879 185.744V192.502H123.78V185.703C123.78 184.968 123.607 184.393 123.261 183.977C122.928 183.547 122.373 183.333 121.597 183.333C120.835 183.333 120.28 183.547 119.934 183.977C119.601 184.393 119.435 184.968 119.435 185.703V187.512L119.497 187.533C119.76 186.992 120.072 186.639 120.433 186.472C120.807 186.292 121.313 186.202 121.951 186.202H122.429V188.531H121.951C121.258 188.531 120.731 188.649 120.37 188.884C120.01 189.12 119.76 189.432 119.622 189.82C119.497 190.194 119.435 190.617 119.435 191.088V192.502H116.357ZM123.545 179.527V174.807H126.414V179.527H123.545ZM131.754 185.786C130.798 185.786 130.125 185.578 129.737 185.162C129.363 184.733 129.176 184.24 129.176 183.686C129.176 183.201 129.314 182.702 129.592 182.189L131.858 182.48C131.789 182.688 131.754 182.91 131.754 183.145C131.754 183.326 131.81 183.471 131.921 183.582C132.031 183.679 132.226 183.728 132.503 183.728H134.852V185.786H131.754ZM131.754 191.608C130.798 191.608 130.125 191.4 129.737 190.984C129.363 190.555 129.176 190.062 129.176 189.508C129.176 189.023 129.314 188.524 129.592 188.011L131.858 188.302C131.789 188.51 131.754 188.732 131.754 188.967C131.754 189.148 131.81 189.293 131.921 189.404C132.031 189.501 132.226 189.55 132.503 189.55H134.852V191.608H131.754Z" fill="#696969"/>
<path d="M17.6064 1.62693C15.2945 1.62693 13.0327 3.56996 13.1894 6.11488L14.7107 47.19C14.7184 47.9474 15.0226 48.6721 15.5588 49.2083C16.1018 49.7513 16.8384 50.0564 17.6064 50.0564C18.3745 50.0564 19.111 49.7513 19.6541 49.2083C20.1903 48.6721 20.4944 47.9474 20.5021 47.19L22.0234 6.11489C22.1802 3.56996 19.9184 1.62693 17.6064 1.62693Z" fill="#FC6B6B" stroke="#FC6B6B" stroke-width="2.74614" stroke-linecap="round" stroke-linejoin="round"/>
<path d="M17.6071 71.3753C20.0474 71.3753 22.0257 69.397 22.0257 66.9567C22.0257 64.5163 20.0474 62.5381 17.6071 62.5381C15.1667 62.5381 13.1885 64.5163 13.1885 66.9567C13.1885 69.397 15.1667 71.3753 17.6071 71.3753Z" fill="#FC6B6B" stroke="#FC6B6B" stroke-width="2.74614" stroke-linecap="round" stroke-linejoin="round"/>
<path d="M143.057 62.6196C140.745 62.6196 138.483 64.5626 138.64 67.1076L140.161 108.183C140.169 108.94 140.473 109.665 141.009 110.201C141.553 110.744 142.289 111.049 143.057 111.049C143.825 111.049 144.562 110.744 145.105 110.201C145.641 109.665 145.945 108.94 145.953 108.183L147.474 67.1076C147.631 64.5626 145.369 62.6196 143.057 62.6196Z" fill="#FC6B6B" stroke="#FC6B6B" stroke-width="2.74614" stroke-linecap="round" stroke-linejoin="round"/>
<path d="M143.058 132.368C145.498 132.368 147.476 130.39 147.476 127.949C147.476 125.509 145.498 123.531 143.058 123.531C140.617 123.531 138.639 125.509 138.639 127.949C138.639 130.39 140.617 132.368 143.058 132.368Z" fill="#FC6B6B" stroke="#FC6B6B" stroke-width="2.74614" stroke-linecap="round" stroke-linejoin="round"/>
<path d="M17.6064 118.761C15.2945 118.761 13.0327 120.704 13.1894 123.249L14.7107 164.324C14.7184 165.081 15.0226 165.806 15.5588 166.342C16.1018 166.885 16.8384 167.19 17.6064 167.19C18.3745 167.19 19.111 166.885 19.6541 166.342C20.1903 165.806 20.4944 165.081 20.5021 164.324L22.0234 123.249C22.1802 120.704 19.9184 118.761 17.6064 118.761Z" fill="#FC6B6B" stroke="#FC6B6B" stroke-width="2.74614" stroke-linecap="round" stroke-linejoin="round"/>
<path d="M17.6071 188.509C20.0474 188.509 22.0257 186.531 22.0257 184.09C22.0257 181.65 20.0474 179.672 17.6071 179.672C15.1667 179.672 13.1885 181.65 13.1885 184.09C13.1885 186.531 15.1667 188.509 17.6071 188.509Z" fill="#FC6B6B" stroke="#FC6B6B" stroke-width="2.74614" stroke-linecap="round" stroke-linejoin="round"/>
</svg>
