<svg width="75" height="75" viewBox="0 0 75 75" fill="none" xmlns="http://www.w3.org/2000/svg">
<path d="M37.5 0C16.8225 0 0 16.8225 0 37.5C0 58.1775 16.8225 75 37.5 75C58.1775 75 75 58.1775 75 37.5C75 16.8225 58.1775 0 37.5 0ZM37.5 67.5C20.9588 67.5 7.5 54.0412 7.5 37.5C7.5 20.9588 20.9588 7.5 37.5 7.5C54.0412 7.5 67.5 20.9588 67.5 37.5C67.5 54.0412 54.0412 67.5 37.5 67.5Z" fill="white"/>
<path d="M29.9963 43.4511L21.3751 34.8449L16.0801 40.1549L30.0038 54.0486L55.1513 28.9011L49.8488 23.5986L29.9963 43.4511Z" fill="white"/>
</svg>
