<svg width="109" height="109" viewBox="0 0 109 109" fill="none" xmlns="http://www.w3.org/2000/svg">
<path d="M27.2497 31.7917H49.958C51.1625 31.7917 52.3177 32.2702 53.1695 33.122C54.0212 33.9737 54.4997 35.1289 54.4997 36.3334C54.4997 37.5379 54.0212 38.6931 53.1695 39.5449C52.3177 40.3966 51.1625 40.8751 49.958 40.8751H27.2497C26.0451 40.8751 24.89 40.3966 24.0382 39.5449C23.1865 38.6931 22.708 37.5379 22.708 36.3334C22.708 35.1289 23.1865 33.9737 24.0382 33.122C24.89 32.2702 26.0451 31.7917 27.2497 31.7917ZM59.0413 68.1251H81.7497C82.9542 68.1251 84.1094 68.6036 84.9611 69.4553C85.8129 70.307 86.2913 71.4622 86.2913 72.6667C86.2913 73.8713 85.8129 75.0265 84.9611 75.8782C84.1094 76.7299 82.9542 77.2084 81.7497 77.2084H59.0413C57.8368 77.2084 56.6816 76.7299 55.8299 75.8782C54.9782 75.0265 54.4997 73.8713 54.4997 72.6667C54.4997 71.4622 54.9782 70.307 55.8299 69.4553C56.6816 68.6036 57.8368 68.1251 59.0413 68.1251ZM27.2497 49.9584H81.7497C82.9542 49.9584 84.1094 50.4369 84.9611 51.2886C85.8129 52.1404 86.2913 53.2956 86.2913 54.5001C86.2913 55.7046 85.8129 56.8598 84.9611 57.7115C84.1094 58.5633 82.9542 59.0417 81.7497 59.0417H27.2497C26.0451 59.0417 24.89 58.5633 24.0382 57.7115C23.1865 56.8598 22.708 55.7046 22.708 54.5001C22.708 53.2956 23.1865 52.1404 24.0382 51.2886C24.89 50.4369 26.0451 49.9584 27.2497 49.9584Z" fill="#7C7C7C"/>
</svg>
