<svg width="120" height="120" viewBox="0 0 120 120" fill="none" xmlns="http://www.w3.org/2000/svg">
<path d="M59.9839 39.9915C48.9666 39.9915 39.9757 48.9826 39.9757 60C39.9757 71.0174 48.9666 80.0085 59.9839 80.0085C71.0011 80.0085 79.992 71.0174 79.992 60C79.992 48.9826 71.0011 39.9915 59.9839 39.9915ZM119.993 60C119.993 51.7144 120.068 43.5039 119.603 35.2333C119.138 25.6268 116.946 17.101 109.922 10.0763C102.882 3.03651 94.3715 0.860043 84.7652 0.394728C76.4797 -0.0705863 68.2693 0.00446468 59.9989 0.00446468C51.7134 0.00446468 43.503 -0.0705863 35.2326 0.394728C25.6263 0.860043 17.1007 3.05152 10.0761 10.0763C3.03646 17.116 0.860026 25.6268 0.394721 35.2333C-0.0705849 43.5189 0.0044646 51.7294 0.0044646 60C0.0044646 68.2706 -0.0705849 76.4961 0.394721 84.7667C0.860026 94.3732 3.05147 102.899 10.0761 109.924C17.1157 116.963 25.6263 119.14 35.2326 119.605C43.5181 120.071 51.7284 119.996 59.9989 119.996C68.2843 119.996 76.4947 120.071 84.7652 119.605C94.3715 119.14 102.897 116.948 109.922 109.924C116.961 102.884 119.138 94.3732 119.603 84.7667C120.083 76.4961 119.993 68.2856 119.993 60V60ZM59.9839 90.7858C42.9477 90.7858 29.1986 77.0365 29.1986 60C29.1986 42.9635 42.9477 29.2142 59.9839 29.2142C77.0201 29.2142 90.7691 42.9635 90.7691 60C90.7691 77.0365 77.0201 90.7858 59.9839 90.7858ZM92.0299 35.1432C88.0523 35.1432 84.8402 31.931 84.8402 27.9533C84.8402 23.9757 88.0523 20.7635 92.0299 20.7635C96.0075 20.7635 99.2197 23.9757 99.2197 27.9533C99.2208 28.8979 99.0357 29.8333 98.6748 30.7062C98.3139 31.579 97.7843 32.3721 97.1165 33.04C96.4486 33.7079 95.6556 34.2374 94.7827 34.5983C93.9099 34.9592 92.9744 35.1444 92.0299 35.1432V35.1432Z" fill="white"/>
</svg>
