<svg width="804" height="877" viewBox="0 0 804 877" fill="none" xmlns="http://www.w3.org/2000/svg">
<circle cx="289.808" cy="166.428" r="38.8058" transform="rotate(63.6848 289.808 166.428)" fill="white" fill-opacity="0.05"/>
<circle cx="495.729" cy="64.5869" r="23.2835" transform="rotate(63.6848 495.729 64.5869)" fill="white" fill-opacity="0.05"/>
<circle cx="79.0214" cy="268.943" r="58.9849" transform="rotate(63.6848 79.0214 268.943)" fill="white" fill-opacity="0.05"/>
<circle cx="371.007" cy="330.609" r="38.8058" transform="rotate(63.6848 371.007 330.609)" fill="white" fill-opacity="0.05"/>
<circle cx="576.93" cy="228.769" r="23.2835" transform="rotate(63.6848 576.93 228.769)" fill="white" fill-opacity="0.05"/>
<circle cx="160.605" cy="433.904" r="58.9849" transform="rotate(63.6848 160.605 433.904)" fill="white" fill-opacity="0.05"/>
<circle cx="461.839" cy="514.271" r="38.8058" transform="rotate(63.6848 461.839 514.271)" fill="white" fill-opacity="0.05"/>
<circle cx="667.763" cy="412.43" r="23.2835" transform="rotate(63.6848 667.763 412.43)" fill="white" fill-opacity="0.05"/>
<circle cx="250.556" cy="615.784" r="58.9849" transform="rotate(63.6848 250.556 615.784)" fill="white" fill-opacity="0.05"/>
<circle cx="551.293" cy="695.15" r="38.8058" transform="rotate(63.6848 551.293 695.15)" fill="white" fill-opacity="0.05"/>
<circle cx="757.217" cy="593.308" r="23.2835" transform="rotate(63.6848 757.217 593.308)" fill="white" fill-opacity="0.05"/>
<circle cx="340.508" cy="797.664" r="58.9849" transform="rotate(63.6848 340.508 797.664)" fill="white" fill-opacity="0.05"/>
</svg>
