<svg width="240" height="237" viewBox="0 0 240 237" fill="none" xmlns="http://www.w3.org/2000/svg">
<g filter="url(#filter0_d)">
<path fill-rule="evenodd" clip-rule="evenodd" d="M4 26.9308L56.6375 0L109.275 26.9308L56.6375 52.6388L4 26.9308Z" fill="#FBF063"/>
<path fill-rule="evenodd" clip-rule="evenodd" d="M56.6412 52.6339L4 26.9308V93.3765L56.6449 119.957L56.6412 52.6339Z" fill="#F29C1F"/>
<path fill-rule="evenodd" clip-rule="evenodd" d="M56.6377 119.957L109.283 93.3765V26.9308L56.6414 52.6339L56.6377 119.957Z" fill="#F0C419"/>
<path opacity="0.5" fill-rule="evenodd" clip-rule="evenodd" d="M28.5259 14.3284L81.1573 40.6447L83.9275 39.2921L31.2324 12.9439L28.5259 14.3284Z" fill="#F29C1F"/>
<path opacity="0.5" fill-rule="evenodd" clip-rule="evenodd" d="M21.5273 17.9629L72.9187 44.6868L92.4925 35.1276L39.2405 8.90063L21.5273 17.9629Z" fill="white"/>
<path opacity="0.5" fill-rule="evenodd" clip-rule="evenodd" d="M72.9341 44.6868L92.4932 35.1166V48.582L72.9341 59.3751V44.6868Z" fill="white"/>
<path d="M116.64 80.4308L112.88 78.5945L113.073 78.2003L111.981 77.6673L113.08 77.1051L112.88 76.7146L116.64 74.7909L116.84 75.1815L120.6 73.2578L120.4 72.8673L124.16 70.9437L124.36 71.3342L128.12 69.4106L127.92 69.02L131.68 67.0964L131.879 67.4869L135.639 65.5633L135.439 65.1728L139.199 63.2491L139.399 63.6397L143.159 61.716L142.959 61.3255L146.719 59.4019L146.919 59.7924L150.678 57.8688L150.479 57.4783L154.238 55.5546L154.438 55.9452L158.198 54.0215L157.998 53.631L161.758 51.7074L161.958 52.0979L163.638 51.2383L165.318 52.0979L165.518 51.7074L169.278 53.631L169.078 54.0215L172.838 55.9452L173.038 55.5546L176.797 57.4783L176.598 57.8688L180.357 59.7924L180.557 59.4019L184.317 61.3255L184.117 61.716L187.877 63.6397L188.077 63.2491L191.837 65.1728L191.637 65.5633L195.397 67.4869L195.597 67.0964L199.356 69.02L199.157 69.4106L202.916 71.3342L203.116 70.9437L206.876 72.8673L206.676 73.2578L210.436 75.1815L210.636 74.7909L214.396 76.7146L214.196 77.1051L215.295 77.6673L214.203 78.2003L214.396 78.5945L210.636 80.4308L210.443 80.0366L206.683 81.8729L206.876 82.2671L203.116 84.1034L202.924 83.7092L199.164 85.5455L199.356 85.9396L195.597 87.7759L195.404 87.3817L191.644 89.218L191.837 89.6122L188.077 91.4485L187.884 91.0543L184.125 92.8906L184.317 93.2848L180.557 95.121L180.365 94.7269L176.605 96.5631L176.797 96.9573L173.038 98.7936L172.845 98.3994L169.085 100.236L169.278 100.63L165.518 102.466L165.325 102.072L163.638 102.896L161.951 102.072L161.758 102.466L157.998 100.63L158.191 100.236L154.431 98.3994L154.238 98.7936L150.479 96.9573L150.671 96.5631L146.911 94.7269L146.719 95.121L142.959 93.2848L143.152 92.8906L139.392 91.0543L139.199 91.4485L135.439 89.6122L135.632 89.218L131.872 87.3817L131.68 87.7759L127.92 85.9396L128.112 85.5455L124.352 83.7092L124.16 84.1034L120.4 82.2671L120.593 81.8729L116.833 80.0366L116.64 80.4308Z" stroke="#C59E07" stroke-width="0.877354" stroke-dasharray="4.39 4.39"/>
<path d="M163.642 109.691L163.641 105.483L163.203 105.483L163.203 103.653L161.569 102.856L161.761 102.461L158.001 100.625L157.809 101.02L154.049 99.1837L154.241 98.7895L150.481 96.9536L150.288 97.3478L146.528 95.5119L146.721 95.1177L142.961 93.2817L142.768 93.6759L139.008 91.84L139.201 91.4458L135.441 89.6099L135.248 90.0041L131.488 88.1681L131.68 87.7739L127.92 85.938L127.728 86.3322L123.968 84.4963L124.16 84.1021L120.4 82.2662L120.208 82.6604L116.448 80.8244L116.64 80.4302L112.88 78.5943L112.688 78.9885L111.439 78.3787V79.7528H111V83.9056H111.439V88.0585H111V92.2113H111.439V96.3642H111V100.517H111.439V104.67H111V108.823H111.439V112.976H111V117.128H111.439V121.281H111V125.434H111.439V129.587H111V133.74H111.439V137.893H111V142.046H111.439V143.852L113.078 144.68L112.88 145.071L116.641 146.97L116.838 146.578L120.599 148.477L120.401 148.869L124.161 150.767L124.359 150.376L128.119 152.274L127.922 152.666L131.682 154.564L131.88 154.173L135.64 156.071L135.442 156.463L139.203 158.362L139.4 157.97L143.161 159.869L142.963 160.26L146.723 162.159L146.921 161.767L150.681 163.666L150.484 164.058L154.244 165.956L154.442 165.565L158.202 167.463L158.004 167.855L161.765 169.753L161.962 169.362L163.206 169.99L163.206 168.599L163.645 168.599L163.645 164.391L163.206 164.391L163.206 160.183L163.644 160.183L163.644 155.976L163.205 155.976L163.205 151.768L163.644 151.768L163.644 147.56L163.205 147.56L163.205 143.353L163.643 143.353L163.643 139.145L163.204 139.145L163.204 134.937L163.643 134.937L163.643 130.729L163.204 130.73L163.204 126.522L163.642 126.522L163.642 122.314L163.204 122.314L163.203 118.106L163.642 118.106L163.642 113.899L163.203 113.899L163.203 109.691L163.642 109.691Z" stroke="#C59E07" stroke-width="0.877354" stroke-dasharray="4.39 4.39"/>
<path fill-rule="evenodd" clip-rule="evenodd" d="M163.638 170.703L216.283 144.122V77.6763L163.641 103.379L163.638 170.703Z" stroke="#C59E07" stroke-width="0.877354" stroke-dasharray="5.26 5.26"/>
<path opacity="0.5" fill-rule="evenodd" clip-rule="evenodd" d="M179.934 95.4323L199.493 85.8621V99.3275L179.934 110.121V95.4323Z" fill="white"/>
<path fill-rule="evenodd" clip-rule="evenodd" d="M20.6699 135.723L73.3075 108.792L125.945 135.723L73.3075 161.431L20.6699 135.723Z" fill="#FBF063"/>
<path fill-rule="evenodd" clip-rule="evenodd" d="M73.3111 161.426L20.6699 135.723V202.168L73.3148 228.749L73.3111 161.426Z" fill="#F29C1F"/>
<path fill-rule="evenodd" clip-rule="evenodd" d="M73.3076 228.749L125.952 202.168V135.723L73.3113 161.426L73.3076 228.749Z" fill="#F0C419"/>
<path opacity="0.5" fill-rule="evenodd" clip-rule="evenodd" d="M45.1958 123.12L97.8272 149.437L100.597 148.084L47.9023 121.736L45.1958 123.12Z" fill="#F29C1F"/>
<path opacity="0.5" fill-rule="evenodd" clip-rule="evenodd" d="M38.1973 126.755L89.5886 153.479L109.162 143.92L55.9104 117.693L38.1973 126.755Z" fill="white"/>
<path opacity="0.5" fill-rule="evenodd" clip-rule="evenodd" d="M89.604 153.479L109.163 143.909V157.374L89.604 168.167V153.479Z" fill="white"/>
<path d="M186.726 30.503C186.059 32.1577 185.703 33.4622 185.658 34.4164C185.613 35.3715 186.048 36.0883 186.961 36.5628C187.133 36.6519 187.303 36.7037 187.47 36.7543C187.608 36.8623 187.748 36.9714 187.917 37.0596C188.832 37.5351 189.667 37.4787 190.425 36.8941C191.178 36.3079 192.043 35.2675 193.014 33.7714L200.148 22.0326C201.532 19.7417 202.493 18.0796 203.029 17.047C203.76 15.6417 203.96 14.3536 203.634 13.1851C203.303 12.0144 202.541 11.1176 201.337 10.4918C201.274 10.4595 201.22 10.4488 201.157 10.4192C201.096 10.3845 201.056 10.3457 200.991 10.3124C199.791 9.68824 198.615 9.57789 197.47 9.98176C196.324 10.3856 195.388 11.2905 194.658 12.6958C194.121 13.7278 193.313 15.4691 192.233 17.9191L186.726 30.503Z" fill="#FC6B6B"/>
<path d="M185.158 41.2668C183.995 40.6623 182.81 40.5143 181.606 40.8219C180.399 41.1323 179.526 41.8119 178.982 42.8603C178.365 44.046 178.296 45.1923 178.776 46.3018C179.257 47.4106 180.05 48.2543 181.158 48.8303C182.286 49.4165 183.444 49.5929 184.633 49.3619C185.822 49.13 186.727 48.4143 187.352 47.2103C187.898 46.1612 187.958 45.0594 187.539 43.9039C187.117 42.7529 186.324 41.8729 185.159 41.2671" fill="#FC6B6B"/>
<path d="M206.1 52.1511C204.937 51.5466 203.751 51.3983 202.547 51.7071C201.341 52.0163 200.468 52.6959 199.922 53.7462C199.306 54.9307 199.239 56.0776 199.717 57.1864C200.198 58.2955 200.992 59.1396 202.1 59.7156C203.228 60.3017 204.385 60.4776 205.574 60.2466C206.763 60.0146 207.668 59.2974 208.292 58.0958C208.838 57.0456 208.901 55.9446 208.479 54.7897C208.058 53.6363 207.267 52.7576 206.101 52.1518" fill="#FC6B6B"/>
<path d="M231.524 32.2624C231.298 30.0822 230.444 27.9883 228.983 26.0337C227.53 24.0946 225.519 22.4484 223.005 21.1414C220.297 19.7339 217.591 19.0465 214.967 19.1028C212.34 19.1591 210.014 19.7738 208.053 20.9295C206.08 22.0906 204.634 23.5366 203.754 25.2298C203.284 26.1343 203.222 27.1737 203.567 28.3157C203.913 29.4633 204.636 30.3294 205.715 30.8901C207.557 31.8475 209.371 31.4184 211.111 29.6324C212.604 28.1825 214.015 27.2186 215.305 26.7657C216.518 26.3367 218.004 26.5712 219.719 27.4627C221.198 28.2314 222.149 29.2526 222.631 30.588C223.105 31.9042 223.027 33.1411 222.389 34.367C222.086 34.9631 221.633 35.4699 221.074 35.8378C220.478 36.2292 219.832 36.5367 219.152 36.7516C218.432 36.9798 217.279 37.287 215.723 37.6669C213.91 38.1114 212.409 38.545 211.265 38.9581C210.048 39.3999 208.917 40.0512 207.925 40.8827C206.894 41.736 205.979 42.9213 205.209 44.4022C204.552 45.6678 204.395 46.8315 204.746 47.8605C205.093 48.879 205.777 49.6623 206.783 50.185C208.706 51.1845 210.461 50.7626 211.843 48.9826C212.45 48.2607 212.885 47.7608 213.146 47.483C213.383 47.2306 213.661 46.9905 213.973 46.7679C214.276 46.5519 214.689 46.3413 215.199 46.1424C215.734 45.9316 216.421 45.7136 217.238 45.4967C220.273 44.72 222.433 44.1384 223.657 43.7665C224.918 43.3841 226.158 42.7797 227.343 41.9725C228.56 41.1479 229.575 39.9602 230.362 38.4451C231.357 36.5312 231.749 34.451 231.526 32.2643" fill="#FC6B6B"/>
</g>
<defs>
<filter id="filter0_d" x="0" y="0" width="239.878" height="236.749" filterUnits="userSpaceOnUse" color-interpolation-filters="sRGB">
<feFlood flood-opacity="0" result="BackgroundImageFix"/>
<feColorMatrix in="SourceAlpha" type="matrix" values="0 0 0 0 0 0 0 0 0 0 0 0 0 0 0 0 0 0 127 0"/>
<feOffset dy="4"/>
<feGaussianBlur stdDeviation="2"/>
<feColorMatrix type="matrix" values="0 0 0 0 0 0 0 0 0 0 0 0 0 0 0 0 0 0 0.25 0"/>
<feBlend mode="normal" in2="BackgroundImageFix" result="effect1_dropShadow"/>
<feBlend mode="normal" in="SourceGraphic" in2="effect1_dropShadow" result="shape"/>
</filter>
</defs>
</svg>
