<svg width="601" height="600" viewBox="0 0 601 600" fill="none" xmlns="http://www.w3.org/2000/svg">
<rect x="0.247803" width="600" height="600" fill="white"/>
<g filter="url(#filter0_d)">
<path fill-rule="evenodd" clip-rule="evenodd" d="M75.2477 127.979L177.4 75L279.552 127.979L177.4 178.552L75.2477 127.979Z" fill="#FBF063"/>
<path fill-rule="evenodd" clip-rule="evenodd" d="M177.407 178.541L75.2478 127.978V258.691L177.414 310.981L177.407 178.541Z" fill="#F29C1F"/>
<path fill-rule="evenodd" clip-rule="evenodd" d="M177.399 310.981L279.566 258.691V127.978L177.407 178.541L177.399 310.981Z" fill="#F0C419"/>
<path opacity="0.5" fill-rule="evenodd" clip-rule="evenodd" d="M122.844 103.187L224.985 154.957L230.361 152.296L128.097 100.463L122.844 103.187Z" fill="#F29C1F"/>
<path opacity="0.5" fill-rule="evenodd" clip-rule="evenodd" d="M109.262 110.335L208.996 162.907L246.982 144.102L143.637 92.5078L109.262 110.335Z" fill="white"/>
<path opacity="0.5" fill-rule="evenodd" clip-rule="evenodd" d="M209.026 162.909L246.984 144.082V170.571L209.026 191.804V162.909Z" fill="white"/>
<path d="M295.671 234.128L287.159 229.914L287.6 229.023L285.102 227.786L287.616 226.482L287.159 225.599L295.671 221.184L296.129 222.067L304.642 217.652L304.184 216.769L312.697 212.354L313.154 213.237L321.667 208.822L321.209 207.939L329.722 203.525L330.18 204.407L338.692 199.992L338.235 199.11L346.747 194.695L347.205 195.577L355.718 191.163L355.26 190.28L363.773 185.865L364.231 186.748L372.743 182.333L372.285 181.45L380.798 177.035L381.256 177.918L385.054 175.948L388.853 177.918L389.311 177.035L397.823 181.45L397.366 182.333L405.878 186.748L406.336 185.865L414.849 190.28L414.391 191.163L422.904 195.577L423.362 194.695L431.874 199.11L431.416 199.992L439.929 204.407L440.387 203.525L448.9 207.939L448.442 208.822L456.955 213.237L457.412 212.354L465.925 216.769L465.467 217.652L473.98 222.067L474.438 221.184L482.95 225.599L482.493 226.482L485.007 227.786L482.509 229.023L482.95 229.914L474.438 234.128L473.997 233.237L465.484 237.451L465.925 238.343L457.412 242.557L456.971 241.666L448.458 245.88L448.9 246.771L440.387 250.986L439.946 250.095L431.433 254.309L431.874 255.2L423.362 259.415L422.92 258.524L414.408 262.738L414.849 263.629L406.336 267.844L405.895 266.952L397.382 271.167L397.823 272.058L389.311 276.272L388.87 275.381L385.054 277.27L381.239 275.381L380.798 276.272L372.285 272.058L372.727 271.167L364.214 266.952L363.773 267.844L355.26 263.629L355.701 262.738L347.189 258.524L346.747 259.415L338.235 255.2L338.676 254.309L330.163 250.095L329.722 250.986L321.209 246.771L321.65 245.88L313.138 241.666L312.697 242.557L304.184 238.343L304.625 237.451L296.112 233.237L295.671 234.128Z" stroke="#C59E07" stroke-width="1.98887" stroke-dasharray="9.94 9.94"/>
<path d="M385.061 292.56L385.061 283.1L384.066 283.1L384.066 278.988L380.363 277.155L380.804 276.263L372.29 272.05L371.849 272.941L363.336 268.727L363.777 267.836L355.264 263.622L354.823 264.514L346.31 260.3L346.751 259.409L338.237 255.195L337.796 256.086L329.283 251.873L329.724 250.982L321.211 246.768L320.77 247.659L312.256 243.446L312.697 242.554L304.184 238.341L303.743 239.232L295.23 235.018L295.671 234.127L287.158 229.913L286.717 230.805L283.895 229.408V232.475H282.901V241.812H283.895V251.148H282.901V260.485H283.895V269.822H282.901V279.158H283.895V288.495H282.901V297.832H283.895V307.168H282.901V316.505H283.895V325.842H282.901V335.178H283.895V344.515H282.901V353.852H283.895V357.912L287.611 359.814L287.158 360.699L295.672 365.056L296.125 364.171L304.639 368.529L304.186 369.414L312.7 373.771L313.153 372.886L321.667 377.244L321.213 378.129L329.727 382.486L330.18 381.601L338.694 385.959L338.241 386.844L346.755 391.201L347.208 390.316L355.722 394.674L355.269 395.559L363.783 399.916L364.236 399.031L372.75 403.389L372.297 404.274L380.811 408.631L381.264 407.746L384.073 409.184L384.073 406.08L385.067 406.08L385.067 396.62L384.072 396.62L384.072 387.16L385.066 387.16L385.066 377.7L384.071 377.7L384.071 368.24L385.065 368.24L385.065 358.78L384.07 358.78L384.07 349.32L385.064 349.32L385.064 339.86L384.069 339.86L384.069 330.4L385.063 330.4L385.063 320.94L384.068 320.94L384.068 311.48L385.062 311.48L385.062 302.02L384.067 302.02L384.067 292.56L385.061 292.56Z" stroke="#C59E07" stroke-width="1.98887" stroke-dasharray="9.94 9.94"/>
<path fill-rule="evenodd" clip-rule="evenodd" d="M385.053 410.81L487.22 358.52V227.807L385.06 278.37L385.053 410.81Z" stroke="#C59E07" stroke-width="1.98887" stroke-dasharray="11.93 11.93"/>
<path opacity="0.5" fill-rule="evenodd" clip-rule="evenodd" d="M416.679 262.738L454.637 243.911V270.401L416.679 291.633V262.738Z" fill="white"/>
<path fill-rule="evenodd" clip-rule="evenodd" d="M107.602 341.997L209.754 289.018L311.907 341.997L209.754 392.57L107.602 341.997Z" fill="#FBF063"/>
<path fill-rule="evenodd" clip-rule="evenodd" d="M209.76 392.561L107.6 341.998V472.711L209.767 525.001L209.76 392.561Z" fill="#F29C1F"/>
<path fill-rule="evenodd" clip-rule="evenodd" d="M209.752 525.001L311.918 472.711V341.998L209.759 392.561L209.752 525.001Z" fill="#F0C419"/>
<path opacity="0.5" fill-rule="evenodd" clip-rule="evenodd" d="M155.198 317.206L257.338 368.976L262.714 366.315L160.45 314.482L155.198 317.206Z" fill="#F29C1F"/>
<path opacity="0.5" fill-rule="evenodd" clip-rule="evenodd" d="M141.616 324.355L241.35 376.927L279.336 358.122L175.991 306.528L141.616 324.355Z" fill="white"/>
<path opacity="0.5" fill-rule="evenodd" clip-rule="evenodd" d="M241.379 376.927L279.337 358.101V384.59L241.379 405.823V376.927Z" fill="white"/>
<path d="M429.856 135.007C428.562 138.263 427.871 140.829 427.783 142.706C427.696 144.585 428.541 145.995 430.313 146.928C430.646 147.104 430.976 147.206 431.3 147.305C431.567 147.517 431.839 147.732 432.168 147.906C433.944 148.841 435.564 148.73 437.035 147.58C438.496 146.427 440.174 144.38 442.059 141.437L455.904 118.344C458.59 113.837 460.455 110.568 461.496 108.536C462.914 105.772 463.302 103.238 462.67 100.939C462.027 98.6362 460.548 96.872 458.211 95.641C458.09 95.5774 457.984 95.5564 457.862 95.4982C457.744 95.4298 457.665 95.3535 457.541 95.2881C455.21 94.0602 452.93 93.8431 450.706 94.6376C448.483 95.4321 446.667 97.2122 445.249 99.9767C444.208 102.007 442.64 105.432 440.544 110.252L429.856 135.007Z" fill="#FC6B6B"/>
<path d="M426.815 156.181C424.558 154.992 422.258 154.701 419.921 155.306C417.58 155.917 415.886 157.254 414.828 159.316C413.632 161.649 413.499 163.904 414.43 166.086C415.362 168.268 416.902 169.927 419.053 171.061C421.241 172.214 423.488 172.561 425.796 172.106C428.103 171.65 429.859 170.242 431.074 167.874C432.132 165.81 432.249 163.642 431.435 161.369C430.617 159.105 429.078 157.374 426.817 156.182" fill="#FC6B6B"/>
<path d="M467.458 177.592C465.2 176.403 462.899 176.111 460.561 176.719C458.221 177.327 456.527 178.664 455.468 180.73C454.273 183.06 454.142 185.316 455.071 187.498C456.004 189.68 457.545 191.34 459.696 192.473C461.884 193.626 464.129 193.972 466.436 193.518C468.744 193.061 470.5 191.651 471.712 189.287C472.771 187.221 472.892 185.055 472.074 182.783C471.256 180.514 469.722 178.785 467.46 177.593" fill="#FC6B6B"/>
<path d="M516.795 138.468C516.357 134.179 514.7 130.059 511.865 126.214C509.044 122.4 505.142 119.161 500.262 116.59C495.006 113.821 489.755 112.469 484.663 112.58C479.566 112.69 475.052 113.9 471.245 116.173C467.417 118.457 464.61 121.302 462.902 124.633C461.99 126.412 461.87 128.457 462.539 130.704C463.211 132.961 464.614 134.665 466.708 135.768C470.282 137.651 473.803 136.807 477.18 133.294C480.077 130.441 482.816 128.545 485.319 127.654C487.674 126.81 490.557 127.272 493.886 129.025C496.756 130.538 498.602 132.547 499.536 135.174C500.456 137.763 500.304 140.196 499.068 142.608C498.479 143.78 497.599 144.777 496.515 145.501C495.359 146.271 494.104 146.876 492.785 147.299C491.387 147.748 489.15 148.352 486.131 149.099C482.613 149.974 479.699 150.827 477.478 151.64C475.117 152.509 472.923 153.79 470.997 155.426C468.997 157.104 467.221 159.436 465.727 162.349C464.451 164.839 464.147 167.128 464.828 169.152C465.501 171.156 466.829 172.697 468.781 173.725C472.513 175.692 475.918 174.861 478.601 171.36C479.779 169.94 480.622 168.956 481.13 168.41C481.59 167.913 482.129 167.441 482.735 167.003C483.323 166.578 484.124 166.164 485.114 165.773C486.152 165.358 487.485 164.929 489.07 164.502C494.961 162.974 499.153 161.83 501.527 161.099C503.976 160.346 506.382 159.157 508.681 157.569C511.044 155.947 513.013 153.611 514.541 150.63C516.471 146.865 517.232 142.773 516.799 138.471" fill="#FC6B6B"/>
</g>
<defs>
<filter id="filter0_d" x="66.1802" y="75" width="459.804" height="468.136" filterUnits="userSpaceOnUse" color-interpolation-filters="sRGB">
<feFlood flood-opacity="0" result="BackgroundImageFix"/>
<feColorMatrix in="SourceAlpha" type="matrix" values="0 0 0 0 0 0 0 0 0 0 0 0 0 0 0 0 0 0 127 0"/>
<feOffset dy="9.06757"/>
<feGaussianBlur stdDeviation="4.53379"/>
<feColorMatrix type="matrix" values="0 0 0 0 0 0 0 0 0 0 0 0 0 0 0 0 0 0 0.25 0"/>
<feBlend mode="normal" in2="BackgroundImageFix" result="effect1_dropShadow"/>
<feBlend mode="normal" in="SourceGraphic" in2="effect1_dropShadow" result="shape"/>
</filter>
</defs>
</svg>
