<svg width="601" height="600" viewBox="0 0 601 600" fill="none" xmlns="http://www.w3.org/2000/svg">
<rect x="0.495605" width="600" height="600" fill="white"/>
<g filter="url(#filter0_d)">
<rect x="15.6078" y="167.205" width="337.023" height="81.7531" rx="16.6843" fill="white"/>
<rect x="15.6078" y="167.205" width="337.023" height="81.7531" rx="16.6843" stroke="url(#paint0_linear)" stroke-width="1.66843"/>
</g>
<path d="M91.2478 221.052C88.6575 221.052 86.7032 220.473 85.3849 219.317C84.0666 218.161 83.4075 216.472 83.4075 214.252V212.864C83.4075 211.916 83.5347 211.141 83.7891 210.54C84.0435 209.916 84.3557 209.349 84.7258 208.84C85.0958 208.331 85.3965 207.88 85.6278 207.487C85.8822 207.071 86.0094 206.643 86.0094 206.204C86.0094 205.787 85.9053 205.498 85.6971 205.336C85.5121 205.151 85.2577 205.059 84.9339 205.059C84.5176 205.059 84.0088 205.198 83.4075 205.475L82.5749 202.214C83.2225 201.867 83.9163 201.636 84.6564 201.52C85.4196 201.381 86.0903 201.312 86.6685 201.312C88.1949 201.312 89.2704 201.682 89.8948 202.422C90.5424 203.139 90.8662 204.111 90.8662 205.336C90.8662 206.053 90.7621 206.689 90.554 207.244C90.3458 207.776 90.0798 208.331 89.756 208.91C89.4554 209.441 89.1779 209.939 88.9235 210.401C88.6922 210.864 88.5765 211.535 88.5765 212.413V213.801C88.5765 214.934 88.8078 215.755 89.2704 216.264C89.756 216.75 90.4268 216.993 91.2825 216.993C93.0633 216.993 93.9537 215.987 93.9537 213.974V201.59H99.1228V214.113C99.1228 216.403 98.4521 218.137 97.1107 219.317C95.7693 220.473 93.815 221.052 91.2478 221.052ZM111.535 221.052C108.714 221.052 106.621 220.369 105.256 219.005C103.892 217.617 103.209 215.57 103.209 212.864C103.209 212.402 103.221 211.847 103.244 211.199C103.29 210.528 103.348 209.939 103.417 209.43H111.743V212.726H108.309V213.211C108.309 214.599 108.563 215.617 109.072 216.264C109.604 216.889 110.414 217.201 111.501 217.201C112.657 217.201 113.559 216.796 114.207 215.987C114.854 215.154 115.178 213.651 115.178 211.477C115.178 209.418 114.819 207.88 114.102 206.863C113.386 205.822 112.067 205.302 110.148 205.302C109.107 205.302 108.031 205.463 106.921 205.787C105.811 206.111 104.898 206.47 104.181 206.863V202.526C104.921 202.133 105.938 201.809 107.234 201.555C108.552 201.277 109.847 201.139 111.119 201.139C113.362 201.139 115.166 201.555 116.531 202.388C117.919 203.197 118.925 204.353 119.549 205.857C120.197 207.36 120.52 209.141 120.52 211.199C120.52 214.345 119.815 216.773 118.404 218.484C116.993 220.196 114.704 221.052 111.535 221.052ZM131.059 221.052C129.694 221.052 128.318 220.901 126.931 220.601C125.566 220.3 124.352 219.872 123.288 219.317L124.745 215.189C125.439 215.559 126.329 215.952 127.416 216.368C128.503 216.761 129.648 216.958 130.851 216.958C132.724 216.958 133.661 216.414 133.661 215.327C133.661 214.726 133.302 214.264 132.585 213.94C131.891 213.593 130.92 213.2 129.671 212.76C128.445 212.321 127.393 211.847 126.514 211.338C125.635 210.829 124.953 210.205 124.467 209.465C124.005 208.725 123.774 207.799 123.774 206.689C123.774 204.793 124.479 203.394 125.89 202.492C127.324 201.59 129.232 201.139 131.614 201.139C132.909 201.139 134.077 201.243 135.118 201.451C136.158 201.659 136.968 201.925 137.546 202.249V206.342C136.945 206.065 136.101 205.799 135.014 205.544C133.927 205.267 132.874 205.128 131.857 205.128C129.937 205.128 128.977 205.614 128.977 206.585C128.977 207.14 129.347 207.58 130.087 207.903C130.851 208.204 131.915 208.586 133.279 209.048C135.083 209.673 136.459 210.424 137.407 211.303C138.379 212.159 138.864 213.408 138.864 215.05C138.864 216.091 138.622 217.074 138.136 217.999C137.673 218.901 136.875 219.641 135.742 220.219C134.609 220.774 133.048 221.052 131.059 221.052ZM147.523 220.601V208.042C147.523 207.071 147.291 206.365 146.829 205.926C146.389 205.487 145.661 205.267 144.643 205.267C143.88 205.267 143.175 205.371 142.527 205.579C141.903 205.787 141.313 206.042 140.758 206.342V202.179C141.267 201.948 141.984 201.717 142.909 201.486C143.834 201.254 144.921 201.139 146.17 201.139C147.442 201.139 148.563 201.324 149.535 201.694C150.529 202.064 151.304 202.688 151.859 203.567C152.437 204.423 152.726 205.602 152.726 207.106V220.601H147.523ZM157.568 220.601V209.326C157.568 206.666 158.274 204.642 159.685 203.255C161.095 201.844 163.327 201.139 166.38 201.139C169.456 201.139 171.676 201.844 173.041 203.255C174.428 204.642 175.122 206.666 175.122 209.326V220.601H169.953V209.256C169.953 208.031 169.664 207.071 169.086 206.377C168.531 205.66 167.606 205.302 166.311 205.302C165.039 205.302 164.113 205.66 163.535 206.377C162.98 207.071 162.703 208.031 162.703 209.256V212.275L162.807 212.309C163.246 211.407 163.767 210.818 164.368 210.54C164.992 210.239 165.836 210.089 166.9 210.089H167.698V213.974H166.9C165.744 213.974 164.865 214.171 164.264 214.564C163.662 214.957 163.246 215.478 163.015 216.125C162.807 216.75 162.703 217.455 162.703 218.242V220.601H157.568ZM185.026 220.601V208.042C185.026 207.071 184.795 206.365 184.332 205.926C183.893 205.487 183.164 205.267 182.147 205.267C181.384 205.267 180.678 205.371 180.031 205.579C179.406 205.787 178.816 206.042 178.261 206.342V202.179C178.77 201.948 179.487 201.717 180.412 201.486C181.337 201.254 182.424 201.139 183.673 201.139C184.945 201.139 186.067 201.324 187.038 201.694C188.033 202.064 188.808 202.688 189.363 203.567C189.941 204.423 190.23 205.602 190.23 207.106V220.601H185.026ZM201.906 220.948C200.033 220.948 198.541 220.543 197.431 219.733C196.321 218.901 195.523 217.767 195.037 216.334C194.551 214.876 194.309 213.211 194.309 211.338C194.309 209.326 194.528 207.661 194.968 206.342C195.43 205.001 196.078 203.96 196.91 203.22C197.743 202.457 198.726 201.925 199.859 201.624C201.016 201.301 202.276 201.139 203.641 201.139C205.722 201.139 207.387 201.428 208.636 202.006C209.885 202.584 210.787 203.405 211.342 204.469C211.92 205.533 212.209 206.782 212.209 208.216V220.601H207.006V208.632C207.006 207.545 206.74 206.724 206.208 206.169C205.699 205.591 204.843 205.302 203.641 205.302C202.831 205.302 202.114 205.475 201.49 205.822C200.888 206.146 200.414 206.736 200.067 207.591C199.744 208.447 199.582 209.673 199.582 211.269C199.582 212.911 199.825 214.24 200.31 215.258C200.796 216.276 201.64 216.785 202.843 216.785C203.352 216.785 203.814 216.727 204.23 216.611L204.716 220.497C204.346 220.658 203.895 220.774 203.363 220.843C202.854 220.913 202.369 220.948 201.906 220.948ZM201.007 198.988V197.253C201.33 197.161 201.689 197.033 202.082 196.872C202.475 196.71 202.822 196.49 203.123 196.212C203.423 195.935 203.574 195.588 203.574 195.172C203.574 194.848 203.481 194.593 203.296 194.408C203.111 194.223 202.88 194.131 202.602 194.131C202.417 194.131 202.221 194.166 202.013 194.235C201.804 194.304 201.619 194.374 201.458 194.443L200.798 192.119C201.261 191.726 201.839 191.471 202.533 191.356C203.204 191.217 203.77 191.147 204.233 191.147C205.274 191.147 206.095 191.39 206.696 191.876C207.274 192.362 207.563 193.079 207.563 194.027C207.563 194.628 207.39 195.16 207.043 195.623H212.351V198.988H201.007ZM222.124 221.052C220.944 221.052 219.834 220.913 218.794 220.635C217.753 220.381 216.781 220.011 215.879 219.525L217.267 215.744C217.776 216.044 218.389 216.31 219.106 216.542C219.823 216.773 220.528 216.889 221.222 216.889C222.517 216.889 223.546 216.403 224.31 215.432C225.073 214.437 225.454 212.957 225.454 210.991C225.454 209.141 225.073 207.73 224.31 206.759C223.546 205.787 222.355 205.302 220.736 205.302C219.973 205.302 219.187 205.417 218.377 205.649C217.568 205.857 216.897 206.123 216.365 206.446V202.179C217.082 201.856 217.892 201.601 218.794 201.416C219.696 201.231 220.655 201.139 221.673 201.139C224.865 201.139 227.177 202.017 228.611 203.775C230.045 205.51 230.762 207.915 230.762 210.991C230.762 214.275 230.01 216.773 228.507 218.484C227.004 220.196 224.876 221.052 222.124 221.052ZM242.928 221.052C240.846 221.052 239.181 220.809 237.932 220.323C236.683 219.814 235.769 219.109 235.191 218.207C234.636 217.305 234.359 216.264 234.359 215.085C234.359 214.067 234.509 213.246 234.81 212.622C235.133 211.997 235.538 211.523 236.024 211.199C236.533 210.852 237.042 210.621 237.55 210.505V210.297C236.764 210.043 236.035 209.603 235.365 208.979C234.694 208.331 234.359 207.383 234.359 206.134C234.359 205.278 234.555 204.481 234.948 203.74C235.365 203 236.024 202.411 236.926 201.971C237.828 201.509 239.019 201.277 240.499 201.277C241.216 201.277 241.91 201.335 242.581 201.451C243.251 201.543 243.772 201.682 244.142 201.867L243.344 205.371C243.159 205.325 242.904 205.278 242.581 205.232C242.28 205.163 241.968 205.128 241.644 205.128C240.927 205.128 240.395 205.302 240.048 205.649C239.701 205.972 239.528 206.4 239.528 206.932C239.528 207.788 239.852 208.354 240.499 208.632C241.147 208.886 241.852 209.014 242.615 209.014H243.344V212.24H242.615C241.621 212.24 240.869 212.413 240.36 212.76C239.875 213.107 239.632 213.674 239.632 214.46C239.632 214.876 239.724 215.293 239.909 215.709C240.117 216.102 240.464 216.438 240.95 216.715C241.436 216.97 242.13 217.097 243.032 217.097C244.327 217.097 245.206 216.819 245.668 216.264C246.154 215.709 246.397 215.038 246.397 214.252V201.59H251.6V214.079C251.6 216.461 250.895 218.218 249.484 219.352C248.097 220.485 245.911 221.052 242.928 221.052ZM256.46 220.601V209.326C256.46 206.666 257.165 204.642 258.576 203.255C259.987 201.844 262.218 201.139 265.271 201.139C268.347 201.139 270.568 201.844 271.932 203.255C273.32 204.642 274.014 206.666 274.014 209.326V220.601H268.845V209.256C268.845 208.031 268.555 207.071 267.977 206.377C267.422 205.66 266.497 205.302 265.202 205.302C263.93 205.302 263.005 205.66 262.427 206.377C261.872 207.071 261.594 208.031 261.594 209.256V212.275L261.698 212.309C262.138 211.407 262.658 210.818 263.259 210.54C263.884 210.239 264.728 210.089 265.792 210.089H266.59V213.974H265.792C264.635 213.974 263.756 214.171 263.155 214.564C262.554 214.957 262.138 215.478 261.906 216.125C261.698 216.75 261.594 217.455 261.594 218.242V220.601H256.46ZM268.452 198.953V191.078H273.239V198.953H268.452ZM282.148 209.395C280.552 209.395 279.431 209.048 278.783 208.354C278.159 207.637 277.846 206.816 277.846 205.891C277.846 205.082 278.078 204.249 278.54 203.394L282.322 203.879C282.206 204.226 282.148 204.596 282.148 204.989C282.148 205.29 282.241 205.533 282.426 205.718C282.611 205.88 282.935 205.961 283.397 205.961H287.317V209.395H282.148ZM282.148 219.109C280.552 219.109 279.431 218.762 278.783 218.068C278.159 217.351 277.846 216.53 277.846 215.605C277.846 214.796 278.078 213.963 278.54 213.107L282.322 213.593C282.206 213.94 282.148 214.31 282.148 214.703C282.148 215.004 282.241 215.247 282.426 215.432C282.611 215.593 282.935 215.674 283.397 215.674H287.317V219.109H282.148Z" fill="#696969"/>
<path d="M44.6521 105.709C40.8152 105.709 37.0604 108.934 37.3205 113.159L39.8397 181.179C39.8526 182.438 40.3581 183.642 41.2491 184.533C42.1516 185.435 43.3757 185.942 44.6521 185.942C45.9284 185.942 47.1526 185.435 48.0551 184.533C48.946 183.642 49.4516 182.438 49.4644 181.179L51.9837 113.159C52.2438 108.934 48.4889 105.709 44.6521 105.709Z" fill="#FC6B6B" stroke="#FC6B6B" stroke-width="4.58174" stroke-linecap="round" stroke-linejoin="round"/>
<path d="M44.6533 221.245C48.7039 221.245 51.9876 217.962 51.9876 213.911C51.9876 209.86 48.7039 206.577 44.6533 206.577C40.6027 206.577 37.319 209.86 37.319 213.911C37.319 217.962 40.6027 221.245 44.6533 221.245Z" fill="#FC6B6B" stroke="#FC6B6B" stroke-width="4.58174" stroke-linecap="round" stroke-linejoin="round"/>
<g filter="url(#filter1_d)">
<rect x="308.793" y="294.732" width="279.692" height="81.8609" rx="16.6843" fill="white"/>
<rect x="308.793" y="294.732" width="279.692" height="81.8609" rx="16.6843" stroke="url(#paint1_linear)" stroke-width="1.66843"/>
</g>
<path d="M413.759 347.997C412.394 347.997 411.018 347.847 409.63 347.546C408.266 347.246 407.052 346.818 405.988 346.263L407.445 342.134C408.139 342.505 409.029 342.898 410.116 343.314C411.203 343.707 412.348 343.904 413.551 343.904C415.424 343.904 416.361 343.36 416.361 342.273C416.361 341.672 416.002 341.209 415.285 340.886C414.591 340.539 413.62 340.146 412.371 339.706C411.145 339.267 410.093 338.793 409.214 338.284C408.335 337.775 407.653 337.15 407.167 336.41C406.705 335.67 406.473 334.745 406.473 333.635C406.473 331.739 407.179 330.339 408.59 329.437C410.024 328.535 411.932 328.084 414.314 328.084C415.609 328.084 416.777 328.188 417.818 328.397C418.858 328.605 419.668 328.871 420.246 329.195V333.288C419.645 333.011 418.801 332.745 417.714 332.49C416.627 332.213 415.574 332.074 414.557 332.074C412.637 332.074 411.677 332.56 411.677 333.531C411.677 334.086 412.047 334.525 412.787 334.849C413.551 335.15 414.614 335.532 415.979 335.994C417.783 336.619 419.159 337.37 420.107 338.249C421.079 339.105 421.564 340.354 421.564 341.996C421.564 343.036 421.321 344.019 420.836 344.945C420.373 345.846 419.575 346.587 418.442 347.165C417.309 347.72 415.748 347.997 413.759 347.997ZM430.223 347.546V334.988C430.223 334.017 429.991 333.311 429.529 332.872C429.089 332.432 428.361 332.213 427.343 332.213C426.58 332.213 425.875 332.317 425.227 332.525C424.603 332.733 424.013 332.987 423.458 333.288V329.125C423.966 328.894 424.683 328.663 425.609 328.431C426.534 328.2 427.621 328.084 428.87 328.084C430.142 328.084 431.263 328.269 432.235 328.639C433.229 329.01 434.004 329.634 434.559 330.513C435.137 331.369 435.426 332.548 435.426 334.051V347.546H430.223ZM440.268 347.546V336.272C440.268 333.612 440.974 331.588 442.384 330.201C443.795 328.79 446.027 328.084 449.08 328.084C452.156 328.084 454.376 328.79 455.741 330.201C457.128 331.588 457.822 333.612 457.822 336.272V347.546H452.653V336.202C452.653 334.976 452.364 334.017 451.786 333.323C451.231 332.606 450.306 332.247 449.01 332.247C447.738 332.247 446.813 332.606 446.235 333.323C445.68 334.017 445.403 334.976 445.403 336.202V339.22L445.507 339.255C445.946 338.353 446.466 337.763 447.068 337.486C447.692 337.185 448.536 337.035 449.6 337.035H450.398V340.92H449.6C448.444 340.92 447.565 341.117 446.964 341.51C446.362 341.903 445.946 342.424 445.715 343.071C445.507 343.696 445.403 344.401 445.403 345.187V347.546H440.268ZM467.726 347.546V334.988C467.726 334.017 467.495 333.311 467.032 332.872C466.593 332.432 465.864 332.213 464.847 332.213C464.083 332.213 463.378 332.317 462.73 332.525C462.106 332.733 461.516 332.987 460.961 333.288V329.125C461.47 328.894 462.187 328.663 463.112 328.431C464.037 328.2 465.124 328.084 466.373 328.084C467.645 328.084 468.767 328.269 469.738 328.639C470.733 329.01 471.507 329.634 472.062 330.513C472.641 331.369 472.93 332.548 472.93 334.051V347.546H467.726ZM481.221 339.975C481.221 338.394 481.413 337.134 481.797 336.197C482.181 335.26 482.881 334.339 483.898 333.436C484.925 332.521 485.608 331.782 485.947 331.217C486.286 330.641 486.455 330.037 486.455 329.404C486.455 327.496 485.575 326.542 483.813 326.542C482.977 326.542 482.305 326.801 481.797 327.321C481.3 327.829 481.041 328.535 481.018 329.438H476.106C476.128 327.281 476.823 325.593 478.189 324.373C479.567 323.154 481.441 322.544 483.813 322.544C486.207 322.544 488.065 323.126 489.386 324.289C490.707 325.441 491.368 327.072 491.368 329.184C491.368 330.144 491.153 331.053 490.724 331.911C490.295 332.758 489.544 333.701 488.471 334.74L487.099 336.045C486.241 336.869 485.75 337.835 485.625 338.941L485.558 339.975H481.221ZM480.73 345.175C480.73 344.418 480.984 343.797 481.492 343.312C482.012 342.815 482.672 342.566 483.474 342.566C484.276 342.566 484.931 342.815 485.439 343.312C485.959 343.797 486.218 344.418 486.218 345.175C486.218 345.92 485.964 346.536 485.456 347.021C484.959 347.507 484.298 347.75 483.474 347.75C482.65 347.75 481.983 347.507 481.475 347.021C480.978 346.536 480.73 345.92 480.73 345.175Z" fill="#696969"/>
<path d="M328.763 231.709C324.926 231.709 321.171 234.933 321.432 239.159L323.951 307.179C323.964 308.437 324.469 309.641 325.36 310.532C326.263 311.435 327.487 311.942 328.763 311.942C330.04 311.942 331.264 311.435 332.166 310.532C333.057 309.641 333.563 308.437 333.576 307.179L336.095 239.159C336.355 234.933 332.6 231.709 328.763 231.709Z" fill="#FC6B6B" stroke="#FC6B6B" stroke-width="4.58174" stroke-linecap="round" stroke-linejoin="round"/>
<path d="M328.764 347.245C332.815 347.245 336.099 343.961 336.099 339.911C336.099 335.86 332.815 332.576 328.764 332.576C324.714 332.576 321.43 335.86 321.43 339.911C321.43 343.961 324.714 347.245 328.764 347.245Z" fill="#FC6B6B" stroke="#FC6B6B" stroke-width="4.58174" stroke-linecap="round" stroke-linejoin="round"/>
<g filter="url(#filter2_d)">
<rect x="15.6078" y="415.148" width="377.065" height="81.7531" rx="16.6843" fill="white"/>
<rect x="15.6078" y="415.148" width="377.065" height="81.7531" rx="16.6843" stroke="url(#paint2_linear)" stroke-width="1.66843"/>
</g>
<path d="M97.0778 468.457C95.7132 468.457 94.3371 468.307 92.9495 468.006C91.5849 467.706 90.3707 467.278 89.3068 466.723L90.7639 462.594C91.4577 462.965 92.3481 463.358 93.4351 463.774C94.5221 464.167 95.667 464.364 96.8696 464.364C98.743 464.364 99.6796 463.82 99.6796 462.733C99.6796 462.132 99.3212 461.669 98.6042 461.346C97.9104 460.999 96.939 460.605 95.6901 460.166C94.4643 459.727 93.412 459.253 92.5332 458.744C91.6543 458.235 90.972 457.61 90.4864 456.87C90.0238 456.13 89.7925 455.205 89.7925 454.095C89.7925 452.199 90.4979 450.799 91.9087 449.897C93.3426 448.995 95.2507 448.544 97.6328 448.544C98.928 448.544 100.096 448.648 101.137 448.857C102.177 449.065 102.987 449.331 103.565 449.654V453.748C102.964 453.471 102.12 453.205 101.033 452.95C99.9456 452.673 98.8933 452.534 97.8757 452.534C95.9561 452.534 94.9963 453.02 94.9963 453.991C94.9963 454.546 95.3663 454.985 96.1064 455.309C96.8696 455.61 97.9335 455.991 99.298 456.454C101.102 457.078 102.478 457.83 103.426 458.709C104.398 459.565 104.883 460.814 104.883 462.456C104.883 463.496 104.641 464.479 104.155 465.404C103.692 466.306 102.894 467.047 101.761 467.625C100.628 468.18 99.0667 468.457 97.0778 468.457ZM113.542 468.006V455.448C113.542 454.477 113.31 453.771 112.848 453.332C112.408 452.892 111.68 452.673 110.662 452.673C109.899 452.673 109.194 452.777 108.546 452.985C107.922 453.193 107.332 453.447 106.777 453.748V449.585C107.286 449.354 108.003 449.123 108.928 448.891C109.853 448.66 110.94 448.544 112.189 448.544C113.461 448.544 114.582 448.729 115.554 449.099C116.548 449.469 117.323 450.094 117.878 450.973C118.456 451.829 118.745 453.008 118.745 454.511V468.006H113.542ZM123.587 468.006V456.732C123.587 454.072 124.293 452.048 125.703 450.661C127.114 449.25 129.346 448.544 132.399 448.544C135.475 448.544 137.695 449.25 139.06 450.661C140.447 452.048 141.141 454.072 141.141 456.732V468.006H135.972V456.662C135.972 455.436 135.683 454.477 135.105 453.783C134.55 453.066 133.625 452.707 132.33 452.707C131.058 452.707 130.132 453.066 129.554 453.783C128.999 454.477 128.722 455.436 128.722 456.662V459.68L128.826 459.715C129.265 458.813 129.786 458.223 130.387 457.946C131.011 457.645 131.855 457.495 132.919 457.495H133.717V461.38H132.919C131.763 461.38 130.884 461.577 130.283 461.97C129.681 462.363 129.265 462.884 129.034 463.531C128.826 464.156 128.722 464.861 128.722 465.647V468.006H123.587ZM151.045 468.006V455.448C151.045 454.477 150.814 453.771 150.351 453.332C149.912 452.892 149.183 452.673 148.166 452.673C147.403 452.673 146.697 452.777 146.05 452.985C145.425 453.193 144.835 453.447 144.28 453.748V449.585C144.789 449.354 145.506 449.123 146.431 448.891C147.356 448.66 148.443 448.544 149.692 448.544C150.964 448.544 152.086 448.729 153.057 449.099C154.052 449.469 154.827 450.094 155.382 450.973C155.96 451.829 156.249 453.008 156.249 454.511V468.006H151.045ZM166.433 468.353C164.884 468.353 163.693 467.995 162.86 467.278C162.027 466.538 161.611 465.416 161.611 463.913V448.995H166.815V463.288C166.815 464.144 167.22 464.572 168.029 464.572C168.376 464.572 168.769 464.491 169.209 464.329L169.694 467.659C168.815 468.122 167.728 468.353 166.433 468.353ZM173.157 468.006V448.995H176.973L177.667 451.979H177.945C178.338 451.031 179.02 450.244 179.991 449.62C180.963 448.972 182.223 448.648 183.773 448.648C188.19 448.648 190.399 451.019 190.399 455.76V468.006H185.195V456.801C185.195 455.506 184.929 454.581 184.397 454.026C183.888 453.447 183.137 453.158 182.142 453.158C180.94 453.158 180.003 453.644 179.332 454.615C178.685 455.587 178.361 457.021 178.361 458.917V468.006H173.157ZM184.601 446.359V438.484H189.389V446.359H184.601ZM200.271 468.006V455.448C200.271 454.477 200.039 453.771 199.577 453.332C199.137 452.892 198.409 452.673 197.391 452.673C196.628 452.673 195.923 452.777 195.275 452.985C194.651 453.193 194.061 453.447 193.506 453.748V449.585C194.015 449.354 194.731 449.123 195.657 448.891C196.582 448.66 197.669 448.544 198.918 448.544C200.19 448.544 201.311 448.729 202.283 449.099C203.277 449.469 204.052 450.094 204.607 450.973C205.185 451.829 205.474 453.008 205.474 454.511V468.006H200.271ZM216.353 468.353C214.803 468.353 213.612 467.995 212.779 467.278C211.947 466.538 211.53 465.416 211.53 463.913V447.4C211.53 446.104 211.704 445.145 212.051 444.52C212.421 443.896 212.837 443.41 213.3 443.063L213.265 442.924H207.888L208.859 439.178H219.891V442.924C219.035 442.924 218.295 443.202 217.671 443.757C217.046 444.312 216.734 445.33 216.734 446.81V463.288C216.734 464.144 217.139 464.572 217.948 464.572C218.295 464.572 218.688 464.491 219.128 464.329L219.614 467.659C218.735 468.122 217.648 468.353 216.353 468.353ZM222.655 468.006V448.995H227.79V456.107H227.928L233.826 448.995H239.55V449.169L234.52 454.754C236.162 455.009 237.399 455.702 238.232 456.836C239.064 457.969 239.481 459.333 239.481 460.929V468.006H234.277V461.727C234.277 460.686 234.023 459.9 233.514 459.368C233.005 458.813 232.265 458.466 231.294 458.327L227.79 462.213V468.006H222.655ZM250.446 468.457C249.081 468.457 247.705 468.307 246.317 468.006C244.953 467.706 243.739 467.278 242.675 466.723L244.132 462.594C244.826 462.965 245.716 463.358 246.803 463.774C247.89 464.167 249.035 464.364 250.238 464.364C252.111 464.364 253.048 463.82 253.048 462.733C253.048 462.132 252.689 461.669 251.972 461.346C251.278 460.999 250.307 460.605 249.058 460.166C247.832 459.727 246.78 459.253 245.901 458.744C245.022 458.235 244.34 457.61 243.854 456.87C243.392 456.13 243.16 455.205 243.16 454.095C243.16 452.199 243.866 450.799 245.277 449.897C246.711 448.995 248.619 448.544 251.001 448.544C252.296 448.544 253.464 448.648 254.505 448.857C255.545 449.065 256.355 449.331 256.933 449.654V453.748C256.332 453.471 255.488 453.205 254.401 452.95C253.314 452.673 252.261 452.534 251.244 452.534C249.324 452.534 248.364 453.02 248.364 453.991C248.364 454.546 248.734 454.985 249.474 455.309C250.238 455.61 251.301 455.991 252.666 456.454C254.47 457.078 255.846 457.83 256.794 458.709C257.766 459.565 258.251 460.814 258.251 462.456C258.251 463.496 258.008 464.479 257.523 465.404C257.06 466.306 256.262 467.047 255.129 467.625C253.996 468.18 252.435 468.457 250.446 468.457ZM252.121 446.359V438.484H256.909V446.359H252.121ZM261.879 468.006V456.732C261.879 454.072 262.585 452.048 263.995 450.661C265.406 449.25 267.638 448.544 270.691 448.544C273.767 448.544 275.987 449.25 277.352 450.661C278.739 452.048 279.433 454.072 279.433 456.732V468.006H274.264V456.662C274.264 455.436 273.975 454.477 273.397 453.783C272.842 453.066 271.917 452.707 270.622 452.707C269.35 452.707 268.424 453.066 267.846 453.783C267.291 454.477 267.014 455.436 267.014 456.662V459.68L267.118 459.715C267.557 458.813 268.078 458.223 268.679 457.946C269.303 457.645 270.147 457.495 271.211 457.495H272.009V461.38H271.211C270.055 461.38 269.176 461.577 268.575 461.97C267.973 462.363 267.557 462.884 267.326 463.531C267.118 464.156 267.014 464.861 267.014 465.647V468.006H261.879ZM290.829 468.457C289.464 468.457 288.088 468.307 286.701 468.006C285.336 467.706 284.122 467.278 283.058 466.723L284.515 462.594C285.209 462.965 286.099 463.358 287.186 463.774C288.273 464.167 289.418 464.364 290.621 464.364C292.494 464.364 293.431 463.82 293.431 462.733C293.431 462.132 293.072 461.669 292.355 461.346C291.661 460.999 290.69 460.605 289.441 460.166C288.215 459.727 287.163 459.253 286.284 458.744C285.405 458.235 284.723 457.61 284.237 456.87C283.775 456.13 283.544 455.205 283.544 454.095C283.544 452.199 284.249 450.799 285.66 449.897C287.094 448.995 289.002 448.544 291.384 448.544C292.679 448.544 293.847 448.648 294.888 448.857C295.929 449.065 296.738 449.331 297.316 449.654V453.748C296.715 453.471 295.871 453.205 294.784 452.95C293.697 452.673 292.644 452.534 291.627 452.534C289.707 452.534 288.747 453.02 288.747 453.991C288.747 454.546 289.117 454.985 289.858 455.309C290.621 455.61 291.685 455.991 293.049 456.454C294.853 457.078 296.229 457.83 297.177 458.709C298.149 459.565 298.634 460.814 298.634 462.456C298.634 463.496 298.392 464.479 297.906 465.404C297.443 466.306 296.646 467.047 295.512 467.625C294.379 468.18 292.818 468.457 290.829 468.457ZM292.435 446.359C291.348 446.359 290.492 446.197 289.868 445.873C289.243 445.549 288.804 445.145 288.55 444.659C288.272 444.15 288.133 443.618 288.133 443.063C288.133 442.184 288.365 441.34 288.827 440.531L292.608 441.016C292.493 441.363 292.435 441.687 292.435 441.988C292.435 442.311 292.539 442.566 292.747 442.751C292.932 442.913 293.256 442.994 293.719 442.994H301.177V446.359H292.435ZM310.831 468.457C307.825 468.457 305.639 467.764 304.275 466.376C302.933 464.965 302.262 462.93 302.262 460.27V448.995H307.466V460.548C307.466 461.773 307.732 462.71 308.264 463.358C308.819 463.982 309.675 464.294 310.831 464.294C311.988 464.294 312.832 463.982 313.364 463.358C313.919 462.71 314.196 461.773 314.196 460.548V448.995H319.4V460.27C319.4 462.93 318.718 464.965 317.353 466.376C316.012 467.764 313.838 468.457 310.831 468.457Z" fill="#696969"/>
<path d="M44.6521 342.089C40.8152 342.089 37.0604 345.314 37.3205 349.539L39.8397 417.559C39.8526 418.818 40.3581 420.022 41.2491 420.913C42.1516 421.816 43.3757 422.323 44.6521 422.323C45.9284 422.323 47.1526 421.816 48.0551 420.913C48.946 420.022 49.4516 418.818 49.4644 417.559L51.9837 349.539C52.2438 345.314 48.4889 342.089 44.6521 342.089Z" fill="#FC6B6B" stroke="#FC6B6B" stroke-width="4.58174" stroke-linecap="round" stroke-linejoin="round"/>
<path d="M44.6533 457.627C48.7039 457.627 51.9876 454.344 51.9876 450.293C51.9876 446.242 48.7039 442.959 44.6533 442.959C40.6027 442.959 37.319 446.242 37.319 450.293C37.319 454.344 40.6027 457.627 44.6533 457.627Z" fill="#FC6B6B" stroke="#FC6B6B" stroke-width="4.58174" stroke-linecap="round" stroke-linejoin="round"/>
<defs>
<filter id="filter0_d" x="6.43147" y="164.703" width="355.376" height="100.106" filterUnits="userSpaceOnUse" color-interpolation-filters="sRGB">
<feFlood flood-opacity="0" result="BackgroundImageFix"/>
<feColorMatrix in="SourceAlpha" type="matrix" values="0 0 0 0 0 0 0 0 0 0 0 0 0 0 0 0 0 0 127 0"/>
<feOffset dy="6.67372"/>
<feGaussianBlur stdDeviation="4.17107"/>
<feColorMatrix type="matrix" values="0 0 0 0 0.525 0 0 0 0 0.525 0 0 0 0 0.525 0 0 0 0.25 0"/>
<feBlend mode="normal" in2="BackgroundImageFix" result="effect1_dropShadow"/>
<feBlend mode="normal" in="SourceGraphic" in2="effect1_dropShadow" result="shape"/>
</filter>
<filter id="filter1_d" x="299.616" y="292.23" width="298.044" height="100.214" filterUnits="userSpaceOnUse" color-interpolation-filters="sRGB">
<feFlood flood-opacity="0" result="BackgroundImageFix"/>
<feColorMatrix in="SourceAlpha" type="matrix" values="0 0 0 0 0 0 0 0 0 0 0 0 0 0 0 0 0 0 127 0"/>
<feOffset dy="6.67372"/>
<feGaussianBlur stdDeviation="4.17107"/>
<feColorMatrix type="matrix" values="0 0 0 0 0.525 0 0 0 0 0.525 0 0 0 0 0.525 0 0 0 0.25 0"/>
<feBlend mode="normal" in2="BackgroundImageFix" result="effect1_dropShadow"/>
<feBlend mode="normal" in="SourceGraphic" in2="effect1_dropShadow" result="shape"/>
</filter>
<filter id="filter2_d" x="6.43147" y="412.646" width="395.418" height="100.106" filterUnits="userSpaceOnUse" color-interpolation-filters="sRGB">
<feFlood flood-opacity="0" result="BackgroundImageFix"/>
<feColorMatrix in="SourceAlpha" type="matrix" values="0 0 0 0 0 0 0 0 0 0 0 0 0 0 0 0 0 0 127 0"/>
<feOffset dy="6.67372"/>
<feGaussianBlur stdDeviation="4.17107"/>
<feColorMatrix type="matrix" values="0 0 0 0 0.525 0 0 0 0 0.525 0 0 0 0 0.525 0 0 0 0.25 0"/>
<feBlend mode="normal" in2="BackgroundImageFix" result="effect1_dropShadow"/>
<feBlend mode="normal" in="SourceGraphic" in2="effect1_dropShadow" result="shape"/>
</filter>
<linearGradient id="paint0_linear" x1="362.724" y1="156.91" x2="206.499" y2="387.099" gradientUnits="userSpaceOnUse">
<stop stop-color="#C8A6FA"/>
<stop offset="0.364583" stop-color="#A4B3FC"/>
<stop offset="0.692708" stop-color="#F77488"/>
<stop offset="0.994792" stop-color="#F56989"/>
</linearGradient>
<linearGradient id="paint1_linear" x1="596.861" y1="284.424" x2="431.837" y2="485.949" gradientUnits="userSpaceOnUse">
<stop stop-color="#C8A6FA"/>
<stop offset="0.364583" stop-color="#A4B3FC"/>
<stop offset="0.692708" stop-color="#F77488"/>
<stop offset="0.994792" stop-color="#F56989"/>
</linearGradient>
<linearGradient id="paint2_linear" x1="403.965" y1="404.854" x2="254.875" y2="650.63" gradientUnits="userSpaceOnUse">
<stop stop-color="#C8A6FA"/>
<stop offset="0.364583" stop-color="#A4B3FC"/>
<stop offset="0.692708" stop-color="#F77488"/>
<stop offset="0.994792" stop-color="#F56989"/>
</linearGradient>
</defs>
</svg>
