<svg width="600" height="600" viewBox="0 0 600 600" fill="none" xmlns="http://www.w3.org/2000/svg">
<rect width="600" height="600" fill="white"/>
<g filter="url(#filter0_d)">
<rect x="30.2252" y="169.407" width="314.323" height="76.2466" rx="15.5605" fill="#DEDEDE"/>
</g>
<g filter="url(#filter1_d)">
<rect x="313.427" y="264.856" width="260.853" height="76.3472" rx="15.5605" fill="#418DFF"/>
</g>
<g filter="url(#filter2_d)">
<rect x="30.2252" y="418.375" width="311.211" height="76.2466" rx="15.5605" fill="#DEDEDE"/>
</g>
<path d="M139.858 219.782C137.916 219.782 136.363 219.556 135.199 219.103C134.034 218.628 133.182 217.971 132.643 217.129C132.125 216.288 131.866 215.317 131.866 214.217C131.866 213.268 132.006 212.503 132.287 211.92C132.589 211.338 132.966 210.896 133.419 210.594C133.894 210.27 134.368 210.054 134.843 209.947V209.752C134.109 209.515 133.43 209.105 132.804 208.523C132.179 207.919 131.866 207.035 131.866 205.87C131.866 205.072 132.049 204.328 132.416 203.637C132.804 202.947 133.419 202.397 134.26 201.987C135.102 201.556 136.212 201.34 137.593 201.34C138.262 201.34 138.909 201.394 139.534 201.502C140.16 201.588 140.645 201.718 140.99 201.89L140.246 205.158C140.073 205.115 139.836 205.072 139.534 205.029C139.254 204.964 138.963 204.932 138.661 204.932C137.992 204.932 137.496 205.093 137.172 205.417C136.849 205.719 136.687 206.118 136.687 206.614C136.687 207.412 136.989 207.941 137.593 208.199C138.197 208.437 138.855 208.555 139.567 208.555H140.246V211.564H139.567C138.639 211.564 137.938 211.726 137.464 212.05C137.011 212.373 136.784 212.902 136.784 213.635C136.784 214.023 136.87 214.412 137.043 214.8C137.237 215.166 137.561 215.479 138.014 215.738C138.467 215.975 139.114 216.094 139.955 216.094C141.163 216.094 141.982 215.835 142.414 215.317C142.867 214.8 143.093 214.174 143.093 213.441V201.631H147.947V213.279C147.947 215.501 147.289 217.14 145.973 218.197C144.679 219.254 142.64 219.782 139.858 219.782ZM133.124 199.172V197.134L136.392 195.775H139.919V193.543H142.992V195.775H144.901V193.543H147.943V199.172H133.124ZM158.529 219.685C156.566 219.685 155.067 219.114 154.032 217.971C152.996 216.827 152.478 215.145 152.478 212.923V201.631H157.332V212.082C157.332 213.268 157.569 214.131 158.044 214.67C158.518 215.21 159.208 215.479 160.114 215.479C161.257 215.479 162.142 215.048 162.767 214.185C163.393 213.301 163.706 211.942 163.706 210.108V201.631H168.559V219.362H164.87L164.353 216.644H164.062C163.695 217.507 163.059 218.229 162.153 218.812C161.268 219.394 160.06 219.685 158.529 219.685ZM180.902 219.782C178.96 219.782 177.407 219.556 176.243 219.103C175.078 218.628 174.226 217.971 173.687 217.129C173.169 216.288 172.91 215.317 172.91 214.217C172.91 213.268 173.05 212.503 173.331 211.92C173.633 211.338 174.01 210.896 174.463 210.594C174.938 210.27 175.412 210.054 175.887 209.947V209.752C175.153 209.515 174.474 209.105 173.848 208.523C173.223 207.919 172.91 207.035 172.91 205.87C172.91 205.072 173.093 204.328 173.46 203.637C173.848 202.947 174.463 202.397 175.304 201.987C176.146 201.556 177.256 201.34 178.637 201.34C179.306 201.34 179.953 201.394 180.578 201.502C181.204 201.588 181.689 201.718 182.034 201.89L181.29 205.158C181.117 205.115 180.88 205.072 180.578 205.029C180.298 204.964 180.007 204.932 179.705 204.932C179.036 204.932 178.54 205.093 178.216 205.417C177.893 205.719 177.731 206.118 177.731 206.614C177.731 207.412 178.033 207.941 178.637 208.199C179.241 208.437 179.899 208.555 180.611 208.555H181.29V211.564H180.611C179.683 211.564 178.982 211.726 178.508 212.05C178.055 212.373 177.828 212.902 177.828 213.635C177.828 214.023 177.914 214.412 178.087 214.8C178.281 215.166 178.605 215.479 179.058 215.738C179.511 215.975 180.158 216.094 180.999 216.094C182.207 216.094 183.026 215.835 183.458 215.317C183.911 214.8 184.137 214.174 184.137 213.441V201.631H188.991V213.279C188.991 215.501 188.333 217.14 187.017 218.197C185.723 219.254 183.684 219.782 180.902 219.782ZM184.231 199.172C183.217 199.172 182.419 199.021 181.836 198.719C181.254 198.417 180.844 198.04 180.607 197.587C180.348 197.112 180.219 196.616 180.219 196.099C180.219 195.279 180.434 194.492 180.866 193.737L184.392 194.19C184.284 194.513 184.231 194.815 184.231 195.096C184.231 195.398 184.328 195.635 184.522 195.807C184.694 195.958 184.996 196.034 185.428 196.034H192.384V199.172H184.231ZM199.573 219.685C197.61 219.685 196.111 219.114 195.076 217.971C194.04 216.827 193.522 215.145 193.522 212.923V201.631H198.376V212.082C198.376 213.268 198.613 214.131 199.088 214.67C199.562 215.21 200.252 215.479 201.158 215.479C202.301 215.479 203.186 215.048 203.811 214.185C204.437 213.301 204.75 211.942 204.75 210.108V201.631H209.603V219.362H205.914L205.397 216.644H205.106C204.739 217.507 204.103 218.229 203.197 218.812C202.312 219.394 201.104 219.685 199.573 219.685ZM214.439 219.362V208.846C214.439 206.366 215.097 204.479 216.413 203.184C217.729 201.869 219.81 201.211 222.658 201.211C225.526 201.211 227.597 201.869 228.87 203.184C230.164 204.479 230.811 206.366 230.811 208.846V219.362H225.99V208.782C225.99 207.639 225.721 206.743 225.181 206.096C224.664 205.428 223.801 205.093 222.593 205.093C221.407 205.093 220.544 205.428 220.004 206.096C219.487 206.743 219.228 207.639 219.228 208.782V211.597L219.325 211.629C219.735 210.788 220.22 210.238 220.781 209.979C221.363 209.698 222.151 209.558 223.143 209.558H223.887V213.182H223.143C222.064 213.182 221.245 213.365 220.684 213.732C220.123 214.099 219.735 214.584 219.519 215.188C219.325 215.77 219.228 216.428 219.228 217.162V219.362H214.439ZM225.624 199.172V191.828H230.089V199.172H225.624ZM238.398 208.911C236.909 208.911 235.863 208.588 235.259 207.941C234.677 207.272 234.386 206.506 234.386 205.643C234.386 204.888 234.601 204.112 235.033 203.314L238.56 203.767C238.452 204.09 238.398 204.435 238.398 204.802C238.398 205.083 238.484 205.309 238.657 205.482C238.829 205.633 239.131 205.708 239.563 205.708H243.219V208.911H238.398ZM238.398 217.971C236.909 217.971 235.863 217.647 235.259 217C234.677 216.331 234.386 215.566 234.386 214.703C234.386 213.948 234.601 213.171 235.033 212.373L238.56 212.826C238.452 213.15 238.398 213.495 238.398 213.861C238.398 214.142 238.484 214.368 238.657 214.541C238.829 214.692 239.131 214.767 239.563 214.767H243.219V217.971H238.398Z" fill="#696969"/>
<path d="M272.384 142.157C271.801 142.157 271.241 142.059 270.701 141.865C270.162 141.671 269.72 141.326 269.375 140.83C269.03 140.334 268.857 139.644 268.857 138.759V124.103H271.737V138.403C271.737 138.899 271.844 139.255 272.06 139.471C272.276 139.687 272.621 139.795 273.096 139.795C273.29 139.795 273.495 139.773 273.71 139.73C273.926 139.687 274.131 139.633 274.325 139.568L274.713 141.671C274.303 141.865 273.904 141.995 273.516 142.059C273.128 142.124 272.75 142.157 272.384 142.157ZM286.456 142.157C285.075 142.157 283.878 141.887 282.864 141.348C281.872 140.787 281.193 140.01 280.826 139.018H280.696L280.535 141.833H278.173V124.103H281.052V134.359C281.052 135.998 281.473 137.303 282.314 138.274C283.155 139.245 284.342 139.73 285.873 139.73C288.397 139.73 289.659 138.414 289.659 135.783V124.103H292.538V135.977C292.538 138.112 291.999 139.676 290.921 140.668C289.864 141.66 288.375 142.157 286.456 142.157ZM278.79 121.288V120.026L281.152 118.99H285.455V116.37H287.849V118.99H290.179V116.37H292.541V121.288H278.79ZM287.706 114.461V109.187H290.456V114.461H287.706ZM304.065 142.157C301.735 142.157 299.988 141.553 298.824 140.345C297.68 139.115 297.109 137.195 297.109 134.586C297.109 134.154 297.119 133.69 297.141 133.194C297.184 132.677 297.227 132.17 297.27 131.674H304.065V133.938H299.988V134.586C299.988 135.944 300.139 137.012 300.441 137.789C300.743 138.544 301.185 139.072 301.768 139.374C302.372 139.676 303.116 139.827 304 139.827C304.971 139.827 305.812 139.644 306.524 139.277C307.236 138.91 307.786 138.242 308.174 137.271C308.562 136.3 308.756 134.909 308.756 133.097C308.756 130.724 308.347 128.977 307.527 127.856C306.729 126.734 305.338 126.173 303.353 126.173C302.318 126.173 301.326 126.313 300.377 126.594C299.449 126.853 298.554 127.23 297.691 127.726V125.041C298.338 124.696 299.19 124.404 300.247 124.167C301.304 123.908 302.458 123.779 303.709 123.779C305.607 123.779 307.139 124.167 308.304 124.944C309.49 125.699 310.353 126.777 310.892 128.179C311.431 129.56 311.701 131.199 311.701 133.097C311.701 134.995 311.453 136.624 310.957 137.983C310.461 139.342 309.652 140.377 308.53 141.089C307.43 141.801 305.942 142.157 304.065 142.157ZM319.926 142.157C319.085 142.157 318.265 142.07 317.467 141.898C316.691 141.725 315.86 141.402 314.976 140.927L315.882 138.727C316.356 139.007 316.895 139.255 317.499 139.471C318.103 139.665 318.804 139.762 319.602 139.762C321.199 139.762 322.439 139.18 323.323 138.015C324.229 136.829 324.682 135.125 324.682 132.903C324.682 130.724 324.218 129.064 323.291 127.92C322.385 126.756 320.983 126.173 319.085 126.173C318.395 126.173 317.694 126.249 316.982 126.4C316.27 126.551 315.644 126.777 315.105 127.079V124.653C315.731 124.329 316.41 124.103 317.143 123.973C317.898 123.844 318.653 123.779 319.408 123.779C321.35 123.779 322.924 124.167 324.132 124.944C325.34 125.699 326.224 126.756 326.785 128.115C327.346 129.473 327.626 131.07 327.626 132.903C327.626 135.75 326.979 138.004 325.685 139.665C324.413 141.326 322.493 142.157 319.926 142.157ZM337.307 141.833V129.247C337.307 128.19 337.059 127.413 336.562 126.917C336.088 126.421 335.279 126.173 334.136 126.173C333.359 126.173 332.626 126.281 331.936 126.497C331.267 126.691 330.62 126.971 329.994 127.338V124.75C330.426 124.534 331.041 124.318 331.839 124.103C332.637 123.887 333.586 123.779 334.686 123.779C336.368 123.779 337.706 124.156 338.698 124.911C339.69 125.666 340.186 126.971 340.186 128.826V141.833H337.307ZM351.551 142.157C349.653 142.157 348.154 141.66 347.054 140.668C345.975 139.676 345.436 138.101 345.436 135.944V124.103H348.315V135.783C348.315 138.414 349.599 139.73 352.166 139.73C353.676 139.73 354.84 139.245 355.66 138.274C356.501 137.303 356.922 135.998 356.922 134.359V124.103H359.801V141.833H357.407L357.278 139.212H357.116C356.728 140.075 356.048 140.787 355.078 141.348C354.129 141.887 352.953 142.157 351.551 142.157Z" fill="#979090"/>
<path d="M291.803 392.682C290.961 392.682 290.142 392.596 289.344 392.423C288.567 392.251 287.737 391.927 286.852 391.452L287.758 389.252C288.233 389.533 288.772 389.781 289.376 389.996C289.98 390.191 290.681 390.288 291.479 390.288C293.075 390.288 294.315 389.705 295.2 388.541C296.106 387.354 296.559 385.65 296.559 383.428C296.559 381.25 296.095 379.589 295.167 378.446C294.262 377.281 292.859 376.699 290.961 376.699C290.271 376.699 289.57 376.774 288.858 376.925C288.146 377.076 287.521 377.303 286.982 377.605V375.178C287.607 374.854 288.287 374.628 289.02 374.498C289.775 374.369 290.53 374.304 291.285 374.304C293.226 374.304 294.801 374.693 296.009 375.469C297.217 376.224 298.101 377.281 298.662 378.64C299.223 379.999 299.503 381.595 299.503 383.428C299.503 386.276 298.856 388.53 297.562 390.191C296.289 391.852 294.369 392.682 291.803 392.682ZM294.875 371.813C293.516 371.813 292.556 371.543 291.995 371.004C291.434 370.443 291.154 369.818 291.154 369.128C291.154 368.804 291.208 368.459 291.316 368.092C291.402 367.704 291.521 367.391 291.672 367.154L294.098 367.575C293.969 367.833 293.904 368.168 293.904 368.578C293.904 368.858 293.99 369.106 294.163 369.322C294.335 369.516 294.627 369.613 295.037 369.613H303.222V371.813H294.875ZM310.283 392.682C308.385 392.682 306.886 392.186 305.786 391.194C304.707 390.201 304.168 388.627 304.168 386.47V374.628H307.048V386.308C307.048 388.94 308.331 390.255 310.898 390.255C312.408 390.255 313.573 389.77 314.392 388.799C315.234 387.829 315.654 386.524 315.654 384.884V374.628H318.534V392.358H316.14L316.01 389.738H315.848C315.46 390.6 314.781 391.312 313.81 391.873C312.861 392.412 311.685 392.682 310.283 392.682ZM330.126 392.682C328.228 392.682 326.729 392.186 325.629 391.194C324.55 390.201 324.011 388.627 324.011 386.47V374.628H326.89V386.308C326.89 388.94 328.174 390.255 330.741 390.255C332.251 390.255 333.415 389.77 334.235 388.799C335.076 387.829 335.497 386.524 335.497 384.884V374.628H338.376V392.358H335.982L335.853 389.738H335.691C335.303 390.6 334.623 391.312 333.653 391.873C332.704 392.412 331.528 392.682 330.126 392.682ZM324.602 371.813V370.551L326.964 369.516H335.668V366.895H338.386V370.551H338.353V371.813H324.602ZM332.885 364.986V363.854C333.317 363.746 333.78 363.573 334.276 363.336C334.751 363.099 334.988 362.743 334.988 362.268C334.988 361.772 334.74 361.524 334.244 361.524C333.899 361.524 333.543 361.632 333.176 361.848L332.594 360.359C332.982 360.101 333.424 359.928 333.921 359.842C334.395 359.755 334.773 359.712 335.053 359.712C335.614 359.712 336.121 359.863 336.574 360.165C337.027 360.446 337.253 360.931 337.253 361.621C337.253 361.794 337.232 361.988 337.188 362.204C337.145 362.419 337.07 362.624 336.962 362.818H341.039V364.986H332.885Z" fill="#979090"/>
<path d="M381.322 314.689C380.05 314.689 378.766 314.549 377.472 314.269C376.2 313.988 375.067 313.589 374.075 313.071L375.434 309.221C376.081 309.566 376.911 309.933 377.925 310.321C378.939 310.688 380.007 310.871 381.128 310.871C382.875 310.871 383.749 310.364 383.749 309.351C383.749 308.79 383.415 308.358 382.746 308.056C382.099 307.733 381.193 307.366 380.028 306.956C378.885 306.547 377.904 306.104 377.084 305.63C376.264 305.155 375.628 304.573 375.175 303.883C374.744 303.192 374.528 302.33 374.528 301.294C374.528 299.525 375.186 298.221 376.501 297.379C377.839 296.538 379.618 296.117 381.84 296.117C383.048 296.117 384.137 296.215 385.108 296.409C386.079 296.603 386.833 296.851 387.373 297.153V300.971C386.812 300.712 386.025 300.464 385.011 300.227C383.997 299.968 383.016 299.838 382.067 299.838C380.276 299.838 379.381 300.291 379.381 301.197C379.381 301.715 379.726 302.125 380.416 302.427C381.128 302.707 382.12 303.063 383.393 303.494C385.076 304.077 386.359 304.778 387.243 305.597C388.149 306.396 388.602 307.56 388.602 309.092C388.602 310.062 388.376 310.979 387.923 311.842C387.491 312.683 386.747 313.373 385.69 313.913C384.633 314.43 383.177 314.689 381.322 314.689ZM382.82 294.079C381.807 294.079 381.008 293.928 380.426 293.626C379.844 293.324 379.434 292.947 379.197 292.494C378.938 292.019 378.808 291.523 378.808 291.005C378.808 290.186 379.024 289.398 379.455 288.643L382.982 289.096C382.874 289.42 382.82 289.722 382.82 290.002C382.82 290.304 382.917 290.542 383.111 290.714C383.284 290.865 383.586 290.941 384.017 290.941H390.974V294.079H382.82ZM399.978 314.689C397.173 314.689 395.135 314.042 393.862 312.748C392.611 311.432 391.986 309.534 391.986 307.053V296.538H396.839V307.312C396.839 308.455 397.087 309.329 397.583 309.933C398.101 310.515 398.899 310.807 399.978 310.807C401.056 310.807 401.843 310.515 402.339 309.933C402.857 309.329 403.116 308.455 403.116 307.312V296.538H407.969V307.053C407.969 309.534 407.333 311.432 406.06 312.748C404.809 314.042 402.782 314.689 399.978 314.689ZM412.719 314.269V296.538H416.278L416.925 299.321H417.184C417.55 298.436 418.187 297.703 419.092 297.12C419.998 296.516 421.174 296.215 422.619 296.215C426.739 296.215 428.799 298.425 428.799 302.847V314.269H423.946V303.818C423.946 302.61 423.698 301.747 423.202 301.23C422.727 300.69 422.026 300.421 421.098 300.421C419.977 300.421 419.103 300.874 418.478 301.78C417.874 302.685 417.572 304.023 417.572 305.792V314.269H412.719ZM439.397 314.689C438.124 314.689 436.841 314.549 435.547 314.269C434.274 313.988 433.142 313.589 432.149 313.071L433.508 309.221C434.155 309.566 434.986 309.933 436 310.321C437.013 310.688 438.081 310.871 439.203 310.871C440.95 310.871 441.824 310.364 441.824 309.351C441.824 308.79 441.489 308.358 440.821 308.056C440.173 307.733 439.268 307.366 438.103 306.956C436.96 306.547 435.978 306.104 435.158 305.63C434.339 305.155 433.702 304.573 433.249 303.883C432.818 303.192 432.602 302.33 432.602 301.294C432.602 299.525 433.26 298.221 434.576 297.379C435.913 296.538 437.693 296.117 439.915 296.117C441.123 296.117 442.212 296.215 443.182 296.409C444.153 296.603 444.908 296.851 445.447 297.153V300.971C444.886 300.712 444.099 300.464 443.085 300.227C442.072 299.968 441.09 299.838 440.141 299.838C438.351 299.838 437.456 300.291 437.456 301.197C437.456 301.715 437.801 302.125 438.491 302.427C439.203 302.707 440.195 303.063 441.468 303.494C443.15 304.077 444.434 304.778 445.318 305.597C446.224 306.396 446.677 307.56 446.677 309.092C446.677 310.062 446.45 310.979 445.997 311.842C445.566 312.683 444.822 313.373 443.765 313.913C442.708 314.43 441.252 314.689 439.397 314.689ZM454.752 314.269V302.556C454.752 301.65 454.536 300.992 454.105 300.582C453.695 300.173 453.015 299.968 452.066 299.968C451.355 299.968 450.697 300.065 450.093 300.259C449.51 300.453 448.96 300.69 448.443 300.971V297.088C448.917 296.872 449.586 296.657 450.449 296.441C451.311 296.225 452.325 296.117 453.49 296.117C454.676 296.117 455.723 296.29 456.628 296.635C457.556 296.98 458.279 297.563 458.796 298.382C459.335 299.18 459.605 300.28 459.605 301.682V314.269H454.752ZM472.113 314.689C469.308 314.689 467.27 314.042 465.997 312.748C464.746 311.432 464.121 309.534 464.121 307.053V296.538H468.974V307.312C468.974 308.455 469.222 309.329 469.718 309.933C470.236 310.515 471.034 310.807 472.113 310.807C473.191 310.807 473.978 310.515 474.474 309.933C474.992 309.329 475.251 308.455 475.251 307.312V296.538H480.104V307.053C480.104 309.534 479.468 311.432 478.195 312.748C476.944 314.042 474.917 314.689 472.113 314.689ZM484.627 314.269V303.753C484.627 301.273 485.285 299.385 486.601 298.091C487.917 296.775 489.998 296.117 492.845 296.117C495.714 296.117 497.785 296.775 499.057 298.091C500.352 299.385 500.999 301.273 500.999 303.753V314.269H496.178V303.688C496.178 302.545 495.908 301.65 495.369 301.003C494.851 300.334 493.988 300 492.781 300C491.594 300 490.731 300.334 490.192 301.003C489.674 301.65 489.416 302.545 489.416 303.688V306.503L489.513 306.536C489.923 305.694 490.408 305.144 490.969 304.886C491.551 304.605 492.338 304.465 493.331 304.465H494.075V308.089H493.331C492.252 308.089 491.432 308.272 490.872 308.639C490.311 309.005 489.923 309.491 489.707 310.095C489.513 310.677 489.416 311.335 489.416 312.068V314.269H484.627ZM495.811 294.079V286.735H500.276V294.079H495.811ZM508.585 303.818C507.097 303.818 506.051 303.494 505.447 302.847C504.865 302.179 504.573 301.413 504.573 300.55C504.573 299.795 504.789 299.019 505.221 298.221L508.747 298.673C508.639 298.997 508.585 299.342 508.585 299.709C508.585 299.989 508.672 300.216 508.844 300.388C509.017 300.539 509.319 300.615 509.75 300.615H513.406V303.818H508.585ZM508.585 312.877C507.097 312.877 506.051 312.554 505.447 311.907C504.865 311.238 504.573 310.472 504.573 309.609C504.573 308.854 504.789 308.078 505.221 307.28L508.747 307.733C508.639 308.056 508.585 308.402 508.585 308.768C508.585 309.049 508.672 309.275 508.844 309.448C509.017 309.599 509.319 309.674 509.75 309.674H513.406V312.877H508.585Z" fill="white"/>
<path d="M114.568 468.249C112.152 468.249 110.329 467.71 109.1 466.631C107.87 465.553 107.255 463.978 107.255 461.908V460.613C107.255 459.729 107.374 459.007 107.611 458.446C107.849 457.863 108.14 457.335 108.485 456.86C108.83 456.386 109.11 455.965 109.326 455.598C109.563 455.21 109.682 454.811 109.682 454.401C109.682 454.013 109.585 453.743 109.391 453.592C109.218 453.42 108.981 453.334 108.679 453.334C108.291 453.334 107.816 453.463 107.255 453.722L106.479 450.681C107.083 450.357 107.73 450.141 108.42 450.033C109.132 449.904 109.758 449.839 110.297 449.839C111.72 449.839 112.723 450.184 113.306 450.875C113.91 451.543 114.212 452.449 114.212 453.592C114.212 454.261 114.115 454.854 113.921 455.372C113.726 455.868 113.478 456.386 113.176 456.925C112.896 457.421 112.637 457.885 112.4 458.316C112.184 458.748 112.076 459.373 112.076 460.193V461.487C112.076 462.544 112.292 463.31 112.723 463.784C113.176 464.237 113.802 464.464 114.6 464.464C116.261 464.464 117.091 463.525 117.091 461.649V450.098H121.912V461.778C121.912 463.914 121.287 465.531 120.036 466.631C118.785 467.71 116.962 468.249 114.568 468.249ZM133.489 468.249C130.857 468.249 128.905 467.613 127.632 466.34C126.36 465.046 125.723 463.137 125.723 460.613C125.723 460.182 125.734 459.664 125.756 459.06C125.799 458.435 125.853 457.885 125.918 457.41H133.683V460.484H130.48V460.937C130.48 462.231 130.717 463.18 131.191 463.784C131.688 464.367 132.443 464.658 133.456 464.658C134.535 464.658 135.376 464.28 135.98 463.525C136.584 462.749 136.886 461.347 136.886 459.319C136.886 457.4 136.552 455.965 135.883 455.016C135.214 454.045 133.985 453.56 132.194 453.56C131.224 453.56 130.221 453.711 129.185 454.013C128.15 454.315 127.298 454.649 126.629 455.016V450.972C127.32 450.605 128.269 450.303 129.477 450.066C130.706 449.807 131.914 449.677 133.1 449.677C135.193 449.677 136.875 450.066 138.148 450.842C139.442 451.597 140.38 452.676 140.963 454.078C141.567 455.48 141.869 457.141 141.869 459.06C141.869 461.994 141.211 464.259 139.895 465.855C138.579 467.451 136.444 468.249 133.489 468.249ZM153.121 468.249C151.179 468.249 149.626 468.023 148.462 467.57C147.297 467.095 146.445 466.437 145.906 465.596C145.388 464.755 145.129 463.784 145.129 462.684C145.129 461.735 145.269 460.969 145.55 460.387C145.852 459.805 146.229 459.362 146.682 459.06C147.157 458.737 147.631 458.521 148.106 458.413V458.219C147.372 457.982 146.693 457.572 146.067 456.99C145.442 456.386 145.129 455.501 145.129 454.337C145.129 453.539 145.312 452.794 145.679 452.104C146.067 451.414 146.682 450.864 147.523 450.454C148.365 450.023 149.475 449.807 150.856 449.807C151.525 449.807 152.172 449.861 152.797 449.969C153.423 450.055 153.908 450.184 154.253 450.357L153.509 453.625C153.336 453.582 153.099 453.539 152.797 453.495C152.517 453.431 152.226 453.398 151.924 453.398C151.255 453.398 150.759 453.56 150.435 453.884C150.112 454.186 149.95 454.585 149.95 455.081C149.95 455.879 150.252 456.407 150.856 456.666C151.46 456.903 152.118 457.022 152.83 457.022H153.509V460.031H152.83C151.902 460.031 151.201 460.193 150.727 460.516C150.274 460.84 150.047 461.368 150.047 462.102C150.047 462.49 150.133 462.878 150.306 463.267C150.5 463.633 150.824 463.946 151.277 464.205C151.73 464.442 152.377 464.561 153.218 464.561C154.426 464.561 155.245 464.302 155.677 463.784C156.13 463.267 156.356 462.641 156.356 461.908V450.098H161.21V461.746C161.21 463.968 160.552 465.607 159.236 466.664C157.942 467.721 155.903 468.249 153.121 468.249ZM165.58 467.829V462.425C165.58 461.066 165.849 460.02 166.389 459.287C166.928 458.554 167.694 458.036 168.686 457.734L168.718 457.604L165.256 456.343V455.501C165.256 454.444 165.569 453.474 166.194 452.589C166.82 451.705 167.737 451.004 168.945 450.486C170.174 449.947 171.662 449.677 173.41 449.677C175.847 449.677 177.788 450.249 179.233 451.392C180.679 452.514 181.401 454.218 181.401 456.504V467.829H176.548V456.796C176.548 455.717 176.257 454.908 175.674 454.369C175.114 453.83 174.316 453.56 173.28 453.56C172.288 453.56 171.544 453.776 171.048 454.207C170.552 454.617 170.282 455.124 170.239 455.728L173.118 457.054L172.762 459.157C171.986 459.201 171.404 459.481 171.015 459.999C170.627 460.516 170.433 461.217 170.433 462.102V467.829H165.58ZM190.914 468.152C189.469 468.152 188.358 467.818 187.582 467.149C186.805 466.459 186.417 465.413 186.417 464.011V450.098H191.27V463.428C191.27 464.226 191.648 464.625 192.403 464.625C192.726 464.625 193.093 464.55 193.503 464.399L193.956 467.505C193.136 467.936 192.122 468.152 190.914 468.152ZM201.621 468.152C199.766 468.152 198.332 467.71 197.318 466.826C196.326 465.941 195.83 464.701 195.83 463.105C195.83 461.379 196.444 459.999 197.674 458.963C198.925 457.928 200.888 457.302 203.562 457.087L206.927 456.828V456.31C206.927 455.275 206.647 454.531 206.086 454.078C205.525 453.625 204.662 453.398 203.498 453.398C202.376 453.398 201.276 453.571 200.197 453.916C199.141 454.24 198.224 454.628 197.447 455.081V451.069C198.073 450.767 198.957 450.465 200.1 450.163C201.244 449.839 202.57 449.677 204.08 449.677C205.547 449.677 206.852 449.893 207.995 450.325C209.138 450.734 210.033 451.435 210.68 452.428C211.349 453.42 211.683 454.779 211.683 456.504V467.829H206.927V460.322L204.112 460.613C202.818 460.743 201.912 461.002 201.395 461.39C200.898 461.778 200.65 462.296 200.65 462.943C200.65 463.59 200.855 464.075 201.265 464.399C201.697 464.723 202.247 464.884 202.915 464.884C203.174 464.884 203.433 464.863 203.692 464.82C203.951 464.755 204.188 464.69 204.404 464.625L204.824 467.667C204.414 467.818 203.929 467.936 203.368 468.023C202.807 468.109 202.225 468.152 201.621 468.152ZM196.53 447.639V445.601L199.798 444.242H211.349V447.639H196.53ZM216.039 467.829V462.425C216.039 461.066 216.309 460.02 216.848 459.287C217.388 458.554 218.153 458.036 219.146 457.734L219.178 457.604L215.716 456.343V455.501C215.716 454.444 216.029 453.474 216.654 452.589C217.28 451.705 218.196 451.004 219.404 450.486C220.634 449.947 222.122 449.677 223.869 449.677C226.307 449.677 228.248 450.249 229.693 451.392C231.138 452.514 231.861 454.218 231.861 456.504V467.829H227.008V456.796C227.008 455.717 226.717 454.908 226.134 454.369C225.573 453.83 224.775 453.56 223.74 453.56C222.748 453.56 222.004 453.776 221.507 454.207C221.011 454.617 220.742 455.124 220.699 455.728L223.578 457.054L223.222 459.157C222.446 459.201 221.863 459.481 221.475 459.999C221.087 460.516 220.893 461.217 220.893 462.102V467.829H216.039ZM236.391 467.829V457.313C236.391 454.833 237.049 452.945 238.365 451.651C239.681 450.335 241.762 449.677 244.61 449.677C247.478 449.677 249.549 450.335 250.822 451.651C252.116 452.945 252.763 454.833 252.763 457.313V467.829H247.942V457.249C247.942 456.105 247.673 455.21 247.133 454.563C246.616 453.894 245.753 453.56 244.545 453.56C243.359 453.56 242.496 453.894 241.957 454.563C241.439 455.21 241.18 456.105 241.18 457.249V460.063L241.277 460.096C241.687 459.255 242.172 458.705 242.733 458.446C243.315 458.165 244.103 458.025 245.095 458.025H245.839V461.649H245.095C244.016 461.649 243.197 461.832 242.636 462.199C242.075 462.566 241.687 463.051 241.471 463.655C241.277 464.237 241.18 464.895 241.18 465.628V467.829H236.391ZM247.576 447.639V440.295H252.041V447.639H247.576ZM260.35 457.378C258.861 457.378 257.815 457.054 257.211 456.407C256.629 455.739 256.338 454.973 256.338 454.11C256.338 453.355 256.553 452.579 256.985 451.781L260.512 452.234C260.404 452.557 260.35 452.902 260.35 453.269C260.35 453.549 260.436 453.776 260.609 453.948C260.781 454.099 261.083 454.175 261.515 454.175H265.171V457.378H260.35ZM260.35 466.437C258.861 466.437 257.815 466.114 257.211 465.467C256.629 464.798 256.338 464.032 256.338 463.17C256.338 462.415 256.553 461.638 256.985 460.84L260.512 461.293C260.404 461.616 260.35 461.962 260.35 462.328C260.35 462.609 260.436 462.835 260.609 463.008C260.781 463.159 261.083 463.234 261.515 463.234H265.171V466.437H260.35Z" fill="#696969"/>
<defs>
<filter id="filter0_d" x="22.445" y="167.851" width="329.883" height="91.8071" filterUnits="userSpaceOnUse" color-interpolation-filters="sRGB">
<feFlood flood-opacity="0" result="BackgroundImageFix"/>
<feColorMatrix in="SourceAlpha" type="matrix" values="0 0 0 0 0 0 0 0 0 0 0 0 0 0 0 0 0 0 127 0"/>
<feOffset dy="6.22421"/>
<feGaussianBlur stdDeviation="3.89013"/>
<feColorMatrix type="matrix" values="0 0 0 0 0.525 0 0 0 0 0.525 0 0 0 0 0.525 0 0 0 0.25 0"/>
<feBlend mode="normal" in2="BackgroundImageFix" result="effect1_dropShadow"/>
<feBlend mode="normal" in="SourceGraphic" in2="effect1_dropShadow" result="shape"/>
</filter>
<filter id="filter1_d" x="305.646" y="263.3" width="276.413" height="91.9077" filterUnits="userSpaceOnUse" color-interpolation-filters="sRGB">
<feFlood flood-opacity="0" result="BackgroundImageFix"/>
<feColorMatrix in="SourceAlpha" type="matrix" values="0 0 0 0 0 0 0 0 0 0 0 0 0 0 0 0 0 0 127 0"/>
<feOffset dy="6.22421"/>
<feGaussianBlur stdDeviation="3.89013"/>
<feColorMatrix type="matrix" values="0 0 0 0 0.525 0 0 0 0 0.525 0 0 0 0 0.525 0 0 0 0.25 0"/>
<feBlend mode="normal" in2="BackgroundImageFix" result="effect1_dropShadow"/>
<feBlend mode="normal" in="SourceGraphic" in2="effect1_dropShadow" result="shape"/>
</filter>
<filter id="filter2_d" x="22.445" y="416.819" width="326.771" height="91.8071" filterUnits="userSpaceOnUse" color-interpolation-filters="sRGB">
<feFlood flood-opacity="0" result="BackgroundImageFix"/>
<feColorMatrix in="SourceAlpha" type="matrix" values="0 0 0 0 0 0 0 0 0 0 0 0 0 0 0 0 0 0 127 0"/>
<feOffset dy="6.22421"/>
<feGaussianBlur stdDeviation="3.89013"/>
<feColorMatrix type="matrix" values="0 0 0 0 0.525 0 0 0 0 0.525 0 0 0 0 0.525 0 0 0 0.25 0"/>
<feBlend mode="normal" in2="BackgroundImageFix" result="effect1_dropShadow"/>
<feBlend mode="normal" in="SourceGraphic" in2="effect1_dropShadow" result="shape"/>
</filter>
</defs>
</svg>
