<svg width="362" height="220" viewBox="0 0 362 220" fill="none" xmlns="http://www.w3.org/2000/svg">
<g filter="url(#filter0_d)">
<rect x="6" y="38" width="202" height="49" rx="10" fill="white"/>
<rect x="6" y="38" width="202" height="49" rx="10" stroke="url(#paint0_linear)"/>
</g>
<g filter="url(#filter1_d)">
<rect x="188" y="99.3406" width="167.638" height="49.0647" rx="10" fill="white"/>
<rect x="188" y="99.3406" width="167.638" height="49.0647" rx="10" stroke="url(#paint1_linear)"/>
</g>
<g filter="url(#filter2_d)">
<rect x="6" y="161" width="226" height="49" rx="10" fill="white"/>
<rect x="6" y="161" width="226" height="49" rx="10" stroke="url(#paint2_linear)"/>
</g>
<path d="M51.3363 70.094C49.7838 70.094 48.6124 69.7475 47.8223 69.0544C47.0321 68.3613 46.6371 67.3494 46.6371 66.0186V65.1869C46.6371 64.6186 46.7133 64.1542 46.8658 63.7938C47.0183 63.4195 47.2054 63.0799 47.4272 62.7749C47.649 62.47 47.8292 62.1996 47.9678 61.964C48.1203 61.7145 48.1966 61.458 48.1966 61.1947C48.1966 60.9451 48.1342 60.7719 48.0094 60.6748C47.8985 60.5639 47.746 60.5085 47.552 60.5085C47.3025 60.5085 46.9975 60.5917 46.6371 60.758L46.1381 58.8035C46.5262 58.5955 46.942 58.4569 47.3856 58.3876C47.8431 58.3044 48.2451 58.2628 48.5916 58.2628C49.5065 58.2628 50.1511 58.4846 50.5254 58.9282C50.9135 59.3579 51.1076 59.9401 51.1076 60.6748C51.1076 61.1046 51.0452 61.4858 50.9204 61.8184C50.7957 62.1373 50.6363 62.47 50.4422 62.8165C50.262 63.1353 50.0956 63.4334 49.9432 63.7106C49.8045 63.9878 49.7352 64.3898 49.7352 64.9166V65.7483C49.7352 66.4275 49.8739 66.9196 50.1511 67.2246C50.4422 67.5157 50.8442 67.6613 51.3571 67.6613C52.4245 67.6613 52.9581 67.0583 52.9581 65.8523V58.4292H56.0563V65.9354C56.0563 67.3078 55.6543 68.3474 54.8503 69.0544C54.0463 69.7475 52.875 70.094 51.3363 70.094ZM63.4959 70.094C61.8048 70.094 60.5503 69.6851 59.7324 68.8673C58.9146 68.0355 58.5056 66.8088 58.5056 65.1869C58.5056 64.9097 58.5126 64.577 58.5264 64.1888C58.5542 63.7868 58.5888 63.4334 58.6304 63.1284H63.6207V65.1037H61.5622V65.3948C61.5622 66.2265 61.7147 66.8365 62.0196 67.2246C62.3385 67.5989 62.8236 67.786 63.4752 67.786C64.1682 67.786 64.7089 67.5434 65.097 67.0583C65.4851 66.5592 65.6792 65.6582 65.6792 64.3552C65.6792 63.1215 65.4643 62.1996 65.0346 61.5897C64.6049 60.9659 63.8148 60.654 62.6642 60.654C62.0404 60.654 61.3959 60.7511 60.7305 60.9451C60.0651 61.1392 59.5176 61.3541 59.0878 61.5897V58.9906C59.5314 58.7549 60.1413 58.5609 60.9176 58.4084C61.7077 58.2421 62.484 58.1589 63.2464 58.1589C64.591 58.1589 65.6723 58.4084 66.4901 58.9074C67.3218 59.3926 67.9248 60.0857 68.2991 60.9867C68.6873 61.8878 68.8813 62.9551 68.8813 64.1888C68.8813 66.0741 68.4585 67.5296 67.6129 68.5554C66.7674 69.5811 65.395 70.094 63.4959 70.094ZM75.1977 70.094C74.3798 70.094 73.555 70.0039 72.7233 69.8237C71.9054 69.6435 71.1777 69.3871 70.54 69.0544L71.4133 66.58C71.8292 66.8018 72.3629 67.0375 73.0144 67.287C73.6659 67.5226 74.3521 67.6405 75.0729 67.6405C76.1957 67.6405 76.7571 67.3147 76.7571 66.6632C76.7571 66.3028 76.5423 66.0256 76.1126 65.8315C75.6967 65.6236 75.1145 65.3879 74.3659 65.1245C73.6313 64.8611 73.0005 64.577 72.4738 64.272C71.947 63.967 71.5381 63.5928 71.247 63.1492C70.9698 62.7056 70.8311 62.1511 70.8311 61.4858C70.8311 60.3491 71.2539 59.5104 72.0995 58.9698C72.959 58.4292 74.1026 58.1589 75.5304 58.1589C76.3066 58.1589 77.0067 58.2213 77.6304 58.346C78.2542 58.4708 78.7394 58.6302 79.0859 58.8243V61.2778C78.7255 61.1115 78.2196 60.9521 77.5681 60.7996C76.9165 60.6332 76.2858 60.5501 75.6759 60.5501C74.5254 60.5501 73.9501 60.8412 73.9501 61.4234C73.9501 61.7561 74.1719 62.0194 74.6155 62.2135C75.0729 62.3937 75.7106 62.6224 76.5284 62.8997C77.6096 63.274 78.4344 63.7245 79.0028 64.2512C79.585 64.7641 79.8761 65.5127 79.8761 66.4969C79.8761 67.1206 79.7305 67.7098 79.4394 68.2643C79.1622 68.8049 78.6839 69.2485 78.0047 69.595C77.3255 69.9277 76.3898 70.094 75.1977 70.094ZM85.0655 69.8237V62.2967C85.0655 61.7145 84.9269 61.2917 84.6497 61.0283C84.3863 60.7649 83.9497 60.6332 83.3397 60.6332C82.8823 60.6332 82.4595 60.6956 82.0714 60.8204C81.6971 60.9451 81.3436 61.0976 81.0109 61.2778V58.7827C81.3159 58.6441 81.7456 58.5054 82.3001 58.3668C82.8546 58.2282 83.5061 58.1589 84.2546 58.1589C85.017 58.1589 85.6893 58.2698 86.2715 58.4916C86.8676 58.7134 87.332 59.0876 87.6647 59.6144C88.0112 60.1273 88.1845 60.8342 88.1845 61.7353V69.8237H85.0655ZM91.0866 69.8237V63.066C91.0866 61.4719 91.5094 60.259 92.3549 59.4273C93.2005 58.5817 94.5382 58.1589 96.368 58.1589C98.2116 58.1589 99.5424 58.5817 100.36 59.4273C101.192 60.259 101.608 61.4719 101.608 63.066V69.8237H98.5096V63.0244C98.5096 62.2898 98.3364 61.7145 97.9898 61.2986C97.6571 60.8689 97.1027 60.654 96.3264 60.654C95.564 60.654 95.0095 60.8689 94.663 61.2986C94.3303 61.7145 94.1639 62.2898 94.1639 63.0244V64.8334L94.2263 64.8542C94.4897 64.3136 94.8016 63.9601 95.162 63.7938C95.5363 63.6136 96.0422 63.5235 96.6799 63.5235H97.1581V65.8523H96.6799C95.9868 65.8523 95.46 65.9701 95.0996 66.2058C94.7392 66.4414 94.4897 66.7533 94.3511 67.1414C94.2263 67.5157 94.1639 67.9385 94.1639 68.4098V69.8237H91.0866ZM107.544 69.8237V62.2967C107.544 61.7145 107.405 61.2917 107.128 61.0283C106.865 60.7649 106.428 60.6332 105.818 60.6332C105.361 60.6332 104.938 60.6956 104.55 60.8204C104.175 60.9451 103.822 61.0976 103.489 61.2778V58.7827C103.794 58.6441 104.224 58.5054 104.778 58.3668C105.333 58.2282 105.984 58.1589 106.733 58.1589C107.495 58.1589 108.168 58.2698 108.75 58.4916C109.346 58.7134 109.81 59.0876 110.143 59.6144C110.49 60.1273 110.663 60.8342 110.663 61.7353V69.8237H107.544ZM117.661 70.0317C116.538 70.0317 115.644 69.7891 114.979 69.3039C114.313 68.8049 113.835 68.1256 113.544 67.2662C113.253 66.3929 113.107 65.3948 113.107 64.272C113.107 63.066 113.239 62.068 113.503 61.2778C113.78 60.4738 114.168 59.85 114.667 59.4065C115.166 58.949 115.755 58.6302 116.434 58.45C117.127 58.2559 117.883 58.1589 118.701 58.1589C119.948 58.1589 120.946 58.3322 121.695 58.6787C122.443 59.0253 122.984 59.5174 123.317 60.155C123.663 60.7927 123.837 61.5412 123.837 62.4006V69.8237H120.718V62.6502C120.718 61.9986 120.558 61.5065 120.239 61.1739C119.934 60.8273 119.422 60.654 118.701 60.654C118.216 60.654 117.786 60.758 117.412 60.9659C117.051 61.16 116.767 61.5135 116.559 62.0264C116.365 62.5393 116.268 63.274 116.268 64.2304C116.268 65.2146 116.414 66.0117 116.705 66.6216C116.996 67.2315 117.502 67.5365 118.223 67.5365C118.527 67.5365 118.805 67.5019 119.054 67.4325L119.345 69.7614C119.124 69.8584 118.853 69.9277 118.534 69.9693C118.229 70.0109 117.938 70.0317 117.661 70.0317ZM117.122 56.8697V55.8301C117.316 55.7746 117.531 55.6984 117.767 55.6014C118.002 55.5043 118.21 55.3726 118.39 55.2063C118.571 55.0399 118.661 54.832 118.661 54.5825C118.661 54.3884 118.605 54.2359 118.494 54.1251C118.383 54.0142 118.245 53.9587 118.078 53.9587C117.968 53.9587 117.85 53.9795 117.725 54.0211C117.6 54.0627 117.489 54.1043 117.392 54.1458L116.997 52.7527C117.274 52.5171 117.621 52.3646 118.037 52.2953C118.439 52.2121 118.778 52.1705 119.056 52.1705C119.679 52.1705 120.172 52.3161 120.532 52.6072C120.879 52.8983 121.052 53.328 121.052 53.8963C121.052 54.2567 120.948 54.5756 120.74 54.8528H123.921V56.8697H117.122ZM129.779 70.094C129.072 70.094 128.407 70.0109 127.783 69.8445C127.159 69.692 126.577 69.4703 126.036 69.1791L126.868 66.9127C127.173 67.0929 127.54 67.2523 127.97 67.391C128.4 67.5296 128.823 67.5989 129.238 67.5989C130.015 67.5989 130.632 67.3078 131.089 66.7256C131.546 66.1295 131.775 65.2424 131.775 64.0641C131.775 62.9551 131.546 62.1095 131.089 61.5273C130.632 60.9451 129.918 60.654 128.947 60.654C128.49 60.654 128.019 60.7233 127.533 60.862C127.048 60.9867 126.646 61.1461 126.327 61.3402V58.7827C126.757 58.5886 127.242 58.4361 127.783 58.3252C128.323 58.2143 128.899 58.1589 129.509 58.1589C131.422 58.1589 132.808 58.6856 133.667 59.7391C134.527 60.7788 134.956 62.2204 134.956 64.0641C134.956 66.0325 134.506 67.5296 133.605 68.5554C132.704 69.5811 131.429 70.094 129.779 70.094ZM142.248 70.094C141 70.094 140.002 69.9485 139.254 69.6574C138.505 69.3524 137.958 68.9296 137.611 68.389C137.278 67.8484 137.112 67.2246 137.112 66.5177C137.112 65.9077 137.202 65.4156 137.382 65.0414C137.576 64.6671 137.819 64.3829 138.11 64.1888C138.415 63.9809 138.72 63.8423 139.025 63.773V63.6482C138.554 63.4957 138.117 63.2324 137.715 62.8581C137.313 62.47 137.112 61.9016 137.112 61.1531C137.112 60.6402 137.23 60.1619 137.466 59.7184C137.715 59.2748 138.11 58.9213 138.651 58.6579C139.191 58.3807 139.905 58.2421 140.792 58.2421C141.222 58.2421 141.638 58.2767 142.04 58.346C142.442 58.4015 142.754 58.4846 142.976 58.5955L142.497 60.6956C142.387 60.6679 142.234 60.6402 142.04 60.6125C141.86 60.5709 141.673 60.5501 141.479 60.5501C141.049 60.5501 140.73 60.654 140.522 60.862C140.314 61.056 140.21 61.3125 140.21 61.6313C140.21 62.1442 140.404 62.4838 140.792 62.6502C141.181 62.8026 141.603 62.8789 142.061 62.8789H142.497V64.8126H142.061C141.465 64.8126 141.014 64.9166 140.709 65.1245C140.418 65.3325 140.273 65.6721 140.273 66.1434C140.273 66.3929 140.328 66.6424 140.439 66.8919C140.564 67.1276 140.772 67.3286 141.063 67.4949C141.354 67.6474 141.77 67.7236 142.31 67.7236C143.087 67.7236 143.613 67.5573 143.891 67.2246C144.182 66.8919 144.327 66.4899 144.327 66.0186V58.4292H147.446V65.9147C147.446 67.3424 147.023 68.3959 146.178 69.0752C145.346 69.7544 144.036 70.094 142.248 70.094ZM150.359 69.8237V63.066C150.359 61.4719 150.781 60.259 151.627 59.4273C152.473 58.5817 153.81 58.1589 155.64 58.1589C157.484 58.1589 158.814 58.5817 159.632 59.4273C160.464 60.259 160.88 61.4719 160.88 63.066V69.8237H157.782V63.0244C157.782 62.2898 157.608 61.7145 157.262 61.2986C156.929 60.8689 156.375 60.654 155.598 60.654C154.836 60.654 154.282 60.8689 153.935 61.2986C153.602 61.7145 153.436 62.2898 153.436 63.0244V64.8334L153.498 64.8542C153.762 64.3136 154.074 63.9601 154.434 63.7938C154.808 63.6136 155.314 63.5235 155.952 63.5235H156.43V65.8523H155.952C155.259 65.8523 154.732 65.9701 154.372 66.2058C154.011 66.4414 153.762 66.7533 153.623 67.1414C153.498 67.5157 153.436 67.9385 153.436 68.4098V69.8237H150.359ZM157.546 56.8489V52.1289H160.416V56.8489H157.546ZM165.756 63.1076C164.799 63.1076 164.127 62.8997 163.739 62.4838C163.364 62.0541 163.177 61.562 163.177 61.0075C163.177 60.5223 163.316 60.0233 163.593 59.5104L165.859 59.8015C165.79 60.0095 165.756 60.2312 165.756 60.4669C165.756 60.6471 165.811 60.7927 165.922 60.9036C166.033 61.0006 166.227 61.0491 166.504 61.0491H168.854V63.1076H165.756ZM165.756 68.9296C164.799 68.9296 164.127 68.7217 163.739 68.3058C163.364 67.8761 163.177 67.384 163.177 66.8295C163.177 66.3444 163.316 65.8453 163.593 65.3325L165.859 65.6236C165.79 65.8315 165.756 66.0533 165.756 66.2889C165.756 66.4691 165.811 66.6147 165.922 66.7256C166.033 66.8226 166.227 66.8711 166.504 66.8711H168.854V68.9296H165.756Z" fill="#696969"/>
<path d="M250.913 131.087C250.096 131.087 249.271 130.997 248.439 130.816C247.621 130.636 246.894 130.38 246.256 130.047L247.129 127.573C247.545 127.794 248.079 128.03 248.73 128.28C249.382 128.515 250.068 128.633 250.789 128.633C251.912 128.633 252.473 128.307 252.473 127.656C252.473 127.295 252.258 127.018 251.828 126.824C251.413 126.616 250.83 126.381 250.082 126.117C249.347 125.854 248.716 125.57 248.19 125.265C247.663 124.96 247.254 124.585 246.963 124.142C246.686 123.698 246.547 123.144 246.547 122.478C246.547 121.342 246.97 120.503 247.815 119.962C248.675 119.422 249.818 119.152 251.246 119.152C252.022 119.152 252.722 119.214 253.346 119.339C253.97 119.463 254.455 119.623 254.802 119.817V122.271C254.441 122.104 253.935 121.945 253.284 121.792C252.632 121.626 252.002 121.543 251.392 121.543C250.241 121.543 249.666 121.834 249.666 122.416C249.666 122.749 249.888 123.012 250.331 123.206C250.789 123.386 251.426 123.615 252.244 123.892C253.325 124.267 254.15 124.717 254.719 125.244C255.301 125.757 255.592 126.505 255.592 127.49C255.592 128.113 255.446 128.702 255.155 129.257C254.878 129.798 254.4 130.241 253.721 130.588C253.041 130.92 252.106 131.087 250.913 131.087ZM260.781 130.816V123.289C260.781 122.707 260.643 122.284 260.366 122.021C260.102 121.758 259.665 121.626 259.056 121.626C258.598 121.626 258.175 121.688 257.787 121.813C257.413 121.938 257.059 122.09 256.727 122.271V119.775C257.032 119.637 257.461 119.498 258.016 119.359C258.57 119.221 259.222 119.152 259.97 119.152C260.733 119.152 261.405 119.262 261.987 119.484C262.583 119.706 263.048 120.08 263.38 120.607C263.727 121.12 263.9 121.827 263.9 122.728V130.816H260.781ZM266.802 130.816V124.059C266.802 122.465 267.225 121.252 268.071 120.42C268.916 119.574 270.254 119.152 272.084 119.152C273.927 119.152 275.258 119.574 276.076 120.42C276.908 121.252 277.324 122.465 277.324 124.059V130.816H274.225V124.017C274.225 123.282 274.052 122.707 273.706 122.291C273.373 121.862 272.818 121.647 272.042 121.647C271.28 121.647 270.725 121.862 270.379 122.291C270.046 122.707 269.88 123.282 269.88 124.017V125.826L269.942 125.847C270.206 125.306 270.517 124.953 270.878 124.786C271.252 124.606 271.758 124.516 272.396 124.516H272.874V126.845H272.396C271.703 126.845 271.176 126.963 270.815 127.198C270.455 127.434 270.206 127.746 270.067 128.134C269.942 128.508 269.88 128.931 269.88 129.402V130.816H266.802ZM283.26 130.816V123.289C283.26 122.707 283.121 122.284 282.844 122.021C282.58 121.758 282.144 121.626 281.534 121.626C281.076 121.626 280.654 121.688 280.266 121.813C279.891 121.938 279.538 122.09 279.205 122.271V119.775C279.51 119.637 279.94 119.498 280.494 119.359C281.049 119.221 281.7 119.152 282.449 119.152C283.211 119.152 283.883 119.262 284.466 119.484C285.062 119.706 285.526 120.08 285.859 120.607C286.205 121.12 286.379 121.827 286.379 122.728V130.816H283.26ZM291.348 126.278C291.348 125.331 291.463 124.576 291.693 124.014C291.924 123.452 292.343 122.901 292.952 122.359C293.568 121.811 293.978 121.368 294.181 121.029C294.384 120.684 294.485 120.322 294.485 119.943C294.485 118.799 293.958 118.227 292.902 118.227C292.401 118.227 291.998 118.383 291.693 118.694C291.396 118.999 291.24 119.422 291.226 119.963H288.282C288.296 118.67 288.712 117.658 289.531 116.927C290.357 116.196 291.48 115.831 292.902 115.831C294.337 115.831 295.45 116.179 296.242 116.877C297.034 117.567 297.43 118.545 297.43 119.811C297.43 120.386 297.301 120.931 297.044 121.445C296.787 121.953 296.337 122.518 295.694 123.141L294.871 123.923C294.357 124.417 294.062 124.995 293.988 125.659L293.947 126.278H291.348ZM291.054 129.395C291.054 128.942 291.206 128.569 291.511 128.278C291.822 127.98 292.218 127.831 292.699 127.831C293.179 127.831 293.572 127.98 293.876 128.278C294.188 128.569 294.343 128.942 294.343 129.395C294.343 129.842 294.191 130.211 293.886 130.502C293.589 130.793 293.193 130.938 292.699 130.938C292.204 130.938 291.805 130.793 291.501 130.502C291.203 130.211 291.054 129.842 291.054 129.395Z" fill="#696969"/>
<path d="M54.8305 192.773C54.0127 192.773 53.1879 192.682 52.3561 192.502C51.5383 192.322 50.8105 192.066 50.1729 191.733L51.0462 189.258C51.4621 189.48 51.9957 189.716 52.6472 189.965C53.2988 190.201 53.9849 190.319 54.7058 190.319C55.8286 190.319 56.39 189.993 56.39 189.342C56.39 188.981 56.1751 188.704 55.7454 188.51C55.3295 188.302 54.7473 188.066 53.9988 187.803C53.2641 187.54 52.6334 187.255 52.1066 186.95C51.5799 186.646 51.1709 186.271 50.8798 185.828C50.6026 185.384 50.464 184.83 50.464 184.164C50.464 183.028 50.8868 182.189 51.7324 181.648C52.5918 181.108 53.7354 180.837 55.1632 180.837C55.9395 180.837 56.6395 180.9 57.2633 181.024C57.8871 181.149 58.3722 181.309 58.7188 181.503V183.956C58.3584 183.79 57.8524 183.631 57.2009 183.478C56.5494 183.312 55.9187 183.229 55.3087 183.229C54.1582 183.229 53.5829 183.52 53.5829 184.102C53.5829 184.435 53.8047 184.698 54.2483 184.892C54.7058 185.072 55.3434 185.301 56.1613 185.578C57.2425 185.952 58.0673 186.403 58.6356 186.93C59.2178 187.443 59.5089 188.191 59.5089 189.175C59.5089 189.799 59.3634 190.388 59.0723 190.943C58.795 191.483 58.3168 191.927 57.6376 192.273C56.9583 192.606 56.0226 192.773 54.8305 192.773ZM64.6984 192.502V184.975C64.6984 184.393 64.5598 183.97 64.2825 183.707C64.0192 183.443 63.5825 183.312 62.9726 183.312C62.5151 183.312 62.0923 183.374 61.7042 183.499C61.3299 183.624 60.9765 183.776 60.6438 183.956V181.461C60.9487 181.323 61.3784 181.184 61.9329 181.045C62.4874 180.907 63.1389 180.837 63.8875 180.837C64.6499 180.837 65.3222 180.948 65.9044 181.17C66.5004 181.392 66.9648 181.766 67.2975 182.293C67.6441 182.806 67.8173 183.513 67.8173 184.414V192.502H64.6984ZM70.7194 192.502V185.744C70.7194 184.15 71.1422 182.937 71.9878 182.106C72.8334 181.26 74.171 180.837 76.0008 180.837C77.8445 180.837 79.1752 181.26 79.9931 182.106C80.8248 182.937 81.2406 184.15 81.2406 185.744V192.502H78.1425V185.703C78.1425 184.968 77.9692 184.393 77.6227 183.977C77.29 183.547 76.7355 183.333 75.9592 183.333C75.1968 183.333 74.6423 183.547 74.2958 183.977C73.9631 184.393 73.7968 184.968 73.7968 185.703V187.512L73.8591 187.533C74.1225 186.992 74.4344 186.639 74.7948 186.472C75.1691 186.292 75.6751 186.202 76.3127 186.202H76.791V188.531H76.3127C75.6196 188.531 75.0929 188.649 74.7325 188.884C74.372 189.12 74.1225 189.432 73.9839 189.82C73.8591 190.194 73.7968 190.617 73.7968 191.088V192.502H70.7194ZM87.1767 192.502V184.975C87.1767 184.393 87.0381 183.97 86.7608 183.707C86.4975 183.443 86.0608 183.312 85.4509 183.312C84.9934 183.312 84.5707 183.374 84.1825 183.499C83.8082 183.624 83.4548 183.776 83.1221 183.956V181.461C83.427 181.323 83.8568 181.184 84.4112 181.045C84.9657 180.907 85.6172 180.837 86.3658 180.837C87.1282 180.837 87.8005 180.948 88.3827 181.17C88.9788 181.392 89.4431 181.766 89.7758 182.293C90.1224 182.806 90.2957 183.513 90.2957 184.414V192.502H87.1767ZM96.3998 192.71C95.4711 192.71 94.7572 192.495 94.2582 192.066C93.7591 191.622 93.5096 190.95 93.5096 190.049V181.108H96.6286V189.674C96.6286 190.187 96.8712 190.444 97.3563 190.444C97.5642 190.444 97.7999 190.395 98.0633 190.298L98.3544 192.294C97.8276 192.572 97.1761 192.71 96.3998 192.71ZM100.43 192.502V181.108H102.717L103.133 182.896H103.299C103.535 182.328 103.944 181.856 104.526 181.482C105.108 181.094 105.864 180.9 106.793 180.9C109.44 180.9 110.764 182.321 110.764 185.162V192.502H107.645V185.786C107.645 185.01 107.486 184.455 107.167 184.123C106.862 183.776 106.411 183.603 105.815 183.603C105.094 183.603 104.533 183.894 104.131 184.476C103.743 185.058 103.549 185.918 103.549 187.054V192.502H100.43ZM107.289 179.527V174.807H110.159V179.527H107.289ZM116.681 192.502V184.975C116.681 184.393 116.542 183.97 116.265 183.707C116.002 183.443 115.565 183.312 114.955 183.312C114.498 183.312 114.075 183.374 113.687 183.499C113.312 183.624 112.959 183.776 112.626 183.956V181.461C112.931 181.323 113.361 181.184 113.915 181.045C114.47 180.907 115.121 180.837 115.87 180.837C116.632 180.837 117.305 180.948 117.887 181.17C118.483 181.392 118.947 181.766 119.28 182.293C119.626 182.806 119.8 183.513 119.8 184.414V192.502H116.681ZM126.32 192.71C125.391 192.71 124.677 192.495 124.178 192.066C123.679 191.622 123.43 190.95 123.43 190.049V180.151C123.43 179.375 123.534 178.8 123.741 178.425C123.963 178.051 124.213 177.76 124.49 177.552L124.469 177.469H121.246L121.828 175.223H128.441V177.469C127.928 177.469 127.484 177.635 127.11 177.968C126.736 178.301 126.548 178.911 126.548 179.798V189.674C126.548 190.187 126.791 190.444 127.276 190.444C127.484 190.444 127.72 190.395 127.983 190.298L128.274 192.294C127.748 192.572 127.096 192.71 126.32 192.71ZM130.097 192.502V181.108H133.175V185.37H133.258L136.793 181.108H140.224V181.212L137.209 184.559C138.193 184.712 138.934 185.128 139.433 185.807C139.932 186.486 140.182 187.304 140.182 188.26V192.502H137.063V188.739C137.063 188.115 136.911 187.644 136.606 187.325C136.301 186.992 135.857 186.784 135.275 186.701L133.175 189.03V192.502H130.097ZM146.754 192.773C145.936 192.773 145.111 192.682 144.28 192.502C143.462 192.322 142.734 192.066 142.096 191.733L142.97 189.258C143.386 189.48 143.919 189.716 144.571 189.965C145.222 190.201 145.908 190.319 146.629 190.319C147.752 190.319 148.314 189.993 148.314 189.342C148.314 188.981 148.099 188.704 147.669 188.51C147.253 188.302 146.671 188.066 145.922 187.803C145.188 187.54 144.557 187.255 144.03 186.95C143.503 186.646 143.094 186.271 142.803 185.828C142.526 185.384 142.388 184.83 142.388 184.164C142.388 183.028 142.81 182.189 143.656 181.648C144.515 181.108 145.659 180.837 147.087 180.837C147.863 180.837 148.563 180.9 149.187 181.024C149.811 181.149 150.296 181.309 150.642 181.503V183.956C150.282 183.79 149.776 183.631 149.124 183.478C148.473 183.312 147.842 183.229 147.232 183.229C146.082 183.229 145.506 183.52 145.506 184.102C145.506 184.435 145.728 184.698 146.172 184.892C146.629 185.072 147.267 185.301 148.085 185.578C149.166 185.952 149.991 186.403 150.559 186.93C151.141 187.443 151.432 188.191 151.432 189.175C151.432 189.799 151.287 190.388 150.996 190.943C150.719 191.483 150.24 191.927 149.561 192.273C148.882 192.606 147.946 192.773 146.754 192.773ZM147.758 179.527V174.807H150.628V179.527H147.758ZM153.607 192.502V185.744C153.607 184.15 154.03 182.937 154.875 182.106C155.721 181.26 157.059 180.837 158.888 180.837C160.732 180.837 162.063 181.26 162.881 182.106C163.712 182.937 164.128 184.15 164.128 185.744V192.502H161.03V185.703C161.03 184.968 160.857 184.393 160.51 183.977C160.178 183.547 159.623 183.333 158.847 183.333C158.084 183.333 157.53 183.547 157.183 183.977C156.851 184.393 156.684 184.968 156.684 185.703V187.512L156.747 187.533C157.01 186.992 157.322 186.639 157.682 186.472C158.057 186.292 158.563 186.202 159.2 186.202H159.678V188.531H159.2C158.507 188.531 157.98 188.649 157.62 188.884C157.26 189.12 157.01 189.432 156.871 189.82C156.747 190.194 156.684 190.617 156.684 191.088V192.502H153.607ZM170.958 192.773C170.14 192.773 169.316 192.682 168.484 192.502C167.666 192.322 166.938 192.066 166.301 191.733L167.174 189.258C167.59 189.48 168.124 189.716 168.775 189.965C169.427 190.201 170.113 190.319 170.834 190.319C171.956 190.319 172.518 189.993 172.518 189.342C172.518 188.981 172.303 188.704 171.873 188.51C171.457 188.302 170.875 188.066 170.127 187.803C169.392 187.54 168.761 187.255 168.234 186.95C167.708 186.646 167.299 186.271 167.008 185.828C166.73 185.384 166.592 184.83 166.592 184.164C166.592 183.028 167.015 182.189 167.86 181.648C168.72 181.108 169.863 180.837 171.291 180.837C172.067 180.837 172.767 180.9 173.391 181.024C174.015 181.149 174.5 181.309 174.847 181.503V183.956C174.486 183.79 173.98 183.631 173.329 183.478C172.677 183.312 172.046 183.229 171.437 183.229C170.286 183.229 169.711 183.52 169.711 184.102C169.711 184.435 169.933 184.698 170.376 184.892C170.834 185.072 171.471 185.301 172.289 185.578C173.37 185.952 174.195 186.403 174.763 186.93C175.346 187.443 175.637 188.191 175.637 189.175C175.637 189.799 175.491 190.388 175.2 190.943C174.923 191.483 174.445 191.927 173.765 192.273C173.086 192.606 172.15 192.773 170.958 192.773ZM171.921 179.527C171.269 179.527 170.757 179.43 170.382 179.236C170.008 179.042 169.745 178.8 169.592 178.509C169.426 178.204 169.343 177.885 169.343 177.552C169.343 177.025 169.481 176.519 169.759 176.034L172.025 176.325C171.956 176.533 171.921 176.727 171.921 176.907C171.921 177.102 171.983 177.254 172.108 177.365C172.219 177.462 172.413 177.51 172.69 177.51H177.161V179.527H171.921ZM182.947 192.773C181.145 192.773 179.835 192.357 179.017 191.525C178.213 190.679 177.811 189.459 177.811 187.865V181.108H180.93V188.032C180.93 188.766 181.09 189.328 181.408 189.716C181.741 190.09 182.254 190.277 182.947 190.277C183.64 190.277 184.146 190.09 184.465 189.716C184.798 189.328 184.964 188.766 184.964 188.032V181.108H188.083V187.865C188.083 189.459 187.674 190.679 186.856 191.525C186.052 192.357 184.749 192.773 182.947 192.773Z" fill="#696969"/>
<path d="M23.6064 1.62693C21.2945 1.62693 19.0327 3.56996 19.1894 6.11488L20.7107 47.19C20.7184 47.9474 21.0226 48.6721 21.5588 49.2083C22.1018 49.7513 22.8384 50.0564 23.6064 50.0564C24.3745 50.0564 25.111 49.7513 25.6541 49.2083C26.1903 48.6721 26.4944 47.9474 26.5021 47.19L28.0234 6.11489C28.1802 3.56996 25.9184 1.62693 23.6064 1.62693Z" fill="#FC6B6B" stroke="#FC6B6B" stroke-width="2.74614" stroke-linecap="round" stroke-linejoin="round"/>
<path d="M23.6071 71.3753C26.0474 71.3753 28.0257 69.397 28.0257 66.9567C28.0257 64.5163 26.0474 62.5381 23.6071 62.5381C21.1667 62.5381 19.1885 64.5163 19.1885 66.9567C19.1885 69.397 21.1667 71.3753 23.6071 71.3753Z" fill="#FC6B6B" stroke="#FC6B6B" stroke-width="2.74614" stroke-linecap="round" stroke-linejoin="round"/>
<path d="M201.448 62.6196C199.136 62.6196 196.874 64.5626 197.031 67.1076L198.552 108.183C198.56 108.94 198.864 109.665 199.4 110.201C199.943 110.744 200.68 111.049 201.448 111.049C202.216 111.049 202.952 110.744 203.495 110.201C204.032 109.665 204.336 108.94 204.343 108.183L205.865 67.1076C206.021 64.5626 203.76 62.6196 201.448 62.6196Z" fill="#FC6B6B" stroke="#FC6B6B" stroke-width="2.74614" stroke-linecap="round" stroke-linejoin="round"/>
<path d="M201.448 132.368C203.889 132.368 205.867 130.39 205.867 127.949C205.867 125.509 203.889 123.531 201.448 123.531C199.008 123.531 197.03 125.509 197.03 127.949C197.03 130.39 199.008 132.368 201.448 132.368Z" fill="#FC6B6B" stroke="#FC6B6B" stroke-width="2.74614" stroke-linecap="round" stroke-linejoin="round"/>
<path d="M23.6064 118.761C21.2945 118.761 19.0327 120.704 19.1894 123.249L20.7107 164.324C20.7184 165.081 21.0226 165.806 21.5588 166.342C22.1018 166.885 22.8384 167.19 23.6064 167.19C24.3745 167.19 25.111 166.885 25.6541 166.342C26.1903 165.806 26.4944 165.081 26.5021 164.324L28.0234 123.249C28.1802 120.704 25.9184 118.761 23.6064 118.761Z" fill="#FC6B6B" stroke="#FC6B6B" stroke-width="2.74614" stroke-linecap="round" stroke-linejoin="round"/>
<path d="M23.6071 188.509C26.0474 188.509 28.0257 186.531 28.0257 184.09C28.0257 181.65 26.0474 179.672 23.6071 179.672C21.1667 179.672 19.1885 181.65 19.1885 184.09C19.1885 186.531 21.1667 188.509 23.6071 188.509Z" fill="#FC6B6B" stroke="#FC6B6B" stroke-width="2.74614" stroke-linecap="round" stroke-linejoin="round"/>
<defs>
<filter id="filter0_d" x="0.5" y="36.5" width="213" height="60" filterUnits="userSpaceOnUse" color-interpolation-filters="sRGB">
<feFlood flood-opacity="0" result="BackgroundImageFix"/>
<feColorMatrix in="SourceAlpha" type="matrix" values="0 0 0 0 0 0 0 0 0 0 0 0 0 0 0 0 0 0 127 0"/>
<feOffset dy="4"/>
<feGaussianBlur stdDeviation="2.5"/>
<feColorMatrix type="matrix" values="0 0 0 0 0.525 0 0 0 0 0.525 0 0 0 0 0.525 0 0 0 0.25 0"/>
<feBlend mode="normal" in2="BackgroundImageFix" result="effect1_dropShadow"/>
<feBlend mode="normal" in="SourceGraphic" in2="effect1_dropShadow" result="shape"/>
</filter>
<filter id="filter1_d" x="182.5" y="97.8406" width="178.638" height="60.0647" filterUnits="userSpaceOnUse" color-interpolation-filters="sRGB">
<feFlood flood-opacity="0" result="BackgroundImageFix"/>
<feColorMatrix in="SourceAlpha" type="matrix" values="0 0 0 0 0 0 0 0 0 0 0 0 0 0 0 0 0 0 127 0"/>
<feOffset dy="4"/>
<feGaussianBlur stdDeviation="2.5"/>
<feColorMatrix type="matrix" values="0 0 0 0 0.525 0 0 0 0 0.525 0 0 0 0 0.525 0 0 0 0.25 0"/>
<feBlend mode="normal" in2="BackgroundImageFix" result="effect1_dropShadow"/>
<feBlend mode="normal" in="SourceGraphic" in2="effect1_dropShadow" result="shape"/>
</filter>
<filter id="filter2_d" x="0.5" y="159.5" width="237" height="60" filterUnits="userSpaceOnUse" color-interpolation-filters="sRGB">
<feFlood flood-opacity="0" result="BackgroundImageFix"/>
<feColorMatrix in="SourceAlpha" type="matrix" values="0 0 0 0 0 0 0 0 0 0 0 0 0 0 0 0 0 0 127 0"/>
<feOffset dy="4"/>
<feGaussianBlur stdDeviation="2.5"/>
<feColorMatrix type="matrix" values="0 0 0 0 0.525 0 0 0 0 0.525 0 0 0 0 0.525 0 0 0 0.25 0"/>
<feBlend mode="normal" in2="BackgroundImageFix" result="effect1_dropShadow"/>
<feBlend mode="normal" in="SourceGraphic" in2="effect1_dropShadow" result="shape"/>
</filter>
<linearGradient id="paint0_linear" x1="214.049" y1="31.8296" x2="120.414" y2="169.797" gradientUnits="userSpaceOnUse">
<stop stop-color="#C8A6FA"/>
<stop offset="0.364583" stop-color="#A4B3FC"/>
<stop offset="0.692708" stop-color="#F77488"/>
<stop offset="0.994792" stop-color="#F56989"/>
</linearGradient>
<linearGradient id="paint1_linear" x1="360.658" y1="93.1621" x2="261.748" y2="213.949" gradientUnits="userSpaceOnUse">
<stop stop-color="#C8A6FA"/>
<stop offset="0.364583" stop-color="#A4B3FC"/>
<stop offset="0.692708" stop-color="#F77488"/>
<stop offset="0.994792" stop-color="#F56989"/>
</linearGradient>
<linearGradient id="paint2_linear" x1="238.768" y1="154.83" x2="149.409" y2="302.14" gradientUnits="userSpaceOnUse">
<stop stop-color="#C8A6FA"/>
<stop offset="0.364583" stop-color="#A4B3FC"/>
<stop offset="0.692708" stop-color="#F77488"/>
<stop offset="0.994792" stop-color="#F56989"/>
</linearGradient>
</defs>
</svg>
