<svg width="24" height="24" viewBox="0 0 24 24" fill="none" xmlns="http://www.w3.org/2000/svg">
<path d="M21.661 1.38762C21.2618 1.16508 20.8227 1.02356 20.3688 0.97115C19.915 0.91874 19.4553 0.95647 19.016 1.08218C18.5767 1.20789 18.1665 1.41912 17.8088 1.70378C17.451 1.98845 17.1528 2.34096 16.9312 2.74117L10.4747 14.3814L6.77958 10.6796C6.45877 10.3468 6.07502 10.0814 5.65071 9.89878C5.22641 9.71619 4.77006 9.62008 4.30828 9.61606C3.84651 9.61204 3.38856 9.70019 2.96115 9.87537C2.53374 10.0506 2.14545 10.3093 1.81891 10.6364C1.49237 10.9635 1.23414 11.3525 1.05927 11.7807C0.884405 12.2089 0.796412 12.6676 0.800424 13.1302C0.804437 13.5929 0.900376 14.05 1.08264 14.4751C1.26491 14.9002 1.52985 15.2846 1.86201 15.606L8.81755 22.5741C9.47485 23.2343 10.3617 23.5967 11.2763 23.5967L11.758 23.5618C12.2911 23.4871 12.7995 23.2895 13.2434 22.9845C13.6873 22.6795 14.0544 22.2754 14.3159 21.8041L23.0103 6.12592C23.2323 5.72604 23.3735 5.28627 23.4258 4.83173C23.4781 4.37719 23.4406 3.91678 23.3153 3.47679C23.19 3.03679 22.9794 2.62583 22.6955 2.26737C22.4117 1.90891 22.0601 1.60997 21.661 1.38762Z" fill="url(#paint0_linear)"/>
<defs>
<linearGradient id="paint0_linear" x1="22.1839" y1="-3.06568" x2="-1.56824" y2="14.3408" gradientUnits="userSpaceOnUse">
<stop stop-color="#F2598B"/>
<stop offset="1" stop-color="#FB8785"/>
</linearGradient>
</defs>
</svg>
