<svg width="70" height="70" viewBox="0 0 70 70" fill="none" xmlns="http://www.w3.org/2000/svg">
<path d="M35 70C54.3281 70 70 54.3281 70 35C70 15.6719 54.3281 6.25932e-06 35 4.5696e-06C15.6719 2.87988e-06 1.23789e-05 15.6719 1.06892e-05 35C8.99947e-06 54.3281 15.6719 70 35 70ZM35 5.9375C51.0469 5.93751 64.0625 18.9531 64.0625 35C64.0625 51.0469 51.0469 64.0625 35 64.0625C18.9531 64.0625 5.93751 51.0469 5.93751 35C5.93751 18.9531 18.9531 5.9375 35 5.9375Z" fill="#ED3590"/>
<path d="M38.75 48.75C38.75 47.7554 38.3549 46.8016 37.6517 46.0983C36.9484 45.3951 35.9946 45 35 45C34.0054 45 33.0516 45.3951 32.3484 46.0983C31.6451 46.8016 31.25 47.7554 31.25 48.75C31.25 49.7446 31.6451 50.6984 32.3484 51.4017C33.0516 52.1049 34.0054 52.5 35 52.5C35.9946 52.5 36.9484 52.1049 37.6517 51.4017C38.3549 50.6984 38.75 49.7446 38.75 48.75ZM33.125 40L36.875 40C37.2188 40 37.5 39.7188 37.5 39.375L37.5 18.125C37.5 17.7813 37.2188 17.5 36.875 17.5L33.125 17.5C32.7813 17.5 32.5 17.7813 32.5 18.125L32.5 39.375C32.5 39.7188 32.7813 40 33.125 40Z" fill="#ED3590"/>
</svg>
