<svg width="13" height="14" viewBox="0 0 13 14" fill="none" xmlns="http://www.w3.org/2000/svg">
<path d="M12 12.1997H0.5C0.223437 12.1997 0 12.4231 0 12.6997V13.2622C0 13.331 0.05625 13.3872 0.125 13.3872H12.375C12.4438 13.3872 12.5 13.331 12.5 13.2622V12.6997C12.5 12.4231 12.2766 12.1997 12 12.1997ZM2.27656 10.8872C2.30781 10.8872 2.33906 10.8841 2.37031 10.8794L4.99844 10.4185C5.02969 10.4122 5.05938 10.3981 5.08125 10.3747L11.7047 3.75127C11.7192 3.73681 11.7307 3.71964 11.7385 3.70074C11.7463 3.68184 11.7504 3.66158 11.7504 3.64111C11.7504 3.62065 11.7463 3.60039 11.7385 3.58148C11.7307 3.56258 11.7192 3.54541 11.7047 3.53096L9.10781 0.93252C9.07813 0.902832 9.03906 0.887207 8.99687 0.887207C8.95469 0.887207 8.91563 0.902832 8.88594 0.93252L2.2625 7.55596C2.23906 7.57939 2.225 7.60752 2.21875 7.63877L1.75781 10.2669C1.74261 10.3506 1.74804 10.4367 1.77364 10.5179C1.79923 10.599 1.84421 10.6727 1.90469 10.7325C2.00781 10.8325 2.1375 10.8872 2.27656 10.8872Z" fill="#666666"/>
</svg>
