<svg width="47" height="47" viewBox="0 0 47 47" fill="none" xmlns="http://www.w3.org/2000/svg">
<path d="M8.42422 0C3.75758 0 0 3.75757 0 8.42421V37.7121C0 42.3787 3.75758 46.1363 8.42422 46.1363H24.298V28.0999H19.5287V21.6062H24.298V16.0583C24.298 11.6996 27.116 7.69756 33.6075 7.69756C36.2358 7.69756 38.1793 7.94988 38.1793 7.94988L38.0265 14.0139C38.0265 14.0139 36.0443 13.9952 33.8814 13.9952C31.5405 13.9952 31.1651 15.0738 31.1651 16.8643V21.6063H38.2124L37.9054 28.0999H31.1651V46.1364H37.7121C42.3788 46.1364 46.1364 42.3788 46.1364 37.7122V8.42425C46.1364 3.75761 42.3788 4.61363e-05 37.7121 4.61363e-05H8.42418L8.42422 0Z" fill="white"/>
</svg>
